Archivo Narrow Devaganari-Bold.ufo
<glyph name="numbersign" format="1">
  <advance width="403"/>
  <unicode hex="0023"/>
  <outline>
    <contour>
      <point x="398" y="371" type="line"/>
      <point x="326" y="371" type="line"/>
      <point x="299" y="247" type="line"/>
      <point x="363" y="247" type="line"/>
      <point x="363" y="172" type="line"/>
      <point x="282" y="172" type="line"/>
      <point x="243" y="0" type="line"/>
      <point x="165" y="0" type="line"/>
      <point x="204" y="172" type="line"/>
      <point x="138" y="172" type="line"/>
      <point x="99" y="0" type="line"/>
      <point x="21" y="0" type="line"/>
      <point x="60" y="172" type="line"/>
      <point x="4" y="172" type="line"/>
      <point x="4" y="247" type="line"/>
      <point x="77" y="247" type="line"/>
      <point x="104" y="371" type="line"/>
      <point x="39" y="371" type="line"/>
      <point x="39" y="446" type="line"/>
      <point x="121" y="446" type="line"/>
      <point x="160" y="617" type="line"/>
      <point x="238" y="617" type="line"/>
      <point x="199" y="446" type="line"/>
      <point x="265" y="446" type="line"/>
      <point x="304" y="617" type="line"/>
      <point x="382" y="617" type="line"/>
      <point x="343" y="446" type="line"/>
      <point x="398" y="446" type="line"/>
    </contour>
    <contour>
      <point x="221" y="247" type="line"/>
      <point x="248" y="371" type="line"/>
      <point x="182" y="371" type="line"/>
      <point x="155" y="247" type="line"/>
    </contour>
  </outline>
</glyph>
<glyph name="dollar" format="1">
  <advance width="403"/>
  <unicode hex="0024"/>
  <outline>
    <contour>
      <point x="224" y="639" type="line"/>
      <point x="224" y="545" type="line"/>
      <point x="301" y="538"/>
      <point x="360" y="492"/>
      <point x="360" y="420" type="curve" smooth="yes"/>
      <point x="360" y="410"/>
      <point x="359" y="400"/>
      <point x="359" y="400" type="curve"/>
      <point x="262" y="400" type="line"/>
      <point x="262" y="401" type="line" smooth="yes"/>
      <point x="261" y="436"/>
      <point x="247" y="456"/>
      <point x="224" y="465" type="curve"/>
      <point x="224" y="351" type="line"/>
      <point x="291" y="333"/>
      <point x="371" y="312"/>
      <point x="371" y="210" type="curve" smooth="yes"/>
      <point x="371" y="107"/>
      <point x="309" y="67"/>
      <point x="224" y="61" type="curve"/>
      <point x="224" y="-43" type="line"/>
      <point x="175" y="-43" type="line"/>
      <point x="175" y="61" type="line"/>
      <point x="82" y="69"/>
      <point x="29" y="126"/>
      <point x="29" y="208" type="curve" smooth="yes"/>
      <point x="29" y="212"/>
      <point x="30" y="218"/>
      <point x="30" y="218" type="curve"/>
      <point x="127" y="218" type="line"/>
      <point x="127" y="212" type="line" smooth="yes"/>
      <point x="127" y="171"/>
      <point x="149" y="150"/>
      <point x="175" y="142" type="curve"/>
      <point x="175" y="269" type="line"/>
      <point x="110" y="287"/>
      <point x="36" y="309"/>
      <point x="36" y="405" type="curve" smooth="yes"/>
      <point x="36" y="490"/>
      <point x="95" y="537"/>
      <point x="175" y="545" type="curve"/>
      <point x="175" y="639" type="line"/>
    </contour>
    <contour>
      <point x="175" y="366" type="curve"/>
      <point x="175" y="465" type="line"/>
      <point x="150" y="457"/>
      <point x="133" y="438"/>
      <point x="133" y="414" type="curve" smooth="yes"/>
      <point x="133" y="389"/>
      <point x="150" y="376"/>
    </contour>
    <contour>
      <point x="224" y="253" type="curve"/>
      <point x="224" y="141" type="line"/>
      <point x="249" y="147"/>
      <point x="274" y="164"/>
      <point x="274" y="197" type="curve" smooth="yes"/>
      <point x="274" y="226"/>
      <point x="253" y="241"/>
    </contour>
  </outline>
</glyph>
<glyph name="quotesingle" format="1">
  <advance width="172"/>
  <unicode hex="0027"/>
  <outline>
    <contour>
      <point x="122" y="360" type="line"/>
      <point x="52" y="360" type="line"/>
      <point x="33" y="476" type="line"/>
      <point x="33" y="606" type="line"/>
      <point x="141" y="606" type="line"/>
      <point x="141" y="476" type="line"/>
    </contour>
  </outline>
</glyph>
<glyph name="parenleft" format="1">
  <advance width="241"/>
  <unicode hex="0028"/>
  <outline>
    <contour>
      <point x="158" y="650" type="curve"/>
      <point x="228" y="650" type="line"/>
      <point x="170" y="542"/>
      <point x="124" y="394"/>
      <point x="124" y="256" type="curve" smooth="yes"/>
      <point x="124" y="118"/>
      <point x="170" y="-31"/>
      <point x="228" y="-139" type="curve"/>
      <point x="158" y="-139" type="line"/>
      <point x="73" y="-30"/>
      <point x="27" y="110"/>
      <point x="27" y="255" type="curve" smooth="yes"/>
      <point x="27" y="400"/>
      <point x="73" y="541"/>
    </contour>
  </outline>
</glyph>
<glyph name="parenright" format="1">
  <advance width="241"/>
  <unicode hex="0029"/>
  <outline>
    <contour>
      <point x="13" y="650" type="curve"/>
      <point x="83" y="650" type="line"/>
      <point x="168" y="541"/>
      <point x="215" y="400"/>
      <point x="215" y="255" type="curve" smooth="yes"/>
      <point x="215" y="110"/>
      <point x="168" y="-30"/>
      <point x="83" y="-139" type="curve"/>
      <point x="13" y="-139" type="line"/>
      <point x="72" y="-31"/>
      <point x="118" y="118"/>
      <point x="118" y="256" type="curve" smooth="yes"/>
      <point x="118" y="394"/>
      <point x="72" y="542"/>
    </contour>
  </outline>
</glyph>
<glyph name="plus" format="1">
  <advance width="423"/>
  <unicode hex="002B"/>
  <outline>
    <contour>
      <point x="393" y="179" type="line"/>
      <point x="256" y="179" type="line"/>
      <point x="256" y="0" type="line"/>
      <point x="165" y="0" type="line"/>
      <point x="165" y="179" type="line"/>
      <point x="29" y="179" type="line"/>
      <point x="29" y="271" type="line"/>
      <point x="165" y="271" type="line"/>
      <point x="165" y="452" type="line"/>
      <point x="256" y="452" type="line"/>
      <point x="256" y="271" type="line"/>
      <point x="393" y="271" type="line"/>
    </contour>
  </outline>
</glyph>
<glyph name="comma" format="1">
  <advance width="202"/>
  <unicode hex="002C"/>
  <outline>
    <contour>
      <point x="40" y="-138" type="line"/>
      <point x="88" y="0" type="line"/>
      <point x="40" y="0" type="line"/>
      <point x="40" y="121" type="line"/>
      <point x="162" y="121" type="line"/>
      <point x="162" y="11" type="line"/>
      <point x="103" y="-138" type="line"/>
    </contour>
  </outline>
</glyph>
<glyph name="period" format="1">
  <advance width="202"/>
  <unicode hex="002E"/>
  <outline>
    <contour>
      <point x="40" y="121" type="line"/>
      <point x="162" y="121" type="line"/>
      <point x="162" y="0" type="line"/>
      <point x="40" y="0" type="line"/>
    </contour>
  </outline>
</glyph>
<glyph name="zero" format="1">
  <advance width="403"/>
  <unicode hex="0030"/>
  <outline>
    <contour>
      <point x="202" y="617" type="curve" smooth="yes"/>
      <point x="310" y="617"/>
      <point x="377" y="550"/>
      <point x="377" y="303" type="curve" smooth="yes"/>
      <point x="377" y="57"/>
      <point x="310" y="-11"/>
      <point x="202" y="-11" type="curve" smooth="yes"/>
      <point x="92" y="-11"/>
      <point x="27" y="57"/>
      <point x="27" y="303" type="curve" smooth="yes"/>
      <point x="27" y="550"/>
      <point x="92" y="617"/>
    </contour>
    <contour>
      <point x="202" y="528" type="curve" smooth="yes"/>
      <point x="148" y="528"/>
      <point x="137" y="467"/>
      <point x="137" y="334" type="curve" smooth="yes"/>
      <point x="137" y="272" type="line" smooth="yes"/>
      <point x="137" y="140"/>
      <point x="148" y="79"/>
      <point x="202" y="79" type="curve" smooth="yes"/>
      <point x="255" y="79"/>
      <point x="266" y="140"/>
      <point x="266" y="272" type="curve" smooth="yes"/>
      <point x="266" y="334" type="line" smooth="yes"/>
      <point x="266" y="467"/>
      <point x="255" y="528"/>
    </contour>
  </outline>
</glyph>
<glyph name="three" format="1">
  <advance width="403"/>
  <unicode hex="0033"/>
  <outline>
    <contour>
      <point x="199" y="617" type="curve" smooth="yes"/>
      <point x="299" y="617"/>
      <point x="366" y="559"/>
      <point x="366" y="451" type="curve" smooth="yes"/>
      <point x="366" y="379"/>
      <point x="332" y="340"/>
      <point x="287" y="315" type="curve"/>
      <point x="287" y="311" type="line"/>
      <point x="339" y="292"/>
      <point x="377" y="243"/>
      <point x="377" y="163" type="curve" smooth="yes"/>
      <point x="377" y="55"/>
      <point x="304" y="-11"/>
      <point x="202" y="-11" type="curve" smooth="yes"/>
      <point x="86" y="-11"/>
      <point x="22" y="61"/>
      <point x="22" y="171" type="curve" smooth="yes"/>
      <point x="22" y="187" type="line"/>
      <point x="133" y="187" type="line"/>
      <point x="133" y="169" type="line" smooth="yes"/>
      <point x="133" y="111"/>
      <point x="156" y="79"/>
      <point x="200" y="79" type="curve" smooth="yes"/>
      <point x="240" y="79"/>
      <point x="266" y="107"/>
      <point x="266" y="168" type="curve" smooth="yes"/>
      <point x="266" y="244"/>
      <point x="232" y="263"/>
      <point x="194" y="263" type="curve" smooth="yes"/>
      <point x="164" y="263" type="line"/>
      <point x="164" y="353" type="line"/>
      <point x="195" y="353" type="line" smooth="yes"/>
      <point x="229" y="353"/>
      <point x="255" y="384"/>
      <point x="255" y="446" type="curve" smooth="yes"/>
      <point x="255" y="503"/>
      <point x="234" y="528"/>
      <point x="200" y="528" type="curve" smooth="yes"/>
      <point x="164" y="528"/>
      <point x="143" y="499"/>
      <point x="143" y="443" type="curve" smooth="yes"/>
      <point x="143" y="426" type="line"/>
      <point x="33" y="426" type="line"/>
      <point x="33" y="451" type="line" smooth="yes"/>
      <point x="33" y="552"/>
      <point x="102" y="617"/>
    </contour>
  </outline>
</glyph>
<glyph name="six" format="1">
  <advance width="403"/>
  <unicode hex="0036"/>
  <outline>
    <contour>
      <point x="202" y="617" type="curve" smooth="yes"/>
      <point x="314" y="617"/>
      <point x="361" y="532"/>
      <point x="361" y="420" type="curve"/>
      <point x="252" y="420" type="line"/>
      <point x="252" y="488"/>
      <point x="239" y="528"/>
      <point x="198" y="528" type="curve" smooth="yes"/>
      <point x="143" y="528"/>
      <point x="138" y="452"/>
      <point x="136" y="333" type="curve"/>
      <point x="156" y="363"/>
      <point x="191" y="381"/>
      <point x="230" y="381" type="curve" smooth="yes"/>
      <point x="328" y="381"/>
      <point x="377" y="298"/>
      <point x="377" y="186" type="curve" smooth="yes"/>
      <point x="377" y="65"/>
      <point x="306" y="-11"/>
      <point x="210" y="-11" type="curve" smooth="yes"/>
      <point x="95" y="-11"/>
      <point x="27" y="61"/>
      <point x="27" y="286" type="curve" smooth="yes"/>
      <point x="27" y="538"/>
      <point x="92" y="617"/>
    </contour>
    <contour>
      <point x="205" y="294" type="curve" smooth="yes"/>
      <point x="163" y="294"/>
      <point x="142" y="250"/>
      <point x="142" y="186" type="curve" smooth="yes"/>
      <point x="142" y="125"/>
      <point x="163" y="79"/>
      <point x="205" y="79" type="curve" smooth="yes"/>
      <point x="248" y="79"/>
      <point x="267" y="125"/>
      <point x="267" y="186" type="curve" smooth="yes"/>
      <point x="267" y="250"/>
      <point x="248" y="294"/>
    </contour>
  </outline>
</glyph>
<glyph name="seven" format="1">
  <advance width="403"/>
  <unicode hex="0037"/>
  <outline>
    <contour>
      <point x="383" y="606" type="line"/>
      <point x="383" y="535" type="line"/>
      <point x="303" y="415"/>
      <point x="204" y="231"/>
      <point x="204" y="45" type="curve" smooth="yes"/>
      <point x="204" y="28"/>
      <point x="204" y="21"/>
      <point x="205" y="0" type="curve"/>
      <point x="88" y="0" type="line"/>
      <point x="88" y="194"/>
      <point x="175" y="385"/>
      <point x="268" y="507" type="curve"/>
      <point x="20" y="507" type="line"/>
      <point x="20" y="606" type="line"/>
    </contour>
  </outline>
</glyph>
<glyph name="colon" format="1">
  <advance width="241"/>
  <unicode hex="003A"/>
  <outline>
    <contour>
      <point x="49" y="465" type="line"/>
      <point x="171" y="465" type="line"/>
      <point x="171" y="344" type="line"/>
      <point x="49" y="344" type="line"/>
    </contour>
    <contour>
      <point x="49" y="121" type="line"/>
      <point x="171" y="121" type="line"/>
      <point x="171" y="0" type="line"/>
      <point x="49" y="0" type="line"/>
    </contour>
  </outline>
</glyph>
<glyph name="equal" format="1">
  <advance width="423"/>
  <unicode hex="003D"/>
  <outline>
    <contour>
      <point x="29" y="364" type="line"/>
      <point x="393" y="364" type="line"/>
      <point x="393" y="272" type="line"/>
      <point x="29" y="272" type="line"/>
    </contour>
    <contour>
      <point x="29" y="176" type="line"/>
      <point x="393" y="176" type="line"/>
      <point x="393" y="85" type="line"/>
      <point x="29" y="85" type="line"/>
    </contour>
  </outline>
</glyph>
<glyph name="greater" format="1">
  <advance width="423"/>
  <unicode hex="003E"/>
  <outline>
    <contour>
      <point x="30" y="-8" type="line"/>
      <point x="30" y="96" type="line"/>
      <point x="305" y="231" type="line"/>
      <point x="30" y="365" type="line"/>
      <point x="30" y="469" type="line"/>
      <point x="394" y="286" type="line"/>
      <point x="394" y="174" type="line"/>
    </contour>
  </outline>
</glyph>
<glyph name="at" format="1">
  <advance width="707"/>
  <unicode hex="0040"/>
  <outline>
    <contour>
      <point x="364" y="617" type="curve" smooth="yes"/>
      <point x="549" y="617"/>
      <point x="686" y="521"/>
      <point x="686" y="284" type="curve" smooth="yes"/>
      <point x="686" y="83"/>
      <point x="583" y="19"/>
      <point x="510" y="19" type="curve" smooth="yes"/>
      <point x="452" y="19"/>
      <point x="431" y="42"/>
      <point x="418" y="75" type="curve"/>
      <point x="414" y="75" type="line"/>
      <point x="390" y="41"/>
      <point x="363" y="19"/>
      <point x="308" y="19" type="curve" smooth="yes"/>
      <point x="268" y="19"/>
      <point x="202" y="41"/>
      <point x="202" y="138" type="curve" smooth="yes"/>
      <point x="202" y="252"/>
      <point x="288" y="286"/>
      <point x="411" y="286" type="curve"/>
      <point x="411" y="330" type="line" smooth="yes"/>
      <point x="411" y="359"/>
      <point x="404" y="382"/>
      <point x="367" y="382" type="curve" smooth="yes"/>
      <point x="327" y="382"/>
      <point x="316" y="358"/>
      <point x="316" y="338" type="curve" smooth="yes"/>
      <point x="316" y="326" type="line"/>
      <point x="223" y="326" type="line"/>
      <point x="222" y="331"/>
      <point x="222" y="336"/>
      <point x="222" y="344" type="curve" smooth="yes"/>
      <point x="222" y="414"/>
      <point x="278" y="461"/>
      <point x="364" y="461" type="curve" smooth="yes"/>
      <point x="462" y="461"/>
      <point x="508" y="415"/>
      <point x="508" y="336" type="curve" smooth="yes"/>
      <point x="508" y="134" type="line" smooth="yes"/>
      <point x="508" y="110"/>
      <point x="518" y="101"/>
      <point x="535" y="101" type="curve" smooth="yes"/>
      <point x="575" y="101"/>
      <point x="621" y="146"/>
      <point x="621" y="285" type="curve" smooth="yes"/>
      <point x="621" y="476"/>
      <point x="515" y="556"/>
      <point x="363" y="556" type="curve" smooth="yes"/>
      <point x="193" y="556"/>
      <point x="87" y="450"/>
      <point x="87" y="231" type="curve" smooth="yes"/>
      <point x="87" y="28"/>
      <point x="165" y="-74"/>
      <point x="336" y="-74" type="curve" smooth="yes"/>
      <point x="376" y="-74"/>
      <point x="446" y="-62"/>
      <point x="477" y="-46" type="curve"/>
      <point x="477" y="-111" type="line"/>
      <point x="441" y="-126"/>
      <point x="373" y="-135"/>
      <point x="336" y="-135" type="curve" smooth="yes"/>
      <point x="142" y="-135"/>
      <point x="22" y="-24"/>
      <point x="22" y="232" type="curve" smooth="yes"/>
      <point x="22" y="514"/>
      <point x="179" y="617"/>
    </contour>
    <contour>
      <point x="411" y="192" type="curve" smooth="yes"/>
      <point x="411" y="216" type="line"/>
      <point x="354" y="216"/>
      <point x="301" y="202"/>
      <point x="301" y="147" type="curve" smooth="yes"/>
      <point x="301" y="118"/>
      <point x="315" y="100"/>
      <point x="347" y="100" type="curve" smooth="yes"/>
      <point x="393" y="100"/>
      <point x="411" y="142"/>
    </contour>
  </outline>
</glyph>
<glyph name="G" format="1">
  <advance width="564"/>
  <unicode hex="0047"/>
  <outline>
    <contour>
      <point x="282" y="0" type="move" name="Anchor-1"/>
    </contour>
    <contour>
      <point x="282" y="606" type="move" name="Anchor-0"/>
    </contour>
    <contour>
      <point x="267" y="330" type="line"/>
      <point x="519" y="330" type="line"/>
      <point x="519" y="0" type="line"/>
      <point x="446" y="0" type="line"/>
      <point x="426" y="67" type="line"/>
      <point x="387" y="16"/>
      <point x="328" y="-11"/>
      <point x="264" y="-11" type="curve" smooth="yes"/>
      <point x="116" y="-11"/>
      <point x="30" y="88"/>
      <point x="30" y="303" type="curve" smooth="yes"/>
      <point x="30" y="517"/>
      <point x="124" y="617"/>
      <point x="287" y="617" type="curve" smooth="yes"/>
      <point x="409" y="617"/>
      <point x="519" y="539"/>
      <point x="519" y="394" type="curve"/>
      <point x="403" y="394" type="line"/>
      <point x="403" y="476"/>
      <point x="349" y="520"/>
      <point x="284" y="520" type="curve" smooth="yes"/>
      <point x="189" y="520"/>
      <point x="147" y="446"/>
      <point x="147" y="325" type="curve" smooth="yes"/>
      <point x="147" y="281" type="line" smooth="yes"/>
      <point x="147" y="157"/>
      <point x="190" y="87"/>
      <point x="285" y="87" type="curve" smooth="yes"/>
      <point x="354" y="87"/>
      <point x="403" y="143"/>
      <point x="403" y="232" type="curve"/>
      <point x="267" y="232" type="line"/>
    </contour>
  </outline>
</glyph>
<glyph name="H" format="1">
  <advance width="523"/>
  <unicode hex="0048"/>
  <outline>
    <contour>
      <point x="0" y="0" type="move" name="Anchor-1"/>
    </contour>
    <contour>
      <point x="262" y="606" type="move" name="Anchor-0"/>
    </contour>
    <contour>
      <point x="357" y="0" type="line"/>
      <point x="357" y="260" type="line"/>
      <point x="166" y="260" type="line"/>
      <point x="166" y="0" type="line"/>
      <point x="53" y="0" type="line"/>
      <point x="53" y="606" type="line"/>
      <point x="166" y="606" type="line"/>
      <point x="166" y="361" type="line"/>
      <point x="357" y="361" type="line"/>
      <point x="357" y="606" type="line"/>
      <point x="470" y="606" type="line"/>
      <point x="470" y="0" type="line"/>
    </contour>
  </outline>
</glyph>
<glyph name="I" format="1">
  <advance width="202"/>
  <unicode hex="0049"/>
  <outline>
    <contour>
      <point x="0" y="0" type="move" name="Anchor-1"/>
    </contour>
    <contour>
      <point x="101" y="606" type="move" name="Anchor-0"/>
    </contour>
    <contour>
      <point x="44" y="606" type="line"/>
      <point x="157" y="606" type="line"/>
      <point x="157" y="0" type="line"/>
      <point x="44" y="0" type="line"/>
    </contour>
  </outline>
</glyph>
<glyph name="J" format="1">
  <advance width="403"/>
  <unicode hex="004A"/>
  <outline>
    <contour>
      <point x="0" y="0" type="move" name="Anchor-1"/>
    </contour>
    <contour>
      <point x="202" y="606" type="move" name="Anchor-0"/>
    </contour>
    <contour>
      <point x="350" y="606" type="line"/>
      <point x="350" y="144" type="line" smooth="yes"/>
      <point x="350" y="43"/>
      <point x="289" y="-11"/>
      <point x="179" y="-11" type="curve" smooth="yes"/>
      <point x="70" y="-11"/>
      <point x="8" y="43"/>
      <point x="8" y="144" type="curve" smooth="yes"/>
      <point x="8" y="191" type="line"/>
      <point x="120" y="191" type="line"/>
      <point x="120" y="153" type="line" smooth="yes"/>
      <point x="120" y="110"/>
      <point x="141" y="87"/>
      <point x="179" y="87" type="curve" smooth="yes"/>
      <point x="217" y="87"/>
      <point x="237" y="110"/>
      <point x="237" y="153" type="curve" smooth="yes"/>
      <point x="237" y="606" type="line"/>
    </contour>
  </outline>
</glyph>
<glyph name="L" format="1">
  <advance width="443"/>
  <unicode hex="004C"/>
  <outline>
    <contour>
      <point x="222" y="0" type="move" name="Anchor-1"/>
    </contour>
    <contour>
      <point x="222" y="606" type="move" name="Anchor-0"/>
    </contour>
    <contour>
      <point x="423" y="106" type="line"/>
      <point x="423" y="0" type="line"/>
      <point x="53" y="0" type="line"/>
      <point x="53" y="606" type="line"/>
      <point x="166" y="606" type="line"/>
      <point x="166" y="106" type="line"/>
    </contour>
  </outline>
</glyph>
<glyph name="N" format="1">
  <advance width="523"/>
  <unicode hex="004E"/>
  <outline>
    <contour>
      <point x="262" y="0" type="move" name="Anchor-1"/>
    </contour>
    <contour>
      <point x="262" y="606" type="move" name="Anchor-0"/>
    </contour>
    <contour>
      <point x="370" y="0" type="line"/>
      <point x="182" y="334" type="line" smooth="yes"/>
      <point x="175" y="347"/>
      <point x="155" y="391"/>
      <point x="155" y="391" type="curve"/>
      <point x="151" y="388" type="line"/>
      <point x="151" y="388"/>
      <point x="153" y="354"/>
      <point x="153" y="338" type="curve" smooth="yes"/>
      <point x="153" y="0" type="line"/>
      <point x="53" y="0" type="line"/>
      <point x="53" y="606" type="line"/>
      <point x="153" y="606" type="line"/>
      <point x="340" y="272" type="line" smooth="yes"/>
      <point x="350" y="257"/>
      <point x="368" y="216"/>
      <point x="368" y="216" type="curve"/>
      <point x="370" y="218" type="line"/>
      <point x="370" y="269" type="line"/>
      <point x="370" y="606" type="line"/>
      <point x="470" y="606" type="line"/>
      <point x="470" y="0" type="line"/>
    </contour>
  </outline>
</glyph>
<glyph name="P" format="1">
  <advance width="484"/>
  <unicode hex="0050"/>
  <outline>
    <contour>
      <point x="53" y="0" type="line"/>
      <point x="53" y="606" type="line"/>
      <point x="270" y="606" type="line" smooth="yes"/>
      <point x="395" y="606"/>
      <point x="460" y="530"/>
      <point x="460" y="424" type="curve" smooth="yes"/>
      <point x="460" y="310"/>
      <point x="384" y="235"/>
      <point x="270" y="235" type="curve" smooth="yes"/>
      <point x="166" y="235" type="line"/>
      <point x="166" y="0" type="line"/>
    </contour>
    <contour>
      <point x="166" y="335" type="line"/>
      <point x="258" y="335" type="line" smooth="yes"/>
      <point x="313" y="335"/>
      <point x="343" y="369"/>
      <point x="343" y="424" type="curve" smooth="yes"/>
      <point x="343" y="474"/>
      <point x="312" y="506"/>
      <point x="258" y="506" type="curve" smooth="yes"/>
      <point x="166" y="506" type="line"/>
    </contour>
  </outline>
</glyph>
<glyph name="V" format="1">
  <advance width="484"/>
  <unicode hex="0056"/>
  <outline>
    <contour>
      <point x="0" y="606" type="line"/>
      <point x="117" y="606" type="line"/>
      <point x="244" y="172" type="line"/>
      <point x="248" y="172" type="line"/>
      <point x="373" y="606" type="line"/>
      <point x="484" y="606" type="line"/>
      <point x="299" y="0" type="line"/>
      <point x="185" y="0" type="line"/>
    </contour>
  </outline>
</glyph>
<glyph name="W" format="1">
  <advance width="684"/>
  <unicode hex="0057"/>
  <outline>
    <contour>
      <point x="0" y="0" type="move" name="Anchor-1"/>
    </contour>
    <contour>
      <point x="342" y="606" type="move" name="Anchor-0"/>
    </contour>
    <contour>
      <point x="438" y="0" type="line"/>
      <point x="355" y="386" type="line" smooth="yes"/>
      <point x="348" y="417"/>
      <point x="343" y="472"/>
      <point x="343" y="472" type="curve"/>
      <point x="339" y="472" type="line"/>
      <point x="339" y="472"/>
      <point x="332" y="412"/>
      <point x="327" y="386" type="curve" smooth="yes"/>
      <point x="246" y="0" type="line"/>
      <point x="132" y="0" type="line"/>
      <point x="0" y="606" type="line"/>
      <point x="112" y="606" type="line"/>
      <point x="185" y="233" type="line" smooth="yes"/>
      <point x="190" y="207"/>
      <point x="196" y="149"/>
      <point x="196" y="149" type="curve"/>
      <point x="200" y="149" type="line"/>
      <point x="200" y="149"/>
      <point x="206" y="208"/>
      <point x="211" y="233" type="curve" smooth="yes"/>
      <point x="285" y="606" type="line"/>
      <point x="413" y="606" type="line"/>
      <point x="485" y="233" type="line" smooth="yes"/>
      <point x="490" y="210"/>
      <point x="497" y="149"/>
      <point x="497" y="149" type="curve"/>
      <point x="500" y="149" type="line"/>
      <point x="500" y="149"/>
      <point x="506" y="203"/>
      <point x="512" y="233" type="curve" smooth="yes"/>
      <point x="586" y="606" type="line"/>
      <point x="683" y="606" type="line"/>
      <point x="552" y="0" type="line"/>
    </contour>
  </outline>
</glyph>
<glyph name="X" format="1">
  <advance width="484"/>
  <unicode hex="0058"/>
  <outline>
    <contour>
      <point x="483" y="0" type="line"/>
      <point x="357" y="0" type="line"/>
      <point x="239" y="229" type="line"/>
      <point x="235" y="229" type="line"/>
      <point x="118" y="0" type="line"/>
      <point x="0" y="0" type="line"/>
      <point x="171" y="318" type="line"/>
      <point x="16" y="606" type="line"/>
      <point x="142" y="606" type="line"/>
      <point x="244" y="408" type="line"/>
      <point x="248" y="408" type="line"/>
      <point x="349" y="606" type="line"/>
      <point x="467" y="606" type="line"/>
      <point x="310" y="320" type="line"/>
    </contour>
  </outline>
</glyph>
<glyph name="bracketleft" format="1">
  <advance width="241"/>
  <unicode hex="005B"/>
  <outline>
    <contour>
      <point x="146" y="-58" type="line"/>
      <point x="219" y="-58" type="line"/>
      <point x="219" y="-142" type="line"/>
      <point x="43" y="-142" type="line"/>
      <point x="43" y="650" type="line"/>
      <point x="219" y="650" type="line"/>
      <point x="219" y="566" type="line"/>
      <point x="146" y="566" type="line"/>
    </contour>
  </outline>
</glyph>
<glyph name="b" format="1">
  <advance width="443"/>
  <unicode hex="0062"/>
  <outline>
    <contour>
      <point x="155" y="417" type="line"/>
      <point x="159" y="417" type="line"/>
      <point x="176" y="454"/>
      <point x="216" y="476"/>
      <point x="263" y="476" type="curve" smooth="yes"/>
      <point x="345" y="476"/>
      <point x="407" y="402"/>
      <point x="407" y="233" type="curve" smooth="yes"/>
      <point x="407" y="65"/>
      <point x="349" y="-11"/>
      <point x="257" y="-11" type="curve" smooth="yes"/>
      <point x="213" y="-11"/>
      <point x="175" y="12"/>
      <point x="152" y="57" type="curve"/>
      <point x="148" y="57" type="line"/>
      <point x="137" y="0" type="line"/>
      <point x="49" y="0" type="line"/>
      <point x="49" y="639" type="line"/>
      <point x="155" y="639" type="line"/>
    </contour>
    <contour>
      <point x="225" y="379" type="curve" smooth="yes"/>
      <point x="174" y="379"/>
      <point x="155" y="331"/>
      <point x="155" y="248" type="curve" smooth="yes"/>
      <point x="155" y="216" type="line" smooth="yes"/>
      <point x="155" y="132"/>
      <point x="174" y="86"/>
      <point x="225" y="86" type="curve" smooth="yes"/>
      <point x="277" y="86"/>
      <point x="296" y="132"/>
      <point x="296" y="216" type="curve" smooth="yes"/>
      <point x="296" y="249" type="line" smooth="yes"/>
      <point x="296" y="333"/>
      <point x="277" y="379"/>
    </contour>
  </outline>
</glyph>
<glyph name="j" format="1">
  <advance width="202"/>
  <unicode hex="006A"/>
  <outline>
    <contour>
      <point x="48" y="639" type="line"/>
      <point x="154" y="639" type="line"/>
      <point x="154" y="543" type="line"/>
      <point x="48" y="543" type="line"/>
    </contour>
    <contour>
      <point x="154" y="465" type="line"/>
      <point x="154" y="-36" type="line" smooth="yes"/>
      <point x="154" y="-98"/>
      <point x="131" y="-161"/>
      <point x="46" y="-161" type="curve" smooth="yes"/>
      <point x="19" y="-161"/>
      <point x="-14" y="-156"/>
      <point x="-33" y="-150" type="curve"/>
      <point x="-33" y="-72" type="line"/>
      <point x="6" y="-72" type="line" smooth="yes"/>
      <point x="34" y="-72"/>
      <point x="48" y="-57"/>
      <point x="48" y="-29" type="curve" smooth="yes"/>
      <point x="48" y="465" type="line"/>
    </contour>
  </outline>
</glyph>
<glyph name="m" format="1">
  <advance width="644"/>
  <unicode hex="006D"/>
  <outline>
    <contour>
      <point x="484" y="476" type="curve" smooth="yes"/>
      <point x="550" y="476"/>
      <point x="598" y="438"/>
      <point x="598" y="326" type="curve" smooth="yes"/>
      <point x="598" y="0" type="line"/>
      <point x="492" y="0" type="line"/>
      <point x="492" y="297" type="line" smooth="yes"/>
      <point x="492" y="357"/>
      <point x="476" y="379"/>
      <point x="440" y="379" type="curve" smooth="yes"/>
      <point x="406" y="379"/>
      <point x="376" y="345"/>
      <point x="376" y="293" type="curve" smooth="yes"/>
      <point x="376" y="0" type="line"/>
      <point x="271" y="0" type="line"/>
      <point x="271" y="297" type="line" smooth="yes"/>
      <point x="271" y="357"/>
      <point x="254" y="379"/>
      <point x="218" y="379" type="curve" smooth="yes"/>
      <point x="182" y="379"/>
      <point x="155" y="341"/>
      <point x="155" y="286" type="curve" smooth="yes"/>
      <point x="155" y="0" type="line"/>
      <point x="49" y="0" type="line"/>
      <point x="49" y="465" type="line"/>
      <point x="137" y="465" type="line"/>
      <point x="148" y="408" type="line"/>
      <point x="153" y="408" type="line"/>
      <point x="175" y="444"/>
      <point x="212" y="476"/>
      <point x="263" y="476" type="curve" smooth="yes"/>
      <point x="309" y="476"/>
      <point x="345" y="456"/>
      <point x="363" y="408" type="curve"/>
      <point x="387" y="444"/>
      <point x="428" y="476"/>
    </contour>
  </outline>
</glyph>
<glyph name="n" format="1">
  <advance width="443"/>
  <unicode hex="006E"/>
  <outline>
    <contour>
      <point x="222" y="0" type="move" name="Anchor-1"/>
    </contour>
    <contour>
      <point x="222" y="465" type="move" name="Anchor-0"/>
    </contour>
    <contour>
      <point x="271" y="476" type="curve" smooth="yes"/>
      <point x="342" y="476"/>
      <point x="394" y="436"/>
      <point x="394" y="326" type="curve" smooth="yes"/>
      <point x="394" y="0" type="line"/>
      <point x="288" y="0" type="line"/>
      <point x="288" y="297" type="line" smooth="yes"/>
      <point x="288" y="357"/>
      <point x="265" y="379"/>
      <point x="227" y="379" type="curve" smooth="yes"/>
      <point x="186" y="379"/>
      <point x="155" y="339"/>
      <point x="155" y="286" type="curve" smooth="yes"/>
      <point x="155" y="0" type="line"/>
      <point x="49" y="0" type="line"/>
      <point x="49" y="465" type="line"/>
      <point x="137" y="465" type="line"/>
      <point x="148" y="408" type="line"/>
      <point x="153" y="408" type="line"/>
      <point x="177" y="444"/>
      <point x="215" y="476"/>
    </contour>
  </outline>
</glyph>
<glyph name="p" format="1">
  <advance width="443"/>
  <unicode hex="0070"/>
  <outline>
    <contour>
      <point x="257" y="476" type="curve" smooth="yes"/>
      <point x="349" y="476"/>
      <point x="407" y="400"/>
      <point x="407" y="232" type="curve" smooth="yes"/>
      <point x="407" y="63"/>
      <point x="345" y="-11"/>
      <point x="263" y="-11" type="curve" smooth="yes"/>
      <point x="216" y="-11"/>
      <point x="176" y="11"/>
      <point x="159" y="48" type="curve"/>
      <point x="155" y="48" type="line"/>
      <point x="155" y="-153" type="line"/>
      <point x="49" y="-153" type="line"/>
      <point x="49" y="465" type="line"/>
      <point x="137" y="465" type="line"/>
      <point x="148" y="408" type="line"/>
      <point x="152" y="408" type="line"/>
      <point x="175" y="453"/>
      <point x="213" y="476"/>
    </contour>
    <contour>
      <point x="225" y="379" type="curve" smooth="yes"/>
      <point x="174" y="379"/>
      <point x="155" y="333"/>
      <point x="155" y="249" type="curve" smooth="yes"/>
      <point x="155" y="217" type="line" smooth="yes"/>
      <point x="155" y="133"/>
      <point x="174" y="86"/>
      <point x="225" y="86" type="curve" smooth="yes"/>
      <point x="277" y="86"/>
      <point x="296" y="132"/>
      <point x="296" y="216" type="curve" smooth="yes"/>
      <point x="296" y="249" type="line" smooth="yes"/>
      <point x="296" y="333"/>
      <point x="277" y="379"/>
    </contour>
  </outline>
</glyph>
<glyph name="q" format="1">
  <advance width="443"/>
  <unicode hex="0071"/>
  <outline>
    <contour>
      <point x="186" y="476" type="curve" smooth="yes"/>
      <point x="230" y="476"/>
      <point x="268" y="453"/>
      <point x="291" y="408" type="curve"/>
      <point x="295" y="408" type="line"/>
      <point x="306" y="465" type="line"/>
      <point x="394" y="465" type="line"/>
      <point x="394" y="-153" type="line"/>
      <point x="288" y="-153" type="line"/>
      <point x="288" y="48" type="line"/>
      <point x="284" y="48" type="line"/>
      <point x="267" y="11"/>
      <point x="227" y="-11"/>
      <point x="180" y="-11" type="curve" smooth="yes"/>
      <point x="98" y="-11"/>
      <point x="36" y="63"/>
      <point x="36" y="232" type="curve" smooth="yes"/>
      <point x="36" y="400"/>
      <point x="94" y="476"/>
    </contour>
    <contour>
      <point x="217" y="379" type="curve" smooth="yes"/>
      <point x="166" y="379"/>
      <point x="147" y="333"/>
      <point x="147" y="249" type="curve" smooth="yes"/>
      <point x="147" y="216" type="line" smooth="yes"/>
      <point x="147" y="132"/>
      <point x="166" y="86"/>
      <point x="217" y="86" type="curve" smooth="yes"/>
      <point x="269" y="86"/>
      <point x="288" y="133"/>
      <point x="288" y="217" type="curve" smooth="yes"/>
      <point x="288" y="249" type="line" smooth="yes"/>
      <point x="288" y="333"/>
      <point x="269" y="379"/>
    </contour>
  </outline>
</glyph>
<glyph name="t" format="1">
  <advance width="241"/>
  <unicode hex="0074"/>
  <outline>
    <contour>
      <point x="146" y="0" type="move" name="Anchor-1"/>
    </contour>
    <contour>
      <point x="0" y="0" type="move" name="Anchor-0"/>
    </contour>
    <contour>
      <point x="228" y="376" type="line"/>
      <point x="161" y="376" type="line"/>
      <point x="161" y="117" type="line" smooth="yes"/>
      <point x="161" y="92"/>
      <point x="174" y="79"/>
      <point x="198" y="79" type="curve" smooth="yes"/>
      <point x="228" y="79" type="line"/>
      <point x="228" y="0" type="line"/>
      <point x="213" y="-5"/>
      <point x="185" y="-11"/>
      <point x="164" y="-11" type="curve" smooth="yes"/>
      <point x="80" y="-11"/>
      <point x="55" y="52"/>
      <point x="55" y="114" type="curve" smooth="yes"/>
      <point x="55" y="376" type="line"/>
      <point x="8" y="376" type="line"/>
      <point x="8" y="465" type="line"/>
      <point x="55" y="465" type="line"/>
      <point x="71" y="596" type="line"/>
      <point x="161" y="596" type="line"/>
      <point x="161" y="465" type="line"/>
      <point x="228" y="465" type="line"/>
    </contour>
  </outline>
</glyph>
<glyph name="v" format="1">
  <advance width="403"/>
  <unicode hex="0076"/>
  <outline>
    <contour>
      <point x="148" y="0" type="line"/>
      <point x="4" y="465" type="line"/>
      <point x="115" y="465" type="line"/>
      <point x="175" y="265" type="line" smooth="yes"/>
      <point x="189" y="219"/>
      <point x="194" y="172"/>
      <point x="204" y="126" type="curve"/>
      <point x="208" y="126" type="line"/>
      <point x="217" y="172"/>
      <point x="221" y="219"/>
      <point x="234" y="265" type="curve" smooth="yes"/>
      <point x="293" y="465" type="line"/>
      <point x="400" y="465" type="line"/>
      <point x="255" y="0" type="line"/>
    </contour>
  </outline>
</glyph>
<glyph name="braceleft" format="1">
  <advance width="282"/>
  <unicode hex="007B"/>
  <outline>
    <contour>
      <point x="263" y="650" type="curve"/>
      <point x="263" y="582" type="line"/>
      <point x="232" y="582"/>
      <point x="194" y="573"/>
      <point x="194" y="528" type="curve" smooth="yes"/>
      <point x="194" y="469"/>
      <point x="189" y="414"/>
      <point x="187" y="354" type="curve" smooth="yes"/>
      <point x="186" y="294"/>
      <point x="161" y="259"/>
      <point x="92" y="259" type="curve"/>
      <point x="92" y="250" type="line"/>
      <point x="161" y="250"/>
      <point x="185" y="215"/>
      <point x="187" y="155" type="curve" smooth="yes"/>
      <point x="189" y="95"/>
      <point x="194" y="40"/>
      <point x="194" y="-19" type="curve" smooth="yes"/>
      <point x="194" y="-64"/>
      <point x="232" y="-72"/>
      <point x="263" y="-72" type="curve"/>
      <point x="263" y="-141" type="line"/>
      <point x="172" y="-141"/>
      <point x="89" y="-121"/>
      <point x="89" y="-10" type="curve" smooth="yes"/>
      <point x="89" y="161" type="line" smooth="yes"/>
      <point x="89" y="201"/>
      <point x="53" y="214"/>
      <point x="21" y="214" type="curve"/>
      <point x="21" y="295" type="line"/>
      <point x="53" y="295"/>
      <point x="89" y="309"/>
      <point x="89" y="348" type="curve" smooth="yes"/>
      <point x="89" y="519" type="line" smooth="yes"/>
      <point x="89" y="630"/>
      <point x="172" y="650"/>
    </contour>
  </outline>
</glyph>
<glyph name="braceright" format="1">
  <advance width="282"/>
  <unicode hex="007D"/>
  <outline>
    <contour>
      <point x="19" y="582" type="curve"/>
      <point x="19" y="650" type="line"/>
      <point x="110" y="650"/>
      <point x="193" y="630"/>
      <point x="193" y="519" type="curve" smooth="yes"/>
      <point x="193" y="348" type="line" smooth="yes"/>
      <point x="193" y="309"/>
      <point x="229" y="295"/>
      <point x="261" y="295" type="curve"/>
      <point x="261" y="214" type="line"/>
      <point x="229" y="214"/>
      <point x="193" y="201"/>
      <point x="193" y="161" type="curve" smooth="yes"/>
      <point x="193" y="-10" type="line" smooth="yes"/>
      <point x="193" y="-121"/>
      <point x="110" y="-141"/>
      <point x="19" y="-141" type="curve"/>
      <point x="19" y="-72" type="line"/>
      <point x="50" y="-72"/>
      <point x="88" y="-64"/>
      <point x="88" y="-19" type="curve" smooth="yes"/>
      <point x="88" y="40"/>
      <point x="93" y="95"/>
      <point x="95" y="155" type="curve" smooth="yes"/>
      <point x="97" y="215"/>
      <point x="121" y="250"/>
      <point x="190" y="250" type="curve"/>
      <point x="190" y="259" type="line"/>
      <point x="121" y="259"/>
      <point x="96" y="294"/>
      <point x="95" y="354" type="curve" smooth="yes"/>
      <point x="93" y="414"/>
      <point x="88" y="469"/>
      <point x="88" y="528" type="curve" smooth="yes"/>
      <point x="88" y="573"/>
      <point x="50" y="582"/>
    </contour>
  </outline>
</glyph>
<glyph name="asciitilde" format="1">
  <advance width="423"/>
  <unicode hex="007E"/>
  <outline>
    <contour>
      <point x="400" y="355" type="curve"/>
      <point x="400" y="249" type="line"/>
      <point x="400" y="249"/>
      <point x="363" y="185"/>
      <point x="291" y="185" type="curve" smooth="yes"/>
      <point x="234" y="185"/>
      <point x="191" y="239"/>
      <point x="133" y="239" type="curve" smooth="yes"/>
      <point x="69" y="239"/>
      <point x="24" y="174"/>
      <point x="24" y="174" type="curve"/>
      <point x="24" y="280" type="line"/>
      <point x="24" y="280"/>
      <point x="60" y="345"/>
      <point x="133" y="345" type="curve" smooth="yes"/>
      <point x="189" y="345"/>
      <point x="232" y="291"/>
      <point x="291" y="291" type="curve" smooth="yes"/>
      <point x="354" y="291"/>
      <point x="400" y="355"/>
    </contour>
  </outline>
</glyph>
<glyph name="section" format="1">
  <advance width="403"/>
  <unicode hex="00A7"/>
  <outline>
    <contour>
      <point x="211" y="617" type="curve" smooth="yes"/>
      <point x="300" y="617"/>
      <point x="369" y="570"/>
      <point x="369" y="491" type="curve" smooth="yes"/>
      <point x="369" y="481"/>
      <point x="368" y="471"/>
      <point x="368" y="470" type="curve" smooth="yes"/>
      <point x="260" y="470" type="line"/>
      <point x="260" y="472" type="line" smooth="yes"/>
      <point x="259" y="513"/>
      <point x="239" y="530"/>
      <point x="208" y="530" type="curve" smooth="yes"/>
      <point x="175" y="530"/>
      <point x="153" y="513"/>
      <point x="153" y="484" type="curve" smooth="yes"/>
      <point x="153" y="366"/>
      <point x="381" y="397"/>
      <point x="381" y="219" type="curve" smooth="yes"/>
      <point x="381" y="171"/>
      <point x="361" y="125"/>
      <point x="324" y="93" type="curve"/>
      <point x="350" y="66"/>
      <point x="369" y="32"/>
      <point x="369" y="-19" type="curve" smooth="yes"/>
      <point x="369" y="-114"/>
      <point x="297" y="-161"/>
      <point x="202" y="-161" type="curve" smooth="yes"/>
      <point x="114" y="-161"/>
      <point x="45" y="-114"/>
      <point x="45" y="-34" type="curve" smooth="yes"/>
      <point x="45" y="-25"/>
      <point x="46" y="-15"/>
      <point x="46" y="-14" type="curve" smooth="yes"/>
      <point x="154" y="-14" type="line"/>
      <point x="154" y="-16" type="line" smooth="yes"/>
      <point x="155" y="-57"/>
      <point x="174" y="-74"/>
      <point x="206" y="-74" type="curve" smooth="yes"/>
      <point x="239" y="-74"/>
      <point x="261" y="-57"/>
      <point x="261" y="-28" type="curve" smooth="yes"/>
      <point x="261" y="90"/>
      <point x="33" y="59"/>
      <point x="33" y="237" type="curve" smooth="yes"/>
      <point x="33" y="284"/>
      <point x="53" y="331"/>
      <point x="90" y="363" type="curve"/>
      <point x="64" y="389"/>
      <point x="45" y="423"/>
      <point x="45" y="476" type="curve" smooth="yes"/>
      <point x="45" y="570"/>
      <point x="117" y="617"/>
    </contour>
    <contour>
      <point x="156" y="317" type="curve"/>
      <point x="145" y="303"/>
      <point x="137" y="286"/>
      <point x="137" y="268" type="curve" smooth="yes"/>
      <point x="137" y="197"/>
      <point x="198" y="171"/>
      <point x="257" y="138" type="curve"/>
      <point x="269" y="152"/>
      <point x="277" y="170"/>
      <point x="277" y="188" type="curve" smooth="yes"/>
      <point x="277" y="259"/>
      <point x="215" y="284"/>
    </contour>
  </outline>
</glyph>
<glyph name="dieresis" format="1">
  <advance width="241"/>
  <unicode hex="00A8"/>
  <outline>
    <contour>
      <point x="-1" y="639" type="line"/>
      <point x="88" y="639" type="line"/>
      <point x="88" y="543" type="line"/>
      <point x="-1" y="543" type="line"/>
    </contour>
    <contour>
      <point x="154" y="639" type="line"/>
      <point x="242" y="639" type="line"/>
      <point x="242" y="543" type="line"/>
      <point x="154" y="543" type="line"/>
    </contour>
  </outline>
</glyph>
<glyph name="copyright" format="1">
  <advance width="534"/>
  <unicode hex="00A9"/>
  <outline>
    <contour>
      <point x="267" y="617" type="curve" smooth="yes"/>
      <point x="424" y="617"/>
      <point x="520" y="494"/>
      <point x="520" y="303" type="curve" smooth="yes"/>
      <point x="520" y="112"/>
      <point x="424" y="-11"/>
      <point x="267" y="-11" type="curve" smooth="yes"/>
      <point x="110" y="-11"/>
      <point x="14" y="112"/>
      <point x="14" y="303" type="curve" smooth="yes"/>
      <point x="14" y="494"/>
      <point x="110" y="617"/>
    </contour>
    <contour>
      <point x="267" y="568" type="curve" smooth="yes"/>
      <point x="141" y="568"/>
      <point x="64" y="465"/>
      <point x="64" y="303" type="curve" smooth="yes"/>
      <point x="64" y="141"/>
      <point x="141" y="38"/>
      <point x="267" y="38" type="curve" smooth="yes"/>
      <point x="393" y="38"/>
      <point x="470" y="141"/>
      <point x="470" y="303" type="curve" smooth="yes"/>
      <point x="470" y="465"/>
      <point x="393" y="568"/>
    </contour>
    <contour>
      <point x="269" y="489" type="curve" smooth="yes"/>
      <point x="344" y="489"/>
      <point x="400" y="446"/>
      <point x="400" y="349" type="curve"/>
      <point x="324" y="349" type="line"/>
      <point x="324" y="399"/>
      <point x="301" y="423"/>
      <point x="269" y="423" type="curve" smooth="yes"/>
      <point x="225" y="423"/>
      <point x="204" y="383"/>
      <point x="204" y="316" type="curve" smooth="yes"/>
      <point x="204" y="291" type="line" smooth="yes"/>
      <point x="204" y="225"/>
      <point x="226" y="185"/>
      <point x="271" y="185" type="curve" smooth="yes"/>
      <point x="304" y="185"/>
      <point x="326" y="208"/>
      <point x="326" y="257" type="curve"/>
      <point x="400" y="257" type="line"/>
      <point x="400" y="164"/>
      <point x="345" y="118"/>
      <point x="269" y="118" type="curve" smooth="yes"/>
      <point x="179" y="118"/>
      <point x="126" y="177"/>
      <point x="126" y="303" type="curve" smooth="yes"/>
      <point x="126" y="430"/>
      <point x="179" y="489"/>
    </contour>
  </outline>
</glyph>
<glyph name="guillemotleft" format="1">
  <advance width="403"/>
  <unicode hex="00AB"/>
  <outline>
    <contour>
      <point x="137" y="111" type="line"/>
      <point x="17" y="288" type="line"/>
      <point x="137" y="465" type="line"/>
      <point x="217" y="465" type="line"/>
      <point x="122" y="288" type="line"/>
      <point x="217" y="111" type="line"/>
    </contour>
    <contour>
      <point x="299" y="111" type="line"/>
      <point x="179" y="288" type="line"/>
      <point x="299" y="465" type="line"/>
      <point x="379" y="465" type="line"/>
      <point x="284" y="288" type="line"/>
      <point x="379" y="111" type="line"/>
    </contour>
  </outline>
</glyph>
<glyph name="plusminus" format="1">
  <advance width="485"/>
  <unicode hex="00B1"/>
  <outline>
    <contour>
      <point x="424" y="280" type="line"/>
      <point x="287" y="280" type="line"/>
      <point x="287" y="127" type="line"/>
      <point x="196" y="127" type="line"/>
      <point x="196" y="280" type="line"/>
      <point x="60" y="280" type="line"/>
      <point x="60" y="372" type="line"/>
      <point x="196" y="372" type="line"/>
      <point x="196" y="526" type="line"/>
      <point x="287" y="526" type="line"/>
      <point x="287" y="372" type="line"/>
      <point x="424" y="372" type="line"/>
    </contour>
    <contour>
      <point x="60" y="91" type="line"/>
      <point x="424" y="91" type="line"/>
      <point x="424" y="0" type="line"/>
      <point x="60" y="0" type="line"/>
    </contour>
  </outline>
</glyph>
<glyph name="twosuperior" format="1">
  <advance width="241"/>
  <unicode hex="00B2"/>
  <outline>
    <contour>
      <point x="123" y="649" type="curve" smooth="yes"/>
      <point x="178" y="649"/>
      <point x="222" y="621"/>
      <point x="222" y="553" type="curve" smooth="yes"/>
      <point x="222" y="484"/>
      <point x="171" y="436"/>
      <point x="128" y="385" type="curve" smooth="yes"/>
      <point x="119" y="372"/>
      <point x="110" y="361"/>
      <point x="102" y="348" type="curve"/>
      <point x="224" y="348" type="line"/>
      <point x="224" y="283" type="line"/>
      <point x="13" y="283" type="line"/>
      <point x="13" y="299" type="line" smooth="yes"/>
      <point x="13" y="355"/>
      <point x="48" y="394"/>
      <point x="80" y="432" type="curve" smooth="yes"/>
      <point x="118" y="474"/>
      <point x="149" y="509"/>
      <point x="149" y="554" type="curve" smooth="yes"/>
      <point x="149" y="569"/>
      <point x="142" y="587"/>
      <point x="120" y="587" type="curve" smooth="yes"/>
      <point x="99" y="587"/>
      <point x="89" y="565"/>
      <point x="89" y="538" type="curve" smooth="yes"/>
      <point x="89" y="514" type="line"/>
      <point x="19" y="514" type="line"/>
      <point x="19" y="514"/>
      <point x="17" y="525"/>
      <point x="17" y="537" type="curve" smooth="yes"/>
      <point x="17" y="617"/>
      <point x="66" y="649"/>
    </contour>
  </outline>
</glyph>
<glyph name="threesuperior" format="1">
  <advance width="241"/>
  <unicode hex="00B3"/>
  <outline>
    <contour>
      <point x="119" y="649" type="curve" smooth="yes"/>
      <point x="179" y="649"/>
      <point x="221" y="613"/>
      <point x="221" y="548" type="curve" smooth="yes"/>
      <point x="221" y="508"/>
      <point x="202" y="486"/>
      <point x="176" y="469" type="curve"/>
      <point x="204" y="454"/>
      <point x="226" y="425"/>
      <point x="226" y="381" type="curve" smooth="yes"/>
      <point x="226" y="316"/>
      <point x="183" y="276"/>
      <point x="121" y="276" type="curve" smooth="yes"/>
      <point x="51" y="276"/>
      <point x="12" y="319"/>
      <point x="12" y="386" type="curve" smooth="yes"/>
      <point x="12" y="400" type="line"/>
      <point x="85" y="400" type="line"/>
      <point x="85" y="385" type="line" smooth="yes"/>
      <point x="85" y="354"/>
      <point x="96" y="337"/>
      <point x="120" y="337" type="curve" smooth="yes"/>
      <point x="140" y="337"/>
      <point x="154" y="351"/>
      <point x="154" y="385" type="curve" smooth="yes"/>
      <point x="154" y="425"/>
      <point x="135" y="436"/>
      <point x="117" y="436" type="curve" smooth="yes"/>
      <point x="95" y="436" type="line"/>
      <point x="95" y="495" type="line"/>
      <point x="118" y="495" type="line" smooth="yes"/>
      <point x="133" y="495"/>
      <point x="148" y="512"/>
      <point x="148" y="545" type="curve" smooth="yes"/>
      <point x="148" y="575"/>
      <point x="137" y="588"/>
      <point x="120" y="588" type="curve" smooth="yes"/>
      <point x="102" y="588"/>
      <point x="91" y="574"/>
      <point x="91" y="544" type="curve" smooth="yes"/>
      <point x="91" y="530" type="line"/>
      <point x="19" y="530" type="line"/>
      <point x="19" y="548" type="line" smooth="yes"/>
      <point x="19" y="609"/>
      <point x="60" y="649"/>
    </contour>
  </outline>
</glyph>
<glyph name="cedilla" format="1">
  <advance width="241"/>
  <unicode hex="00B8"/>
  <outline>
    <contour>
      <point x="137" y="10" type="line"/>
      <point x="133" y="-29" type="line"/>
      <point x="171" y="-32"/>
      <point x="202" y="-49"/>
      <point x="202" y="-89" type="curve" smooth="yes"/>
      <point x="202" y="-149"/>
      <point x="144" y="-161"/>
      <point x="106" y="-161" type="curve" smooth="yes"/>
      <point x="81" y="-161"/>
      <point x="53" y="-158"/>
      <point x="32" y="-154" type="curve"/>
      <point x="32" y="-111" type="line"/>
      <point x="95" y="-111" type="line" smooth="yes"/>
      <point x="114" y="-111"/>
      <point x="126" y="-106"/>
      <point x="126" y="-89" type="curve" smooth="yes"/>
      <point x="126" y="-75"/>
      <point x="119" y="-68"/>
      <point x="96" y="-68" type="curve" smooth="yes"/>
      <point x="67" y="-68" type="line"/>
      <point x="77" y="10" type="line"/>
    </contour>
  </outline>
</glyph>
<glyph name="threequarters" format="1">
  <advance width="605"/>
  <unicode hex="00BE"/>
  <outline>
    <contour>
      <point x="133" y="617" type="curve" smooth="yes"/>
      <point x="193" y="617"/>
      <point x="234" y="582"/>
      <point x="234" y="516" type="curve" smooth="yes"/>
      <point x="234" y="476"/>
      <point x="216" y="454"/>
      <point x="189" y="437" type="curve"/>
      <point x="217" y="423"/>
      <point x="240" y="393"/>
      <point x="240" y="349" type="curve" smooth="yes"/>
      <point x="240" y="284"/>
      <point x="196" y="244"/>
      <point x="134" y="244" type="curve" smooth="yes"/>
      <point x="65" y="244"/>
      <point x="26" y="287"/>
      <point x="26" y="354" type="curve" smooth="yes"/>
      <point x="26" y="368" type="line"/>
      <point x="98" y="368" type="line"/>
      <point x="98" y="353" type="line" smooth="yes"/>
      <point x="98" y="322"/>
      <point x="110" y="305"/>
      <point x="133" y="305" type="curve" smooth="yes"/>
      <point x="153" y="305"/>
      <point x="167" y="319"/>
      <point x="167" y="353" type="curve" smooth="yes"/>
      <point x="167" y="393"/>
      <point x="149" y="404"/>
      <point x="130" y="404" type="curve" smooth="yes"/>
      <point x="108" y="404" type="line"/>
      <point x="108" y="463" type="line"/>
      <point x="131" y="463" type="line" smooth="yes"/>
      <point x="147" y="463"/>
      <point x="161" y="480"/>
      <point x="161" y="514" type="curve" smooth="yes"/>
      <point x="161" y="544"/>
      <point x="150" y="556"/>
      <point x="133" y="556" type="curve" smooth="yes"/>
      <point x="115" y="556"/>
      <point x="104" y="542"/>
      <point x="104" y="512" type="curve" smooth="yes"/>
      <point x="104" y="498" type="line"/>
      <point x="32" y="498" type="line"/>
      <point x="32" y="516" type="line" smooth="yes"/>
      <point x="32" y="577"/>
      <point x="73" y="617"/>
    </contour>
    <contour>
      <point x="461" y="617" type="line"/>
      <point x="520" y="617" type="line"/>
      <point x="171" y="-11" type="line"/>
      <point x="111" y="-11" type="line"/>
    </contour>
    <contour>
      <point x="438" y="366" type="curve"/>
      <point x="508" y="366" type="line"/>
      <point x="489" y="276"/>
      <point x="438" y="174"/>
      <point x="415" y="140" type="curve"/>
      <point x="475" y="140" type="line"/>
      <point x="475" y="172" type="line"/>
      <point x="489" y="199"/>
      <point x="513" y="259"/>
      <point x="521" y="288" type="curve"/>
      <point x="545" y="288" type="line"/>
      <point x="545" y="140" type="line"/>
      <point x="582" y="140" type="line"/>
      <point x="582" y="79" type="line"/>
      <point x="545" y="79" type="line"/>
      <point x="545" y="0" type="line"/>
      <point x="475" y="0" type="line"/>
      <point x="475" y="79" type="line"/>
      <point x="348" y="79" type="line"/>
      <point x="348" y="133" type="line"/>
      <point x="385" y="197"/>
      <point x="416" y="286"/>
    </contour>
  </outline>
</glyph>
<glyph name="questiondown" format="1">
  <advance width="443"/>
  <unicode hex="00BF"/>
  <outline>
    <contour>
      <point x="147" y="465" type="line"/>
      <point x="269" y="465" type="line"/>
      <point x="269" y="344" type="line"/>
      <point x="147" y="344" type="line"/>
    </contour>
    <contour>
      <point x="264" y="291" type="line"/>
      <point x="264" y="253" type="line" smooth="yes"/>
      <point x="264" y="147"/>
      <point x="158" y="129"/>
      <point x="158" y="15" type="curve" smooth="yes"/>
      <point x="158" y="-3"/>
      <point x="165" y="-57"/>
      <point x="220" y="-57" type="curve" smooth="yes"/>
      <point x="279" y="-57"/>
      <point x="288" y="3"/>
      <point x="288" y="35" type="curve" smooth="yes"/>
      <point x="288" y="50"/>
      <point x="287" y="59"/>
      <point x="287" y="59" type="curve"/>
      <point x="399" y="59" type="line"/>
      <point x="399" y="59"/>
      <point x="401" y="39"/>
      <point x="401" y="28" type="curve" smooth="yes"/>
      <point x="401" y="-71"/>
      <point x="339" y="-152"/>
      <point x="213" y="-152" type="curve" smooth="yes"/>
      <point x="108" y="-152"/>
      <point x="42" y="-88"/>
      <point x="42" y="5" type="curve" smooth="yes"/>
      <point x="42" y="162"/>
      <point x="153" y="163"/>
      <point x="153" y="266" type="curve" smooth="yes"/>
      <point x="153" y="291" type="line"/>
    </contour>
  </outline>
</glyph>
<glyph name="Acircumflex" format="1">
  <advance width="523"/>
  <unicode hex="00C2"/>
  <outline>
    <contour>
      <point x="301" y="661" type="line"/>
      <point x="262" y="722" type="line"/>
      <point x="222" y="661" type="line"/>
      <point x="143" y="661" type="line"/>
      <point x="219" y="781" type="line"/>
      <point x="306" y="781" type="line"/>
      <point x="381" y="661" type="line"/>
    </contour>
    <contour>
      <point x="407" y="0" type="line"/>
      <point x="370" y="119" type="line"/>
      <point x="146" y="119" type="line"/>
      <point x="110" y="0" type="line"/>
      <point x="0" y="0" type="line"/>
      <point x="195" y="606" type="line"/>
      <point x="327" y="606" type="line"/>
      <point x="522" y="0" type="line"/>
    </contour>
    <contour>
      <point x="260" y="505" type="curve"/>
      <point x="256" y="505" type="line"/>
      <point x="256" y="505"/>
      <point x="248" y="451"/>
      <point x="239" y="423" type="curve" smooth="yes"/>
      <point x="177" y="220" type="line"/>
      <point x="339" y="220" type="line"/>
      <point x="278" y="423" type="line" smooth="yes"/>
      <point x="268" y="454"/>
      <point x="260" y="505"/>
    </contour>
  </outline>
</glyph>
<glyph name="Atilde" format="1">
  <advance width="523"/>
  <unicode hex="00C3"/>
  <outline>
    <contour>
      <point x="352" y="781" type="curve"/>
      <point x="410" y="781" type="line"/>
      <point x="410" y="732"/>
      <point x="385" y="673"/>
      <point x="323" y="673" type="curve" smooth="yes"/>
      <point x="280" y="673"/>
      <point x="246" y="705"/>
      <point x="206" y="705" type="curve" smooth="yes"/>
      <point x="187" y="705"/>
      <point x="175" y="697"/>
      <point x="171" y="673" type="curve"/>
      <point x="113" y="673" type="line"/>
      <point x="113" y="721"/>
      <point x="138" y="781"/>
      <point x="200" y="781" type="curve" smooth="yes"/>
      <point x="243" y="781"/>
      <point x="278" y="748"/>
      <point x="317" y="748" type="curve" smooth="yes"/>
      <point x="336" y="748"/>
      <point x="348" y="756"/>
    </contour>
    <contour>
      <point x="407" y="0" type="line"/>
      <point x="370" y="119" type="line"/>
      <point x="146" y="119" type="line"/>
      <point x="110" y="0" type="line"/>
      <point x="0" y="0" type="line"/>
      <point x="195" y="606" type="line"/>
      <point x="327" y="606" type="line"/>
      <point x="522" y="0" type="line"/>
    </contour>
    <contour>
      <point x="260" y="505" type="curve"/>
      <point x="256" y="505" type="line"/>
      <point x="256" y="505"/>
      <point x="248" y="451"/>
      <point x="239" y="423" type="curve" smooth="yes"/>
      <point x="177" y="220" type="line"/>
      <point x="339" y="220" type="line"/>
      <point x="278" y="423" type="line" smooth="yes"/>
      <point x="268" y="454"/>
      <point x="260" y="505"/>
    </contour>
  </outline>
</glyph>
<glyph name="Egrave" format="1">
  <advance width="484"/>
  <unicode hex="00C8"/>
  <outline>
    <contour>
      <point x="215" y="664" type="line"/>
      <point x="119" y="778" type="line"/>
      <point x="120" y="781" type="line"/>
      <point x="226" y="781" type="line"/>
      <point x="302" y="664" type="line"/>
    </contour>
    <contour>
      <point x="166" y="506" type="line"/>
      <point x="166" y="361" type="line"/>
      <point x="400" y="361" type="line"/>
      <point x="400" y="260" type="line"/>
      <point x="166" y="260" type="line"/>
      <point x="166" y="101" type="line"/>
      <point x="445" y="101" type="line"/>
      <point x="445" y="0" type="line"/>
      <point x="53" y="0" type="line"/>
      <point x="53" y="606" type="line"/>
      <point x="439" y="606" type="line"/>
      <point x="439" y="506" type="line"/>
    </contour>
  </outline>
</glyph>
<glyph name="Igrave" format="1">
  <advance width="202"/>
  <unicode hex="00CC"/>
  <outline>
    <contour>
      <point x="74" y="664" type="line"/>
      <point x="-21" y="778" type="line"/>
      <point x="-20" y="781" type="line"/>
      <point x="86" y="781" type="line"/>
      <point x="162" y="664" type="line"/>
    </contour>
    <contour>
      <point x="44" y="0" type="line"/>
      <point x="44" y="606" type="line"/>
      <point x="157" y="606" type="line"/>
      <point x="157" y="0" type="line"/>
    </contour>
  </outline>
</glyph>
<glyph name="multiply" format="1">
  <advance width="423"/>
  <unicode hex="00D7"/>
  <outline>
    <contour>
      <point x="281" y="226" type="line"/>
      <point x="410" y="98" type="line"/>
      <point x="347" y="34" type="line"/>
      <point x="217" y="164" type="line"/>
      <point x="89" y="34" type="line"/>
      <point x="26" y="98" type="line"/>
      <point x="155" y="226" type="line"/>
      <point x="26" y="355" type="line"/>
      <point x="89" y="419" type="line"/>
      <point x="217" y="290" type="line"/>
      <point x="347" y="419" type="line"/>
      <point x="410" y="355" type="line"/>
    </contour>
  </outline>
</glyph>
<glyph name="Thorn" format="1">
  <advance width="484"/>
  <unicode hex="00DE"/>
  <outline>
    <contour>
      <point x="166" y="499" type="line"/>
      <point x="270" y="499" type="line" smooth="yes"/>
      <point x="395" y="499"/>
      <point x="460" y="422"/>
      <point x="460" y="316" type="curve" smooth="yes"/>
      <point x="460" y="202"/>
      <point x="384" y="127"/>
      <point x="270" y="127" type="curve" smooth="yes"/>
      <point x="166" y="127" type="line"/>
      <point x="166" y="0" type="line"/>
      <point x="53" y="0" type="line"/>
      <point x="53" y="606" type="line"/>
      <point x="166" y="606" type="line"/>
    </contour>
    <contour>
      <point x="166" y="227" type="line"/>
      <point x="258" y="227" type="line" smooth="yes"/>
      <point x="313" y="227"/>
      <point x="343" y="261"/>
      <point x="343" y="316" type="curve" smooth="yes"/>
      <point x="343" y="366"/>
      <point x="312" y="398"/>
      <point x="258" y="398" type="curve" smooth="yes"/>
      <point x="166" y="398" type="line"/>
    </contour>
  </outline>
</glyph>
<glyph name="germandbls" format="1">
  <advance width="443"/>
  <unicode hex="00DF"/>
  <outline>
    <contour>
      <point x="225" y="650" type="curve" smooth="yes"/>
      <point x="325" y="650"/>
      <point x="400" y="588"/>
      <point x="400" y="484" type="curve" smooth="yes"/>
      <point x="400" y="426"/>
      <point x="365" y="369"/>
      <point x="316" y="349" type="curve"/>
      <point x="316" y="346" type="line"/>
      <point x="376" y="324"/>
      <point x="418" y="257"/>
      <point x="418" y="189" type="curve" smooth="yes"/>
      <point x="418" y="75"/>
      <point x="340" y="0"/>
      <point x="241" y="0" type="curve" smooth="yes"/>
      <point x="184" y="0" type="line"/>
      <point x="184" y="90" type="line"/>
      <point x="230" y="90" type="line" smooth="yes"/>
      <point x="275" y="90"/>
      <point x="311" y="136"/>
      <point x="311" y="190" type="curve" smooth="yes"/>
      <point x="311" y="243"/>
      <point x="275" y="286"/>
      <point x="230" y="286" type="curve" smooth="yes"/>
      <point x="184" y="286" type="line"/>
      <point x="184" y="386" type="line"/>
      <point x="227" y="386" type="line" smooth="yes"/>
      <point x="263" y="386"/>
      <point x="293" y="430"/>
      <point x="293" y="482" type="curve" smooth="yes"/>
      <point x="293" y="528"/>
      <point x="268" y="560"/>
      <point x="220" y="560" type="curve" smooth="yes"/>
      <point x="173" y="560"/>
      <point x="141" y="527"/>
      <point x="141" y="467" type="curve" smooth="yes"/>
      <point x="141" y="0" type="line"/>
      <point x="35" y="0" type="line"/>
      <point x="35" y="460" type="line" smooth="yes"/>
      <point x="35" y="595"/>
      <point x="118" y="650"/>
    </contour>
  </outline>
</glyph>
<glyph name="acircumflex" format="1">
  <advance width="403"/>
  <unicode hex="00E2"/>
  <outline>
    <contour>
      <point x="192" y="581" type="line"/>
      <point x="152" y="520" type="line"/>
      <point x="73" y="520" type="line"/>
      <point x="149" y="639" type="line"/>
      <point x="236" y="639" type="line"/>
      <point x="311" y="520" type="line"/>
      <point x="232" y="520" type="line"/>
    </contour>
    <contour>
      <point x="192" y="476" type="curve" smooth="yes"/>
      <point x="300" y="476"/>
      <point x="350" y="425"/>
      <point x="350" y="339" type="curve" smooth="yes"/>
      <point x="350" y="110" type="line" smooth="yes"/>
      <point x="350" y="88"/>
      <point x="362" y="79"/>
      <point x="375" y="79" type="curve" smooth="yes"/>
      <point x="396" y="79" type="line"/>
      <point x="396" y="4" type="line"/>
      <point x="385" y="-3"/>
      <point x="365" y="-11"/>
      <point x="333" y="-11" type="curve" smooth="yes"/>
      <point x="291" y="-11"/>
      <point x="262" y="14"/>
      <point x="251" y="50" type="curve"/>
      <point x="247" y="50" type="line"/>
      <point x="220" y="13"/>
      <point x="191" y="-11"/>
      <point x="129" y="-11" type="curve" smooth="yes"/>
      <point x="86" y="-11"/>
      <point x="12" y="12"/>
      <point x="12" y="120" type="curve" smooth="yes"/>
      <point x="12" y="246"/>
      <point x="108" y="283"/>
      <point x="243" y="283" type="curve"/>
      <point x="243" y="331" type="line" smooth="yes"/>
      <point x="243" y="363"/>
      <point x="235" y="389"/>
      <point x="194" y="389" type="curve" smooth="yes"/>
      <point x="151" y="389"/>
      <point x="139" y="362"/>
      <point x="139" y="340" type="curve" smooth="yes"/>
      <point x="139" y="327" type="line"/>
      <point x="35" y="327" type="line"/>
      <point x="34" y="332"/>
      <point x="34" y="339"/>
      <point x="34" y="347" type="curve" smooth="yes"/>
      <point x="34" y="424"/>
      <point x="96" y="476"/>
    </contour>
    <contour>
      <point x="243" y="179" type="curve" smooth="yes"/>
      <point x="243" y="206" type="line"/>
      <point x="181" y="206"/>
      <point x="121" y="190"/>
      <point x="121" y="130" type="curve" smooth="yes"/>
      <point x="121" y="98"/>
      <point x="137" y="78"/>
      <point x="173" y="78" type="curve" smooth="yes"/>
      <point x="224" y="78"/>
      <point x="243" y="125"/>
    </contour>
  </outline>
</glyph>
<glyph name="ae" format="1">
  <advance width="644"/>
  <unicode hex="00E6"/>
  <outline>
    <contour>
      <point x="0" y="0" type="move" name="Anchor-1"/>
    </contour>
    <contour>
      <point x="323" y="465" type="move" name="Anchor-0"/>
    </contour>
    <contour>
      <point x="442" y="476" type="curve" smooth="yes"/>
      <point x="554" y="476"/>
      <point x="610" y="400"/>
      <point x="610" y="232" type="curve" smooth="yes"/>
      <point x="610" y="206" type="line"/>
      <point x="374" y="206" type="line"/>
      <point x="375" y="123"/>
      <point x="393" y="76"/>
      <point x="446" y="76" type="curve" smooth="yes"/>
      <point x="482" y="76"/>
      <point x="505" y="109"/>
      <point x="505" y="164" type="curve"/>
      <point x="610" y="164" type="line"/>
      <point x="610" y="45"/>
      <point x="540" y="-11"/>
      <point x="446" y="-11" type="curve" smooth="yes"/>
      <point x="384" y="-11"/>
      <point x="337" y="10"/>
      <point x="307" y="52" type="curve"/>
      <point x="273" y="15"/>
      <point x="232" y="-11"/>
      <point x="167" y="-11" type="curve" smooth="yes"/>
      <point x="117" y="-11"/>
      <point x="33" y="12"/>
      <point x="33" y="120" type="curve" smooth="yes"/>
      <point x="33" y="246"/>
      <point x="128" y="283"/>
      <point x="263" y="283" type="curve"/>
      <point x="263" y="331" type="line" smooth="yes"/>
      <point x="263" y="363"/>
      <point x="255" y="389"/>
      <point x="215" y="389" type="curve" smooth="yes"/>
      <point x="171" y="389"/>
      <point x="159" y="362"/>
      <point x="159" y="340" type="curve" smooth="yes"/>
      <point x="159" y="327" type="line"/>
      <point x="56" y="327" type="line"/>
      <point x="55" y="332"/>
      <point x="55" y="339"/>
      <point x="55" y="347" type="curve" smooth="yes"/>
      <point x="55" y="424"/>
      <point x="117" y="476"/>
      <point x="212" y="476" type="curve" smooth="yes"/>
      <point x="265" y="476"/>
      <point x="305" y="460"/>
      <point x="331" y="431" type="curve"/>
      <point x="360" y="461"/>
      <point x="397" y="476"/>
    </contour>
    <contour>
      <point x="442" y="389" type="curve" smooth="yes"/>
      <point x="397" y="389"/>
      <point x="378" y="350"/>
      <point x="375" y="283" type="curve"/>
      <point x="499" y="283" type="line"/>
      <point x="499" y="350"/>
      <point x="481" y="389"/>
    </contour>
    <contour>
      <point x="263" y="179" type="curve" smooth="yes"/>
      <point x="263" y="206" type="line"/>
      <point x="202" y="206"/>
      <point x="141" y="190"/>
      <point x="141" y="130" type="curve" smooth="yes"/>
      <point x="141" y="98"/>
      <point x="157" y="78"/>
      <point x="194" y="78" type="curve" smooth="yes"/>
      <point x="244" y="78"/>
      <point x="263" y="125"/>
    </contour>
  </outline>
</glyph>
<glyph name="ccedilla" format="1">
  <advance width="403"/>
  <unicode hex="00E7"/>
  <outline>
    <contour>
      <point x="209" y="476" type="curve" smooth="yes"/>
      <point x="308" y="476"/>
      <point x="371" y="420"/>
      <point x="371" y="290" type="curve"/>
      <point x="263" y="290" type="line"/>
      <point x="263" y="355"/>
      <point x="245" y="386"/>
      <point x="209" y="386" type="curve" smooth="yes"/>
      <point x="164" y="386"/>
      <point x="147" y="339"/>
      <point x="147" y="249" type="curve" smooth="yes"/>
      <point x="147" y="216" type="line" smooth="yes"/>
      <point x="147" y="126"/>
      <point x="164" y="79"/>
      <point x="212" y="79" type="curve" smooth="yes"/>
      <point x="250" y="79"/>
      <point x="266" y="111"/>
      <point x="266" y="175" type="curve"/>
      <point x="371" y="175" type="line"/>
      <point x="371" y="54"/>
      <point x="317" y="-2"/>
      <point x="232" y="-10" type="curve"/>
      <point x="230" y="-29" type="line"/>
      <point x="268" y="-32"/>
      <point x="300" y="-49"/>
      <point x="300" y="-89" type="curve" smooth="yes"/>
      <point x="300" y="-149"/>
      <point x="241" y="-161"/>
      <point x="203" y="-161" type="curve" smooth="yes"/>
      <point x="179" y="-161"/>
      <point x="150" y="-158"/>
      <point x="129" y="-154" type="curve"/>
      <point x="129" y="-111" type="line"/>
      <point x="192" y="-111" type="line" smooth="yes"/>
      <point x="211" y="-111"/>
      <point x="224" y="-106"/>
      <point x="224" y="-89" type="curve" smooth="yes"/>
      <point x="224" y="-75"/>
      <point x="217" y="-68"/>
      <point x="194" y="-68" type="curve" smooth="yes"/>
      <point x="165" y="-68" type="line"/>
      <point x="172" y="-7" type="line"/>
      <point x="79" y="8"/>
      <point x="36" y="85"/>
      <point x="36" y="232" type="curve" smooth="yes"/>
      <point x="36" y="400"/>
      <point x="94" y="476"/>
    </contour>
  </outline>
</glyph>
<glyph name="egrave" format="1">
  <advance width="403"/>
  <unicode hex="00E8"/>
  <outline>
    <contour>
      <point x="175" y="522" type="line"/>
      <point x="80" y="636" type="line"/>
      <point x="80" y="639" type="line"/>
      <point x="187" y="639" type="line"/>
      <point x="263" y="522" type="line"/>
    </contour>
    <contour>
      <point x="206" y="476" type="curve" smooth="yes"/>
      <point x="318" y="476"/>
      <point x="374" y="400"/>
      <point x="374" y="232" type="curve" smooth="yes"/>
      <point x="374" y="206" type="line"/>
      <point x="138" y="206" type="line"/>
      <point x="139" y="123"/>
      <point x="157" y="76"/>
      <point x="210" y="76" type="curve" smooth="yes"/>
      <point x="246" y="76"/>
      <point x="269" y="109"/>
      <point x="269" y="164" type="curve"/>
      <point x="374" y="164" type="line"/>
      <point x="374" y="45"/>
      <point x="304" y="-11"/>
      <point x="210" y="-11" type="curve" smooth="yes"/>
      <point x="90" y="-11"/>
      <point x="27" y="65"/>
      <point x="27" y="232" type="curve" smooth="yes"/>
      <point x="27" y="400"/>
      <point x="91" y="476"/>
    </contour>
    <contour>
      <point x="206" y="389" type="curve" smooth="yes"/>
      <point x="161" y="389"/>
      <point x="142" y="350"/>
      <point x="139" y="283" type="curve"/>
      <point x="263" y="283" type="line"/>
      <point x="263" y="350"/>
      <point x="245" y="389"/>
    </contour>
  </outline>
</glyph>
<glyph name="igrave" format="1">
  <advance width="202"/>
  <unicode hex="00EC"/>
  <outline>
    <contour>
      <point x="74" y="522" type="line"/>
      <point x="-21" y="636" type="line"/>
      <point x="-20" y="639" type="line"/>
      <point x="86" y="639" type="line"/>
      <point x="162" y="522" type="line"/>
    </contour>
    <contour>
      <point x="48" y="0" type="line"/>
      <point x="48" y="465" type="line"/>
      <point x="154" y="465" type="line"/>
      <point x="154" y="0" type="line"/>
    </contour>
  </outline>
</glyph>
<glyph name="iacute" format="1">
  <advance width="202"/>
  <unicode hex="00ED"/>
  <outline>
    <contour>
      <point x="128" y="522" type="line"/>
      <point x="40" y="522" type="line"/>
      <point x="116" y="639" type="line"/>
      <point x="222" y="639" type="line"/>
      <point x="223" y="636" type="line"/>
    </contour>
    <contour>
      <point x="48" y="0" type="line"/>
      <point x="48" y="465" type="line"/>
      <point x="154" y="465" type="line"/>
      <point x="154" y="0" type="line"/>
    </contour>
  </outline>
</glyph>
<glyph name="idieresis" format="1">
  <advance width="202"/>
  <unicode hex="00EF"/>
  <outline>
    <contour>
      <point x="-20" y="543" type="line"/>
      <point x="-20" y="639" type="line"/>
      <point x="68" y="639" type="line"/>
      <point x="68" y="543" type="line"/>
    </contour>
    <contour>
      <point x="134" y="543" type="line"/>
      <point x="134" y="639" type="line"/>
      <point x="223" y="639" type="line"/>
      <point x="223" y="543" type="line"/>
    </contour>
    <contour>
      <point x="48" y="0" type="line"/>
      <point x="48" y="465" type="line"/>
      <point x="154" y="465" type="line"/>
      <point x="154" y="0" type="line"/>
    </contour>
  </outline>
</glyph>
<glyph name="eth" format="1">
  <advance width="443"/>
  <unicode hex="00F0"/>
  <outline>
    <contour>
      <point x="117" y="639" type="line"/>
      <point x="228" y="639" type="line"/>
      <point x="240" y="629"/>
      <point x="255" y="614"/>
      <point x="272" y="597" type="curve"/>
      <point x="387" y="607" type="line"/>
      <point x="387" y="543" type="line"/>
      <point x="321" y="537" type="line"/>
      <point x="367" y="469"/>
      <point x="408" y="372"/>
      <point x="408" y="232" type="curve" smooth="yes"/>
      <point x="408" y="65"/>
      <point x="346" y="-11"/>
      <point x="222" y="-11" type="curve" smooth="yes"/>
      <point x="98" y="-11"/>
      <point x="36" y="65"/>
      <point x="36" y="232" type="curve" smooth="yes"/>
      <point x="36" y="392"/>
      <point x="98" y="476"/>
      <point x="197" y="476" type="curve" smooth="yes"/>
      <point x="210" y="476"/>
      <point x="227" y="473"/>
      <point x="240" y="469" type="curve"/>
      <point x="243" y="472" type="line"/>
      <point x="234" y="489"/>
      <point x="222" y="508"/>
      <point x="210" y="526" type="curve"/>
      <point x="95" y="516" type="line"/>
      <point x="95" y="581" type="line"/>
      <point x="162" y="587" type="line"/>
      <point x="144" y="607"/>
      <point x="126" y="624"/>
      <point x="115" y="636" type="curve"/>
    </contour>
    <contour>
      <point x="222" y="386" type="curve" smooth="yes"/>
      <point x="167" y="386"/>
      <point x="147" y="339"/>
      <point x="147" y="249" type="curve" smooth="yes"/>
      <point x="147" y="216" type="line" smooth="yes"/>
      <point x="147" y="126"/>
      <point x="167" y="79"/>
      <point x="222" y="79" type="curve" smooth="yes"/>
      <point x="277" y="79"/>
      <point x="297" y="126"/>
      <point x="297" y="216" type="curve" smooth="yes"/>
      <point x="297" y="249" type="line" smooth="yes"/>
      <point x="297" y="339"/>
      <point x="277" y="386"/>
    </contour>
  </outline>
</glyph>
<glyph name="otilde" format="1">
  <advance width="443"/>
  <unicode hex="00F5"/>
  <outline>
    <contour>
      <point x="312" y="639" type="curve"/>
      <point x="370" y="639" type="line"/>
      <point x="370" y="591"/>
      <point x="346" y="531"/>
      <point x="283" y="531" type="curve" smooth="yes"/>
      <point x="240" y="531"/>
      <point x="206" y="564"/>
      <point x="166" y="564" type="curve" smooth="yes"/>
      <point x="148" y="564"/>
      <point x="135" y="555"/>
      <point x="132" y="531" type="curve"/>
      <point x="73" y="531" type="line"/>
      <point x="73" y="580"/>
      <point x="98" y="639"/>
      <point x="160" y="639" type="curve" smooth="yes"/>
      <point x="203" y="639"/>
      <point x="238" y="606"/>
      <point x="278" y="606" type="curve" smooth="yes"/>
      <point x="296" y="606"/>
      <point x="309" y="614"/>
    </contour>
    <contour>
      <point x="222" y="476" type="curve" smooth="yes"/>
      <point x="346" y="476"/>
      <point x="408" y="400"/>
      <point x="408" y="232" type="curve" smooth="yes"/>
      <point x="408" y="65"/>
      <point x="346" y="-11"/>
      <point x="222" y="-11" type="curve" smooth="yes"/>
      <point x="98" y="-11"/>
      <point x="36" y="65"/>
      <point x="36" y="232" type="curve" smooth="yes"/>
      <point x="36" y="400"/>
      <point x="98" y="476"/>
    </contour>
    <contour>
      <point x="222" y="386" type="curve" smooth="yes"/>
      <point x="167" y="386"/>
      <point x="147" y="339"/>
      <point x="147" y="249" type="curve" smooth="yes"/>
      <point x="147" y="216" type="line" smooth="yes"/>
      <point x="147" y="126"/>
      <point x="167" y="79"/>
      <point x="222" y="79" type="curve" smooth="yes"/>
      <point x="277" y="79"/>
      <point x="297" y="126"/>
      <point x="297" y="216" type="curve" smooth="yes"/>
      <point x="297" y="249" type="line" smooth="yes"/>
      <point x="297" y="339"/>
      <point x="277" y="386"/>
    </contour>
  </outline>
</glyph>
<glyph name="Amacron" format="1">
  <advance width="523"/>
  <unicode hex="0100"/>
  <outline>
    <contour>
      <point x="149" y="671" type="line"/>
      <point x="149" y="748" type="line"/>
      <point x="375" y="748" type="line"/>
      <point x="375" y="671" type="line"/>
    </contour>
    <contour>
      <point x="407" y="0" type="line"/>
      <point x="370" y="119" type="line"/>
      <point x="146" y="119" type="line"/>
      <point x="110" y="0" type="line"/>
      <point x="0" y="0" type="line"/>
      <point x="195" y="606" type="line"/>
      <point x="327" y="606" type="line"/>
      <point x="522" y="0" type="line"/>
    </contour>
    <contour>
      <point x="260" y="505" type="curve"/>
      <point x="256" y="505" type="line"/>
      <point x="256" y="505"/>
      <point x="248" y="451"/>
      <point x="239" y="423" type="curve" smooth="yes"/>
      <point x="177" y="220" type="line"/>
      <point x="339" y="220" type="line"/>
      <point x="278" y="423" type="line" smooth="yes"/>
      <point x="268" y="454"/>
      <point x="260" y="505"/>
    </contour>
  </outline>
</glyph>
<glyph name="Abreve" format="1">
  <advance width="523"/>
  <unicode hex="0102"/>
  <outline>
    <contour>
      <point x="314" y="781" type="curve"/>
      <point x="380" y="781" type="line"/>
      <point x="380" y="736"/>
      <point x="334" y="686"/>
      <point x="261" y="686" type="curve" smooth="yes"/>
      <point x="188" y="686"/>
      <point x="144" y="736"/>
      <point x="144" y="781" type="curve"/>
      <point x="210" y="781" type="line"/>
      <point x="212" y="768"/>
      <point x="232" y="751"/>
      <point x="261" y="751" type="curve" smooth="yes"/>
      <point x="292" y="751"/>
      <point x="313" y="768"/>
    </contour>
    <contour>
      <point x="407" y="0" type="line"/>
      <point x="370" y="119" type="line"/>
      <point x="146" y="119" type="line"/>
      <point x="110" y="0" type="line"/>
      <point x="0" y="0" type="line"/>
      <point x="195" y="606" type="line"/>
      <point x="327" y="606" type="line"/>
      <point x="522" y="0" type="line"/>
    </contour>
    <contour>
      <point x="260" y="505" type="curve"/>
      <point x="256" y="505" type="line"/>
      <point x="256" y="505"/>
      <point x="248" y="451"/>
      <point x="239" y="423" type="curve" smooth="yes"/>
      <point x="177" y="220" type="line"/>
      <point x="339" y="220" type="line"/>
      <point x="278" y="423" type="line" smooth="yes"/>
      <point x="268" y="454"/>
      <point x="260" y="505"/>
    </contour>
  </outline>
</glyph>
<glyph name="Aogonek" format="1">
  <advance width="523"/>
  <unicode hex="0104"/>
  <outline>
    <contour>
      <point x="555" y="-107" type="line"/>
      <point x="555" y="-156" type="line"/>
      <point x="535" y="-164"/>
      <point x="516" y="-168"/>
      <point x="497" y="-168" type="curve" smooth="yes"/>
      <point x="456" y="-168"/>
      <point x="409" y="-149"/>
      <point x="409" y="-88" type="curve" smooth="yes"/>
      <point x="409" y="-44"/>
      <point x="430" y="-24"/>
      <point x="449" y="0" type="curve"/>
      <point x="407" y="0" type="line"/>
      <point x="370" y="119" type="line"/>
      <point x="146" y="119" type="line"/>
      <point x="110" y="0" type="line"/>
      <point x="0" y="0" type="line"/>
      <point x="195" y="606" type="line"/>
      <point x="327" y="606" type="line"/>
      <point x="522" y="0" type="line"/>
      <point x="512" y="-10"/>
      <point x="496" y="-34"/>
      <point x="496" y="-62" type="curve" smooth="yes"/>
      <point x="496" y="-85"/>
      <point x="507" y="-107"/>
      <point x="536" y="-107" type="curve" smooth="yes"/>
    </contour>
    <contour>
      <point x="339" y="220" type="line"/>
      <point x="278" y="423" type="line" smooth="yes"/>
      <point x="268" y="454"/>
      <point x="260" y="505"/>
      <point x="260" y="505" type="curve"/>
      <point x="256" y="505" type="line"/>
      <point x="256" y="505"/>
      <point x="248" y="451"/>
      <point x="239" y="423" type="curve" smooth="yes"/>
      <point x="177" y="220" type="line"/>
    </contour>
  </outline>
</glyph>
<glyph name="aogonek" format="1">
  <advance width="403"/>
  <unicode hex="0105"/>
  <outline>
    <contour>
      <point x="429" y="-103" type="line"/>
      <point x="429" y="-152" type="line"/>
      <point x="408" y="-160"/>
      <point x="390" y="-164"/>
      <point x="370" y="-164" type="curve" smooth="yes"/>
      <point x="331" y="-164"/>
      <point x="283" y="-146"/>
      <point x="283" y="-85" type="curve" smooth="yes"/>
      <point x="283" y="-50"/>
      <point x="294" y="-27"/>
      <point x="310" y="-8" type="curve"/>
      <point x="280" y="-1"/>
      <point x="260" y="21"/>
      <point x="251" y="50" type="curve"/>
      <point x="247" y="50" type="line"/>
      <point x="220" y="13"/>
      <point x="191" y="-11"/>
      <point x="129" y="-11" type="curve" smooth="yes"/>
      <point x="86" y="-11"/>
      <point x="12" y="12"/>
      <point x="12" y="120" type="curve" smooth="yes"/>
      <point x="12" y="246"/>
      <point x="108" y="283"/>
      <point x="243" y="283" type="curve"/>
      <point x="243" y="331" type="line" smooth="yes"/>
      <point x="243" y="363"/>
      <point x="235" y="389"/>
      <point x="194" y="389" type="curve" smooth="yes"/>
      <point x="151" y="389"/>
      <point x="139" y="362"/>
      <point x="139" y="340" type="curve" smooth="yes"/>
      <point x="139" y="327" type="line"/>
      <point x="35" y="327" type="line"/>
      <point x="34" y="332"/>
      <point x="34" y="339"/>
      <point x="34" y="347" type="curve" smooth="yes"/>
      <point x="34" y="424"/>
      <point x="96" y="476"/>
      <point x="192" y="476" type="curve" smooth="yes"/>
      <point x="300" y="476"/>
      <point x="350" y="425"/>
      <point x="350" y="339" type="curve" smooth="yes"/>
      <point x="350" y="110" type="line" smooth="yes"/>
      <point x="350" y="88"/>
      <point x="362" y="79"/>
      <point x="375" y="79" type="curve" smooth="yes"/>
      <point x="396" y="79" type="line"/>
      <point x="396" y="4" type="line"/>
      <point x="386" y="-9"/>
      <point x="370" y="-34"/>
      <point x="370" y="-58" type="curve" smooth="yes"/>
      <point x="370" y="-81"/>
      <point x="380" y="-103"/>
      <point x="409" y="-103" type="curve" smooth="yes"/>
    </contour>
    <contour>
      <point x="243" y="179" type="curve" smooth="yes"/>
      <point x="243" y="206" type="line"/>
      <point x="181" y="206"/>
      <point x="121" y="190"/>
      <point x="121" y="130" type="curve" smooth="yes"/>
      <point x="121" y="98"/>
      <point x="137" y="78"/>
      <point x="173" y="78" type="curve" smooth="yes"/>
      <point x="224" y="78"/>
      <point x="243" y="125"/>
    </contour>
  </outline>
</glyph>
<glyph name="Ccircumflex" format="1">
  <advance width="523"/>
  <unicode hex="0108"/>
  <outline>
    <contour>
      <point x="271" y="722" type="line"/>
      <point x="232" y="661" type="line"/>
      <point x="152" y="661" type="line"/>
      <point x="228" y="781" type="line"/>
      <point x="315" y="781" type="line"/>
      <point x="390" y="661" type="line"/>
      <point x="311" y="661" type="line"/>
    </contour>
    <contour>
      <point x="271" y="617" type="curve" smooth="yes"/>
      <point x="398" y="617"/>
      <point x="494" y="545"/>
      <point x="494" y="381" type="curve"/>
      <point x="378" y="381" type="line"/>
      <point x="378" y="475"/>
      <point x="335" y="520"/>
      <point x="271" y="520" type="curve" smooth="yes"/>
      <point x="187" y="520"/>
      <point x="147" y="446"/>
      <point x="147" y="325" type="curve" smooth="yes"/>
      <point x="147" y="281" type="line" smooth="yes"/>
      <point x="147" y="160"/>
      <point x="188" y="87"/>
      <point x="275" y="87" type="curve" smooth="yes"/>
      <point x="340" y="87"/>
      <point x="384" y="131"/>
      <point x="384" y="225" type="curve"/>
      <point x="494" y="225" type="line"/>
      <point x="494" y="65"/>
      <point x="400" y="-11"/>
      <point x="271" y="-11" type="curve" smooth="yes"/>
      <point x="119" y="-11"/>
      <point x="30" y="89"/>
      <point x="30" y="303" type="curve" smooth="yes"/>
      <point x="30" y="517"/>
      <point x="119" y="617"/>
    </contour>
  </outline>
</glyph>
<glyph name="Emacron" format="1">
  <advance width="484"/>
  <unicode hex="0112"/>
  <outline>
    <contour>
      <point x="129" y="748" type="line"/>
      <point x="354" y="748" type="line"/>
      <point x="354" y="671" type="line"/>
      <point x="129" y="671" type="line"/>
    </contour>
    <contour>
      <point x="439" y="606" type="line"/>
      <point x="439" y="506" type="line"/>
      <point x="166" y="506" type="line"/>
      <point x="166" y="361" type="line"/>
      <point x="400" y="361" type="line"/>
      <point x="400" y="260" type="line"/>
      <point x="166" y="260" type="line"/>
      <point x="166" y="101" type="line"/>
      <point x="445" y="101" type="line"/>
      <point x="445" y="0" type="line"/>
      <point x="53" y="0" type="line"/>
      <point x="53" y="606" type="line"/>
    </contour>
  </outline>
</glyph>
<glyph name="Edotaccent" format="1">
  <advance width="484"/>
  <unicode hex="0116"/>
  <outline>
    <contour>
      <point x="194" y="781" type="line"/>
      <point x="289" y="781" type="line"/>
      <point x="289" y="679" type="line"/>
      <point x="194" y="679" type="line"/>
    </contour>
    <contour>
      <point x="439" y="606" type="line"/>
      <point x="439" y="506" type="line"/>
      <point x="166" y="506" type="line"/>
      <point x="166" y="361" type="line"/>
      <point x="400" y="361" type="line"/>
      <point x="400" y="260" type="line"/>
      <point x="166" y="260" type="line"/>
      <point x="166" y="101" type="line"/>
      <point x="445" y="101" type="line"/>
      <point x="445" y="0" type="line"/>
      <point x="53" y="0" type="line"/>
      <point x="53" y="606" type="line"/>
    </contour>
  </outline>
</glyph>
<glyph name="Eogonek" format="1">
  <advance width="484"/>
  <unicode hex="0118"/>
  <outline>
    <contour>
      <point x="166" y="361" type="line"/>
      <point x="400" y="361" type="line"/>
      <point x="400" y="260" type="line"/>
      <point x="166" y="260" type="line"/>
      <point x="166" y="101" type="line"/>
      <point x="445" y="101" type="line"/>
      <point x="445" y="0" type="line"/>
      <point x="434" y="-12"/>
      <point x="418" y="-37"/>
      <point x="418" y="-62" type="curve" smooth="yes"/>
      <point x="418" y="-85"/>
      <point x="429" y="-107"/>
      <point x="458" y="-107" type="curve" smooth="yes"/>
      <point x="477" y="-107" type="line"/>
      <point x="477" y="-156" type="line"/>
      <point x="457" y="-164"/>
      <point x="438" y="-168"/>
      <point x="419" y="-168" type="curve" smooth="yes"/>
      <point x="378" y="-168"/>
      <point x="331" y="-149"/>
      <point x="331" y="-88" type="curve" smooth="yes"/>
      <point x="331" y="-47"/>
      <point x="349" y="-22"/>
      <point x="370" y="0" type="curve"/>
      <point x="53" y="0" type="line"/>
      <point x="53" y="606" type="line"/>
      <point x="439" y="606" type="line"/>
      <point x="439" y="506" type="line"/>
      <point x="166" y="506" type="line"/>
    </contour>
  </outline>
</glyph>
<glyph name="Ecaron" format="1">
  <advance width="484"/>
  <unicode hex="011A"/>
  <outline>
    <contour>
      <point x="123" y="781" type="line"/>
      <point x="202" y="781" type="line"/>
      <point x="242" y="720" type="line"/>
      <point x="281" y="781" type="line"/>
      <point x="361" y="781" type="line"/>
      <point x="286" y="661" type="line"/>
      <point x="199" y="661" type="line"/>
    </contour>
    <contour>
      <point x="439" y="606" type="line"/>
      <point x="439" y="506" type="line"/>
      <point x="166" y="506" type="line"/>
      <point x="166" y="361" type="line"/>
      <point x="400" y="361" type="line"/>
      <point x="400" y="260" type="line"/>
      <point x="166" y="260" type="line"/>
      <point x="166" y="101" type="line"/>
      <point x="445" y="101" type="line"/>
      <point x="445" y="0" type="line"/>
      <point x="53" y="0" type="line"/>
      <point x="53" y="606" type="line"/>
    </contour>
  </outline>
</glyph>
<glyph name="Itilde" format="1">
  <advance width="202"/>
  <unicode hex="0128"/>
  <outline>
    <contour>
      <point x="191" y="781" type="curve"/>
      <point x="250" y="781" type="line"/>
      <point x="250" y="732"/>
      <point x="225" y="673"/>
      <point x="163" y="673" type="curve" smooth="yes"/>
      <point x="120" y="673"/>
      <point x="86" y="705"/>
      <point x="46" y="705" type="curve" smooth="yes"/>
      <point x="27" y="705"/>
      <point x="15" y="697"/>
      <point x="11" y="673" type="curve"/>
      <point x="-48" y="673" type="line"/>
      <point x="-48" y="721"/>
      <point x="-23" y="781"/>
      <point x="39" y="781" type="curve" smooth="yes"/>
      <point x="83" y="781"/>
      <point x="117" y="748"/>
      <point x="157" y="748" type="curve" smooth="yes"/>
      <point x="176" y="748"/>
      <point x="187" y="756"/>
    </contour>
    <contour>
      <point x="44" y="606" type="line"/>
      <point x="157" y="606" type="line"/>
      <point x="157" y="0" type="line"/>
      <point x="44" y="0" type="line"/>
    </contour>
  </outline>
</glyph>
<glyph name="itilde" format="1">
  <advance width="202"/>
  <unicode hex="0129"/>
  <outline>
    <contour>
      <point x="191" y="639" type="curve"/>
      <point x="250" y="639" type="line"/>
      <point x="250" y="591"/>
      <point x="225" y="531"/>
      <point x="163" y="531" type="curve" smooth="yes"/>
      <point x="120" y="531"/>
      <point x="86" y="564"/>
      <point x="46" y="564" type="curve" smooth="yes"/>
      <point x="27" y="564"/>
      <point x="15" y="555"/>
      <point x="11" y="531" type="curve"/>
      <point x="-48" y="531" type="line"/>
      <point x="-48" y="580"/>
      <point x="-23" y="639"/>
      <point x="39" y="639" type="curve" smooth="yes"/>
      <point x="83" y="639"/>
      <point x="117" y="606"/>
      <point x="157" y="606" type="curve" smooth="yes"/>
      <point x="176" y="606"/>
      <point x="187" y="614"/>
    </contour>
    <contour>
      <point x="48" y="465" type="line"/>
      <point x="154" y="465" type="line"/>
      <point x="154" y="0" type="line"/>
      <point x="48" y="0" type="line"/>
    </contour>
  </outline>
</glyph>
<glyph name="imacron" format="1">
  <advance width="202"/>
  <unicode hex="012B"/>
  <outline>
    <contour>
      <point x="-12" y="606" type="line"/>
      <point x="214" y="606" type="line"/>
      <point x="214" y="530" type="line"/>
      <point x="-12" y="530" type="line"/>
    </contour>
    <contour>
      <point x="48" y="465" type="line"/>
      <point x="154" y="465" type="line"/>
      <point x="154" y="0" type="line"/>
      <point x="48" y="0" type="line"/>
    </contour>
  </outline>
</glyph>
<glyph name="Ibreve" format="1">
  <advance width="202"/>
  <unicode hex="012C"/>
  <outline>
    <contour>
      <point x="154" y="781" type="curve"/>
      <point x="219" y="781" type="line"/>
      <point x="219" y="736"/>
      <point x="174" y="686"/>
      <point x="101" y="686" type="curve" smooth="yes"/>
      <point x="28" y="686"/>
      <point x="-18" y="736"/>
      <point x="-18" y="781" type="curve"/>
      <point x="49" y="781" type="line"/>
      <point x="51" y="768"/>
      <point x="72" y="751"/>
      <point x="101" y="751" type="curve" smooth="yes"/>
      <point x="131" y="751"/>
      <point x="152" y="768"/>
    </contour>
    <contour>
      <point x="44" y="606" type="line"/>
      <point x="157" y="606" type="line"/>
      <point x="157" y="0" type="line"/>
      <point x="44" y="0" type="line"/>
    </contour>
  </outline>
</glyph>
<glyph name="iogonek" format="1">
  <advance width="202"/>
  <unicode hex="012F"/>
  <outline>
    <contour>
      <point x="54" y="537" type="line"/>
      <point x="54" y="639" type="line"/>
      <point x="149" y="639" type="line"/>
      <point x="149" y="537" type="line"/>
    </contour>
    <contour>
      <point x="154" y="465" type="line"/>
      <point x="154" y="0" type="line"/>
      <point x="143" y="-12"/>
      <point x="127" y="-37"/>
      <point x="127" y="-62" type="curve" smooth="yes"/>
      <point x="127" y="-85"/>
      <point x="138" y="-107"/>
      <point x="167" y="-107" type="curve" smooth="yes"/>
      <point x="187" y="-107" type="line"/>
      <point x="187" y="-156" type="line"/>
      <point x="166" y="-164"/>
      <point x="148" y="-168"/>
      <point x="128" y="-168" type="curve" smooth="yes"/>
      <point x="88" y="-168"/>
      <point x="41" y="-149"/>
      <point x="41" y="-88" type="curve" smooth="yes"/>
      <point x="41" y="-47"/>
      <point x="58" y="-22"/>
      <point x="80" y="0" type="curve"/>
      <point x="48" y="0" type="line"/>
      <point x="48" y="465" type="line"/>
    </contour>
  </outline>
</glyph>
<glyph name="IJ" format="1">
  <advance width="605"/>
  <unicode hex="0132"/>
  <outline>
    <contour>
      <point x="44" y="0" type="line"/>
      <point x="44" y="606" type="line"/>
      <point x="157" y="606" type="line"/>
      <point x="157" y="0" type="line"/>
    </contour>
    <contour>
      <point x="552" y="606" type="line"/>
      <point x="552" y="144" type="line" smooth="yes"/>
      <point x="552" y="43"/>
      <point x="491" y="-11"/>
      <point x="381" y="-11" type="curve" smooth="yes"/>
      <point x="271" y="-11"/>
      <point x="210" y="43"/>
      <point x="210" y="144" type="curve" smooth="yes"/>
      <point x="210" y="191" type="line"/>
      <point x="322" y="191" type="line"/>
      <point x="322" y="153" type="line" smooth="yes"/>
      <point x="322" y="110"/>
      <point x="342" y="87"/>
      <point x="381" y="87" type="curve" smooth="yes"/>
      <point x="419" y="87"/>
      <point x="438" y="110"/>
      <point x="438" y="153" type="curve" smooth="yes"/>
      <point x="438" y="606" type="line"/>
    </contour>
  </outline>
</glyph>
<glyph name="ij" format="1">
  <advance width="403"/>
  <unicode hex="0133"/>
  <outline>
    <contour>
      <point x="48" y="543" type="line"/>
      <point x="48" y="639" type="line"/>
      <point x="154" y="639" type="line"/>
      <point x="154" y="543" type="line"/>
    </contour>
    <contour>
      <point x="249" y="543" type="line"/>
      <point x="249" y="639" type="line"/>
      <point x="355" y="639" type="line"/>
      <point x="355" y="543" type="line"/>
    </contour>
    <contour>
      <point x="48" y="0" type="line"/>
      <point x="48" y="465" type="line"/>
      <point x="154" y="465" type="line"/>
      <point x="154" y="0" type="line"/>
    </contour>
    <contour>
      <point x="355" y="465" type="line"/>
      <point x="355" y="-36" type="line" smooth="yes"/>
      <point x="355" y="-98"/>
      <point x="332" y="-161"/>
      <point x="248" y="-161" type="curve" smooth="yes"/>
      <point x="221" y="-161"/>
      <point x="187" y="-156"/>
      <point x="169" y="-150" type="curve"/>
      <point x="169" y="-72" type="line"/>
      <point x="208" y="-72" type="line" smooth="yes"/>
      <point x="235" y="-72"/>
      <point x="249" y="-57"/>
      <point x="249" y="-29" type="curve" smooth="yes"/>
      <point x="249" y="465" type="line"/>
    </contour>
  </outline>
</glyph>
<glyph name="jcircumflex" format="1">
  <advance width="202"/>
  <unicode hex="0135"/>
  <outline>
    <contour>
      <point x="103" y="581" type="line"/>
      <point x="63" y="520" type="line"/>
      <point x="-17" y="520" type="line"/>
      <point x="59" y="639" type="line"/>
      <point x="147" y="639" type="line"/>
      <point x="221" y="520" type="line"/>
      <point x="142" y="520" type="line"/>
    </contour>
    <contour>
      <point x="154" y="465" type="line"/>
      <point x="154" y="-36" type="line" smooth="yes"/>
      <point x="154" y="-98"/>
      <point x="131" y="-161"/>
      <point x="46" y="-161" type="curve" smooth="yes"/>
      <point x="19" y="-161"/>
      <point x="-14" y="-156"/>
      <point x="-33" y="-150" type="curve"/>
      <point x="-33" y="-72" type="line"/>
      <point x="6" y="-72" type="line" smooth="yes"/>
      <point x="34" y="-72"/>
      <point x="48" y="-57"/>
      <point x="48" y="-29" type="curve" smooth="yes"/>
      <point x="48" y="465" type="line"/>
    </contour>
  </outline>
</glyph>
<glyph name="kcommaaccent" format="1">
  <advance width="403"/>
  <unicode hex="0137"/>
  <outline>
    <contour>
      <point x="397" y="465" type="line"/>
      <point x="259" y="276" type="line"/>
      <point x="404" y="0" type="line"/>
      <point x="286" y="0" type="line"/>
      <point x="193" y="193" type="line"/>
      <point x="154" y="145" type="line"/>
      <point x="154" y="0" type="line"/>
      <point x="48" y="0" type="line"/>
      <point x="48" y="639" type="line"/>
      <point x="154" y="639" type="line"/>
      <point x="154" y="280" type="line"/>
      <point x="284" y="465" type="line"/>
    </contour>
    <contour>
      <point x="159" y="-232" type="line"/>
      <point x="190" y="-157" type="line"/>
      <point x="148" y="-157" type="line"/>
      <point x="148" y="-49" type="line"/>
      <point x="256" y="-49" type="line"/>
      <point x="256" y="-148" type="line"/>
      <point x="217" y="-232" type="line"/>
    </contour>
  </outline>
</glyph>
<glyph name="Lacute" format="1">
  <advance width="443"/>
  <unicode hex="0139"/>
  <outline>
    <contour>
      <point x="139" y="664" type="line"/>
      <point x="51" y="664" type="line"/>
      <point x="127" y="781" type="line"/>
      <point x="233" y="781" type="line"/>
      <point x="234" y="778" type="line"/>
    </contour>
    <contour>
      <point x="423" y="106" type="line"/>
      <point x="423" y="0" type="line"/>
      <point x="53" y="0" type="line"/>
      <point x="53" y="606" type="line"/>
      <point x="166" y="606" type="line"/>
      <point x="166" y="106" type="line"/>
    </contour>
  </outline>
</glyph>
<glyph name="Lcaron" format="1">
  <advance width="443"/>
  <unicode hex="013D"/>
  <outline>
    <contour>
      <point x="423" y="106" type="line"/>
      <point x="423" y="0" type="line"/>
      <point x="53" y="0" type="line"/>
      <point x="53" y="606" type="line"/>
      <point x="166" y="606" type="line"/>
      <point x="166" y="106" type="line"/>
    </contour>
    <contour>
      <point x="364" y="347" type="line"/>
      <point x="301" y="347" type="line"/>
      <point x="349" y="485" type="line"/>
      <point x="301" y="485" type="line"/>
      <point x="301" y="606" type="line"/>
      <point x="423" y="606" type="line"/>
      <point x="423" y="496" type="line"/>
    </contour>
  </outline>
</glyph>
<glyph name="lcaron" format="1">
  <advance width="279"/>
  <unicode hex="013E"/>
  <outline>
    <contour>
      <point x="48" y="639" type="line"/>
      <point x="154" y="639" type="line"/>
      <point x="154" y="0" type="line"/>
      <point x="48" y="0" type="line"/>
    </contour>
    <contour>
      <point x="200" y="347" type="line"/>
      <point x="248" y="485" type="line"/>
      <point x="200" y="485" type="line"/>
      <point x="200" y="606" type="line"/>
      <point x="322" y="606" type="line"/>
      <point x="322" y="496" type="line"/>
      <point x="263" y="347" type="line"/>
    </contour>
  </outline>
</glyph>
<glyph name="Ldot" format="1">
  <advance width="443"/>
  <unicode hex="013F"/>
  <outline>
    <contour>
      <point x="423" y="106" type="line"/>
      <point x="423" y="0" type="line"/>
      <point x="53" y="0" type="line"/>
      <point x="53" y="606" type="line"/>
      <point x="166" y="606" type="line"/>
      <point x="166" y="106" type="line"/>
    </contour>
    <contour>
      <point x="277" y="362" type="line"/>
      <point x="277" y="463" type="line"/>
      <point x="371" y="463" type="line"/>
      <point x="371" y="362" type="line"/>
    </contour>
  </outline>
</glyph>
<glyph name="ldot" format="1">
  <advance width="295"/>
  <unicode hex="0140"/>
  <outline>
    <contour>
      <point x="48" y="639" type="line"/>
      <point x="154" y="639" type="line"/>
      <point x="154" y="0" type="line"/>
      <point x="48" y="0" type="line"/>
    </contour>
    <contour>
      <point x="188" y="362" type="line"/>
      <point x="295" y="362" type="line"/>
      <point x="295" y="246" type="line"/>
      <point x="188" y="246" type="line"/>
    </contour>
  </outline>
</glyph>
<glyph name="Nacute" format="1">
  <advance width="523"/>
  <unicode hex="0143"/>
  <outline>
    <contour>
      <point x="288" y="664" type="line"/>
      <point x="201" y="664" type="line"/>
      <point x="277" y="781" type="line"/>
      <point x="383" y="781" type="line"/>
      <point x="384" y="778" type="line"/>
    </contour>
    <contour>
      <point x="370" y="0" type="line"/>
      <point x="182" y="334" type="line" smooth="yes"/>
      <point x="175" y="347"/>
      <point x="155" y="391"/>
      <point x="155" y="391" type="curve"/>
      <point x="151" y="388" type="line"/>
      <point x="151" y="388"/>
      <point x="153" y="354"/>
      <point x="153" y="338" type="curve" smooth="yes"/>
      <point x="153" y="0" type="line"/>
      <point x="53" y="0" type="line"/>
      <point x="53" y="606" type="line"/>
      <point x="153" y="606" type="line"/>
      <point x="340" y="272" type="line" smooth="yes"/>
      <point x="350" y="257"/>
      <point x="368" y="216"/>
      <point x="368" y="216" type="curve"/>
      <point x="370" y="218" type="line"/>
      <point x="370" y="269" type="line"/>
      <point x="370" y="606" type="line"/>
      <point x="470" y="606" type="line"/>
      <point x="470" y="0" type="line"/>
    </contour>
  </outline>
</glyph>
<glyph name="ncommaaccent" format="1">
  <advance width="443"/>
  <unicode hex="0146"/>
  <outline>
    <contour>
      <point x="271" y="476" type="curve" smooth="yes"/>
      <point x="342" y="476"/>
      <point x="394" y="436"/>
      <point x="394" y="326" type="curve" smooth="yes"/>
      <point x="394" y="0" type="line"/>
      <point x="288" y="0" type="line"/>
      <point x="288" y="297" type="line" smooth="yes"/>
      <point x="288" y="357"/>
      <point x="265" y="379"/>
      <point x="227" y="379" type="curve" smooth="yes"/>
      <point x="186" y="379"/>
      <point x="155" y="339"/>
      <point x="155" y="286" type="curve" smooth="yes"/>
      <point x="155" y="0" type="line"/>
      <point x="49" y="0" type="line"/>
      <point x="49" y="465" type="line"/>
      <point x="137" y="465" type="line"/>
      <point x="148" y="408" type="line"/>
      <point x="153" y="408" type="line"/>
      <point x="177" y="444"/>
      <point x="215" y="476"/>
    </contour>
    <contour>
      <point x="179" y="-232" type="line"/>
      <point x="210" y="-157" type="line"/>
      <point x="167" y="-157" type="line"/>
      <point x="167" y="-49" type="line"/>
      <point x="276" y="-49" type="line"/>
      <point x="276" y="-148" type="line"/>
      <point x="236" y="-232" type="line"/>
    </contour>
  </outline>
</glyph>
<glyph name="oe" format="1">
  <advance width="684"/>
  <unicode hex="0153"/>
  <outline>
    <contour>
      <point x="0" y="0" type="move" name="Anchor-1"/>
    </contour>
    <contour>
      <point x="342" y="465" type="move" name="Anchor-0"/>
    </contour>
    <contour>
      <point x="476" y="476" type="curve" smooth="yes"/>
      <point x="589" y="476"/>
      <point x="644" y="400"/>
      <point x="644" y="232" type="curve" smooth="yes"/>
      <point x="644" y="206" type="line"/>
      <point x="408" y="206" type="line"/>
      <point x="409" y="123"/>
      <point x="428" y="76"/>
      <point x="480" y="76" type="curve" smooth="yes"/>
      <point x="516" y="76"/>
      <point x="539" y="109"/>
      <point x="539" y="164" type="curve"/>
      <point x="644" y="164" type="line"/>
      <point x="644" y="45"/>
      <point x="575" y="-11"/>
      <point x="480" y="-11" type="curve" smooth="yes"/>
      <point x="425" y="-11"/>
      <point x="383" y="8"/>
      <point x="353" y="47" type="curve"/>
      <point x="322" y="8"/>
      <point x="278" y="-11"/>
      <point x="222" y="-11" type="curve" smooth="yes"/>
      <point x="98" y="-11"/>
      <point x="36" y="65"/>
      <point x="36" y="232" type="curve" smooth="yes"/>
      <point x="36" y="400"/>
      <point x="98" y="476"/>
      <point x="222" y="476" type="curve" smooth="yes"/>
      <point x="278" y="476"/>
      <point x="322" y="457"/>
      <point x="352" y="417" type="curve"/>
      <point x="382" y="457"/>
      <point x="423" y="476"/>
    </contour>
    <contour>
      <point x="476" y="389" type="curve" smooth="yes"/>
      <point x="431" y="389"/>
      <point x="413" y="350"/>
      <point x="409" y="283" type="curve"/>
      <point x="533" y="283" type="line"/>
      <point x="533" y="350"/>
      <point x="515" y="389"/>
    </contour>
    <contour>
      <point x="222" y="386" type="curve" smooth="yes"/>
      <point x="167" y="386"/>
      <point x="147" y="339"/>
      <point x="147" y="249" type="curve" smooth="yes"/>
      <point x="147" y="216" type="line" smooth="yes"/>
      <point x="147" y="126"/>
      <point x="167" y="79"/>
      <point x="222" y="79" type="curve" smooth="yes"/>
      <point x="277" y="79"/>
      <point x="297" y="126"/>
      <point x="297" y="216" type="curve" smooth="yes"/>
      <point x="297" y="249" type="line" smooth="yes"/>
      <point x="297" y="339"/>
      <point x="277" y="386"/>
    </contour>
  </outline>
</glyph>
<glyph name="rcommaaccent" format="1">
  <advance width="282"/>
  <unicode hex="0157"/>
  <outline>
    <contour>
      <point x="235" y="476" type="curve" smooth="yes"/>
      <point x="263" y="476"/>
      <point x="279" y="469"/>
      <point x="279" y="469" type="curve"/>
      <point x="279" y="366" type="line"/>
      <point x="241" y="366" type="line" smooth="yes"/>
      <point x="195" y="366"/>
      <point x="155" y="341"/>
      <point x="155" y="259" type="curve" smooth="yes"/>
      <point x="155" y="0" type="line"/>
      <point x="49" y="0" type="line"/>
      <point x="49" y="465" type="line"/>
      <point x="137" y="465" type="line"/>
      <point x="149" y="397" type="line"/>
      <point x="155" y="397" type="line"/>
      <point x="167" y="436"/>
      <point x="188" y="476"/>
    </contour>
    <contour>
      <point x="64" y="-232" type="line"/>
      <point x="95" y="-157" type="line"/>
      <point x="52" y="-157" type="line"/>
      <point x="52" y="-49" type="line"/>
      <point x="162" y="-49" type="line"/>
      <point x="162" y="-148" type="line"/>
      <point x="121" y="-232" type="line"/>
    </contour>
  </outline>
</glyph>
<glyph name="Rcaron" format="1">
  <advance width="523"/>
  <unicode hex="0158"/>
  <outline>
    <contour>
      <point x="219" y="661" type="line"/>
      <point x="143" y="781" type="line"/>
      <point x="222" y="781" type="line"/>
      <point x="262" y="720" type="line"/>
      <point x="301" y="781" type="line"/>
      <point x="381" y="781" type="line"/>
      <point x="306" y="661" type="line"/>
    </contour>
    <contour>
      <point x="53" y="606" type="line"/>
      <point x="307" y="606" type="line" smooth="yes"/>
      <point x="430" y="606"/>
      <point x="492" y="533"/>
      <point x="492" y="433" type="curve" smooth="yes"/>
      <point x="492" y="360"/>
      <point x="453" y="303"/>
      <point x="391" y="278" type="curve"/>
      <point x="507" y="0" type="line"/>
      <point x="385" y="0" type="line"/>
      <point x="284" y="253" type="line"/>
      <point x="166" y="253" type="line"/>
      <point x="166" y="0" type="line"/>
      <point x="53" y="0" type="line"/>
    </contour>
    <contour>
      <point x="166" y="353" type="line"/>
      <point x="291" y="353" type="line" smooth="yes"/>
      <point x="346" y="353"/>
      <point x="370" y="383"/>
      <point x="370" y="433" type="curve" smooth="yes"/>
      <point x="370" y="477"/>
      <point x="347" y="506"/>
      <point x="295" y="506" type="curve" smooth="yes"/>
      <point x="166" y="506" type="line"/>
    </contour>
  </outline>
</glyph>
<glyph name="sacute" format="1">
  <advance width="403"/>
  <unicode hex="015B"/>
  <outline>
    <contour>
      <point x="228" y="522" type="line"/>
      <point x="141" y="522" type="line"/>
      <point x="217" y="639" type="line"/>
      <point x="323" y="639" type="line"/>
      <point x="324" y="636" type="line"/>
    </contour>
    <contour>
      <point x="202" y="476" type="curve" smooth="yes"/>
      <point x="291" y="476"/>
      <point x="360" y="429"/>
      <point x="360" y="349" type="curve" smooth="yes"/>
      <point x="360" y="339"/>
      <point x="359" y="330"/>
      <point x="359" y="329" type="curve" smooth="yes"/>
      <point x="251" y="329" type="line"/>
      <point x="251" y="331" type="line" smooth="yes"/>
      <point x="250" y="370"/>
      <point x="231" y="389"/>
      <point x="199" y="389" type="curve" smooth="yes"/>
      <point x="166" y="389"/>
      <point x="144" y="371"/>
      <point x="144" y="343" type="curve" smooth="yes"/>
      <point x="144" y="253"/>
      <point x="371" y="324"/>
      <point x="371" y="140" type="curve" smooth="yes"/>
      <point x="371" y="27"/>
      <point x="297" y="-11"/>
      <point x="198" y="-11" type="curve" smooth="yes"/>
      <point x="91" y="-11"/>
      <point x="29" y="49"/>
      <point x="29" y="137" type="curve" smooth="yes"/>
      <point x="29" y="141"/>
      <point x="30" y="148"/>
      <point x="30" y="148" type="curve"/>
      <point x="138" y="148" type="line"/>
      <point x="138" y="141" type="line" smooth="yes"/>
      <point x="139" y="92"/>
      <point x="171" y="76"/>
      <point x="202" y="76" type="curve" smooth="yes"/>
      <point x="230" y="76"/>
      <point x="263" y="88"/>
      <point x="263" y="126" type="curve" smooth="yes"/>
      <point x="263" y="225"/>
      <point x="36" y="155"/>
      <point x="36" y="334" type="curve" smooth="yes"/>
      <point x="36" y="429"/>
      <point x="110" y="476"/>
    </contour>
  </outline>
</glyph>
<glyph name="Scircumflex" format="1">
  <advance width="484"/>
  <unicode hex="015C"/>
  <outline>
    <contour>
      <point x="242" y="722" type="line"/>
      <point x="202" y="661" type="line"/>
      <point x="123" y="661" type="line"/>
      <point x="199" y="781" type="line"/>
      <point x="286" y="781" type="line"/>
      <point x="361" y="661" type="line"/>
      <point x="281" y="661" type="line"/>
    </contour>
    <contour>
      <point x="241" y="617" type="curve" smooth="yes"/>
      <point x="349" y="617"/>
      <point x="438" y="563"/>
      <point x="438" y="438" type="curve" smooth="yes"/>
      <point x="438" y="428" type="line"/>
      <point x="323" y="428" type="line"/>
      <point x="323" y="436" type="line" smooth="yes"/>
      <point x="323" y="487"/>
      <point x="292" y="520"/>
      <point x="240" y="520" type="curve" smooth="yes"/>
      <point x="186" y="520"/>
      <point x="156" y="492"/>
      <point x="156" y="455" type="curve" smooth="yes"/>
      <point x="156" y="332"/>
      <point x="450" y="405"/>
      <point x="450" y="182" type="curve" smooth="yes"/>
      <point x="450" y="43"/>
      <point x="362" y="-11"/>
      <point x="236" y="-11" type="curve" smooth="yes"/>
      <point x="125" y="-11"/>
      <point x="27" y="53"/>
      <point x="27" y="178" type="curve" smooth="yes"/>
      <point x="27" y="197" type="line"/>
      <point x="145" y="197" type="line"/>
      <point x="144" y="183" type="line"/>
      <point x="144" y="126"/>
      <point x="179" y="87"/>
      <point x="241" y="87" type="curve" smooth="yes"/>
      <point x="309" y="87"/>
      <point x="333" y="123"/>
      <point x="333" y="158" type="curve" smooth="yes"/>
      <point x="333" y="302"/>
      <point x="39" y="217"/>
      <point x="39" y="447" type="curve" smooth="yes"/>
      <point x="39" y="562"/>
      <point x="134" y="617"/>
    </contour>
  </outline>
</glyph>
<glyph name="Tcedilla" format="1">
  <advance width="443"/>
  <unicode hex="0162"/>
  <outline>
    <contour>
      <point x="222" y="0" type="move" name="Anchor-1"/>
    </contour>
    <contour>
      <point x="222" y="606" type="move" name="Anchor-0"/>
    </contour>
    <contour>
      <point x="240" y="0" type="line"/>
      <point x="237" y="-29" type="line"/>
      <point x="275" y="-32"/>
      <point x="306" y="-49"/>
      <point x="306" y="-89" type="curve" smooth="yes"/>
      <point x="306" y="-149"/>
      <point x="248" y="-161"/>
      <point x="210" y="-161" type="curve" smooth="yes"/>
      <point x="185" y="-161"/>
      <point x="157" y="-158"/>
      <point x="136" y="-154" type="curve"/>
      <point x="136" y="-111" type="line"/>
      <point x="199" y="-111" type="line" smooth="yes"/>
      <point x="218" y="-111"/>
      <point x="230" y="-106"/>
      <point x="230" y="-89" type="curve" smooth="yes"/>
      <point x="230" y="-75"/>
      <point x="223" y="-68"/>
      <point x="200" y="-68" type="curve" smooth="yes"/>
      <point x="171" y="-68" type="line"/>
      <point x="180" y="0" type="line"/>
      <point x="165" y="0" type="line"/>
      <point x="165" y="506" type="line"/>
      <point x="15" y="506" type="line"/>
      <point x="15" y="606" type="line"/>
      <point x="429" y="606" type="line"/>
      <point x="429" y="506" type="line"/>
      <point x="278" y="506" type="line"/>
      <point x="278" y="0" type="line"/>
    </contour>
  </outline>
</glyph>
<glyph name="tcedilla" format="1">
  <advance width="241"/>
  <unicode hex="0163"/>
  <outline>
    <contour>
      <point x="146" y="0" type="move" name="Anchor-1"/>
    </contour>
    <contour>
      <point x="0" y="0" type="move" name="Anchor-0"/>
    </contour>
    <contour>
      <point x="163" y="-11" type="line"/>
      <point x="161" y="-29" type="line"/>
      <point x="199" y="-32"/>
      <point x="230" y="-49"/>
      <point x="230" y="-89" type="curve" smooth="yes"/>
      <point x="230" y="-149"/>
      <point x="172" y="-161"/>
      <point x="134" y="-161" type="curve" smooth="yes"/>
      <point x="109" y="-161"/>
      <point x="81" y="-158"/>
      <point x="60" y="-154" type="curve"/>
      <point x="60" y="-111" type="line"/>
      <point x="123" y="-111" type="line" smooth="yes"/>
      <point x="142" y="-111"/>
      <point x="154" y="-106"/>
      <point x="154" y="-89" type="curve" smooth="yes"/>
      <point x="154" y="-75"/>
      <point x="147" y="-68"/>
      <point x="124" y="-68" type="curve" smooth="yes"/>
      <point x="95" y="-68" type="line"/>
      <point x="104" y="4" type="line"/>
      <point x="67" y="26"/>
      <point x="55" y="70"/>
      <point x="55" y="114" type="curve" smooth="yes"/>
      <point x="55" y="376" type="line"/>
      <point x="8" y="376" type="line"/>
      <point x="8" y="465" type="line"/>
      <point x="55" y="465" type="line"/>
      <point x="71" y="596" type="line"/>
      <point x="161" y="596" type="line"/>
      <point x="161" y="465" type="line"/>
      <point x="228" y="465" type="line"/>
      <point x="228" y="376" type="line"/>
      <point x="161" y="376" type="line"/>
      <point x="161" y="117" type="line" smooth="yes"/>
      <point x="161" y="92"/>
      <point x="174" y="79"/>
      <point x="198" y="79" type="curve" smooth="yes"/>
      <point x="228" y="79" type="line"/>
      <point x="228" y="0" type="line"/>
      <point x="213" y="-5"/>
      <point x="185" y="-11"/>
      <point x="164" y="-11" type="curve" smooth="yes"/>
    </contour>
  </outline>
</glyph>
<glyph name="Tbar" format="1">
  <advance width="443"/>
  <unicode hex="0166"/>
  <outline>
    <contour>
      <point x="278" y="506" type="line"/>
      <point x="278" y="347" type="line"/>
      <point x="377" y="347" type="line"/>
      <point x="377" y="271" type="line"/>
      <point x="278" y="271" type="line"/>
      <point x="278" y="0" type="line"/>
      <point x="165" y="0" type="line"/>
      <point x="165" y="271" type="line"/>
      <point x="65" y="271" type="line"/>
      <point x="65" y="347" type="line"/>
      <point x="165" y="347" type="line"/>
      <point x="165" y="506" type="line"/>
      <point x="15" y="506" type="line"/>
      <point x="15" y="606" type="line"/>
      <point x="429" y="606" type="line"/>
      <point x="429" y="506" type="line"/>
    </contour>
  </outline>
</glyph>
<glyph name="utilde" format="1">
  <advance width="443"/>
  <unicode hex="0169"/>
  <outline>
    <contour>
      <point x="312" y="639" type="curve"/>
      <point x="370" y="639" type="line"/>
      <point x="370" y="591"/>
      <point x="346" y="531"/>
      <point x="283" y="531" type="curve" smooth="yes"/>
      <point x="240" y="531"/>
      <point x="206" y="564"/>
      <point x="166" y="564" type="curve" smooth="yes"/>
      <point x="148" y="564"/>
      <point x="135" y="555"/>
      <point x="132" y="531" type="curve"/>
      <point x="73" y="531" type="line"/>
      <point x="73" y="580"/>
      <point x="98" y="639"/>
      <point x="160" y="639" type="curve" smooth="yes"/>
      <point x="203" y="639"/>
      <point x="238" y="606"/>
      <point x="278" y="606" type="curve" smooth="yes"/>
      <point x="296" y="606"/>
      <point x="309" y="614"/>
    </contour>
    <contour>
      <point x="295" y="57" type="line"/>
      <point x="290" y="57" type="line"/>
      <point x="266" y="21"/>
      <point x="228" y="-11"/>
      <point x="172" y="-11" type="curve" smooth="yes"/>
      <point x="101" y="-11"/>
      <point x="49" y="29"/>
      <point x="49" y="139" type="curve" smooth="yes"/>
      <point x="49" y="465" type="line"/>
      <point x="155" y="465" type="line"/>
      <point x="155" y="168" type="line" smooth="yes"/>
      <point x="155" y="108"/>
      <point x="176" y="86"/>
      <point x="216" y="86" type="curve" smooth="yes"/>
      <point x="257" y="86"/>
      <point x="288" y="125"/>
      <point x="288" y="177" type="curve" smooth="yes"/>
      <point x="288" y="465" type="line"/>
      <point x="394" y="465" type="line"/>
      <point x="394" y="0" type="line"/>
      <point x="306" y="0" type="line"/>
    </contour>
  </outline>
</glyph>
<glyph name="Uhungarumlaut" format="1">
  <advance width="523"/>
  <unicode hex="0170"/>
  <outline>
    <contour>
      <point x="232" y="664" type="line"/>
      <point x="162" y="664" type="line"/>
      <point x="217" y="781" type="line"/>
      <point x="305" y="781" type="line"/>
      <point x="306" y="778" type="line"/>
    </contour>
    <contour>
      <point x="355" y="664" type="line"/>
      <point x="286" y="664" type="line"/>
      <point x="340" y="781" type="line"/>
      <point x="429" y="781" type="line"/>
      <point x="430" y="778" type="line"/>
    </contour>
    <contour>
      <point x="470" y="606" type="line"/>
      <point x="470" y="190" type="line" smooth="yes"/>
      <point x="470" y="58"/>
      <point x="392" y="-11"/>
      <point x="262" y="-11" type="curve" smooth="yes"/>
      <point x="132" y="-11"/>
      <point x="54" y="58"/>
      <point x="54" y="190" type="curve" smooth="yes"/>
      <point x="54" y="606" type="line"/>
      <point x="167" y="606" type="line"/>
      <point x="167" y="194" type="line" smooth="yes"/>
      <point x="167" y="124"/>
      <point x="202" y="87"/>
      <point x="262" y="87" type="curve" smooth="yes"/>
      <point x="322" y="87"/>
      <point x="357" y="124"/>
      <point x="357" y="194" type="curve" smooth="yes"/>
      <point x="357" y="606" type="line"/>
    </contour>
  </outline>
</glyph>
<glyph name="Uogonek" format="1">
  <advance width="523"/>
  <unicode hex="0172"/>
  <outline>
    <contour>
      <point x="470" y="606" type="line"/>
      <point x="470" y="197" type="line" smooth="yes"/>
      <point x="470" y="97"/>
      <point x="430" y="32"/>
      <point x="358" y="4" type="curve"/>
      <point x="347" y="-8"/>
      <point x="331" y="-33"/>
      <point x="331" y="-57" type="curve" smooth="yes"/>
      <point x="331" y="-80"/>
      <point x="342" y="-103"/>
      <point x="371" y="-103" type="curve" smooth="yes"/>
      <point x="391" y="-103" type="line"/>
      <point x="391" y="-151" type="line"/>
      <point x="370" y="-159"/>
      <point x="352" y="-164"/>
      <point x="332" y="-164" type="curve" smooth="yes"/>
      <point x="292" y="-164"/>
      <point x="245" y="-145"/>
      <point x="245" y="-84" type="curve" smooth="yes"/>
      <point x="245" y="-53"/>
      <point x="256" y="-30"/>
      <point x="270" y="-11" type="curve"/>
      <point x="262" y="-11" type="line" smooth="yes"/>
      <point x="132" y="-11"/>
      <point x="54" y="61"/>
      <point x="54" y="197" type="curve" smooth="yes"/>
      <point x="54" y="606" type="line"/>
      <point x="167" y="606" type="line"/>
      <point x="167" y="201" type="line" smooth="yes"/>
      <point x="167" y="126"/>
      <point x="202" y="87"/>
      <point x="262" y="87" type="curve" smooth="yes"/>
      <point x="322" y="87"/>
      <point x="357" y="126"/>
      <point x="357" y="201" type="curve" smooth="yes"/>
      <point x="357" y="606" type="line"/>
    </contour>
  </outline>
</glyph>
<glyph name="uogonek" format="1">
  <advance width="443"/>
  <unicode hex="0173"/>
  <outline>
    <contour>
      <point x="427" y="-107" type="line"/>
      <point x="427" y="-156" type="line"/>
      <point x="407" y="-164"/>
      <point x="388" y="-168"/>
      <point x="369" y="-168" type="curve" smooth="yes"/>
      <point x="328" y="-168"/>
      <point x="281" y="-149"/>
      <point x="281" y="-88" type="curve" smooth="yes"/>
      <point x="281" y="-47"/>
      <point x="299" y="-22"/>
      <point x="320" y="0" type="curve"/>
      <point x="306" y="0" type="line"/>
      <point x="295" y="57" type="line"/>
      <point x="290" y="57" type="line"/>
      <point x="266" y="21"/>
      <point x="228" y="-11"/>
      <point x="172" y="-11" type="curve" smooth="yes"/>
      <point x="101" y="-11"/>
      <point x="49" y="29"/>
      <point x="49" y="139" type="curve" smooth="yes"/>
      <point x="49" y="465" type="line"/>
      <point x="155" y="465" type="line"/>
      <point x="155" y="168" type="line" smooth="yes"/>
      <point x="155" y="108"/>
      <point x="176" y="86"/>
      <point x="216" y="86" type="curve" smooth="yes"/>
      <point x="257" y="86"/>
      <point x="288" y="125"/>
      <point x="288" y="177" type="curve" smooth="yes"/>
      <point x="288" y="465" type="line"/>
      <point x="394" y="465" type="line"/>
      <point x="394" y="0" type="line"/>
      <point x="384" y="-12"/>
      <point x="368" y="-37"/>
      <point x="368" y="-62" type="curve" smooth="yes"/>
      <point x="368" y="-85"/>
      <point x="378" y="-107"/>
      <point x="408" y="-107" type="curve" smooth="yes"/>
    </contour>
  </outline>
</glyph>
<glyph name="Zdotaccent" format="1">
  <advance width="443"/>
  <unicode hex="017B"/>
  <outline>
    <contour>
      <point x="174" y="679" type="line"/>
      <point x="174" y="781" type="line"/>
      <point x="269" y="781" type="line"/>
      <point x="269" y="679" type="line"/>
    </contour>
    <contour>
      <point x="169" y="101" type="line"/>
      <point x="424" y="101" type="line"/>
      <point x="424" y="0" type="line"/>
      <point x="14" y="0" type="line"/>
      <point x="14" y="43" type="line"/>
      <point x="263" y="506" type="line"/>
      <point x="33" y="506" type="line"/>
      <point x="33" y="606" type="line"/>
      <point x="418" y="606" type="line"/>
      <point x="418" y="562" type="line"/>
    </contour>
  </outline>
</glyph>
<glyph name="zdotaccent" format="1">
  <advance width="362"/>
  <unicode hex="017C"/>
  <outline>
    <contour>
      <point x="134" y="639" type="line"/>
      <point x="229" y="639" type="line"/>
      <point x="229" y="537" type="line"/>
      <point x="134" y="537" type="line"/>
    </contour>
    <contour>
      <point x="347" y="89" type="line"/>
      <point x="347" y="0" type="line"/>
      <point x="16" y="0" type="line"/>
      <point x="16" y="45" type="line"/>
      <point x="196" y="376" type="line"/>
      <point x="27" y="376" type="line"/>
      <point x="27" y="465" type="line"/>
      <point x="340" y="465" type="line"/>
      <point x="340" y="421" type="line"/>
      <point x="159" y="89" type="line"/>
    </contour>
  </outline>
</glyph>
<glyph name="Aringacute" format="1">
  <advance width="523"/>
  <unicode hex="01FA"/>
  <outline>
    <contour>
      <point x="224" y="750" type="line"/>
      <point x="286" y="846" type="line"/>
      <point x="392" y="846" type="line"/>
      <point x="392" y="843" type="line"/>
      <point x="311" y="750" type="line"/>
    </contour>
    <contour>
      <point x="262" y="726" type="curve" smooth="yes"/>
      <point x="309" y="726"/>
      <point x="347" y="688"/>
      <point x="347" y="644" type="curve" smooth="yes"/>
      <point x="347" y="626"/>
      <point x="340" y="609"/>
      <point x="331" y="595" type="curve"/>
      <point x="522" y="0" type="line"/>
      <point x="407" y="0" type="line"/>
      <point x="370" y="119" type="line"/>
      <point x="146" y="119" type="line"/>
      <point x="110" y="0" type="line"/>
      <point x="0" y="0" type="line"/>
      <point x="192" y="596" type="line"/>
      <point x="182" y="609"/>
      <point x="177" y="626"/>
      <point x="177" y="644" type="curve" smooth="yes"/>
      <point x="177" y="689"/>
      <point x="215" y="726"/>
    </contour>
    <contour>
      <point x="262" y="682" type="curve" smooth="yes"/>
      <point x="239" y="682"/>
      <point x="221" y="666"/>
      <point x="221" y="644" type="curve" smooth="yes"/>
      <point x="221" y="621"/>
      <point x="239" y="604"/>
      <point x="262" y="604" type="curve" smooth="yes"/>
      <point x="284" y="604"/>
      <point x="302" y="621"/>
      <point x="302" y="644" type="curve" smooth="yes"/>
      <point x="302" y="666"/>
      <point x="284" y="682"/>
    </contour>
    <contour>
      <point x="260" y="505" type="curve"/>
      <point x="256" y="505" type="line"/>
      <point x="256" y="505"/>
      <point x="248" y="451"/>
      <point x="239" y="423" type="curve" smooth="yes"/>
      <point x="177" y="220" type="line"/>
      <point x="339" y="220" type="line"/>
      <point x="278" y="423" type="line" smooth="yes"/>
      <point x="268" y="454"/>
      <point x="260" y="505"/>
    </contour>
  </outline>
</glyph>
<glyph name="oslashacute" format="1">
  <advance width="443"/>
  <unicode hex="01FF"/>
  <outline>
    <contour>
      <point x="248" y="522" type="line"/>
      <point x="161" y="522" type="line"/>
      <point x="237" y="639" type="line"/>
      <point x="343" y="639" type="line"/>
      <point x="344" y="636" type="line"/>
    </contour>
    <contour>
      <point x="396" y="493" type="line"/>
      <point x="357" y="422" type="line"/>
      <point x="391" y="382"/>
      <point x="408" y="319"/>
      <point x="408" y="232" type="curve" smooth="yes"/>
      <point x="408" y="65"/>
      <point x="346" y="-11"/>
      <point x="222" y="-11" type="curve" smooth="yes"/>
      <point x="187" y="-11"/>
      <point x="157" y="-4"/>
      <point x="132" y="8" type="curve"/>
      <point x="112" y="-28" type="line"/>
      <point x="46" y="-28" type="line"/>
      <point x="86" y="44" type="line"/>
      <point x="53" y="84"/>
      <point x="36" y="146"/>
      <point x="36" y="232" type="curve" smooth="yes"/>
      <point x="36" y="400"/>
      <point x="98" y="476"/>
      <point x="222" y="476" type="curve" smooth="yes"/>
      <point x="256" y="476"/>
      <point x="286" y="469"/>
      <point x="310" y="457" type="curve"/>
      <point x="330" y="493" type="line"/>
    </contour>
    <contour>
      <point x="222" y="386" type="curve" smooth="yes"/>
      <point x="167" y="386"/>
      <point x="147" y="339"/>
      <point x="147" y="249" type="curve" smooth="yes"/>
      <point x="147" y="216" type="line" smooth="yes"/>
      <point x="147" y="195"/>
      <point x="148" y="178"/>
      <point x="149" y="162" type="curve"/>
      <point x="263" y="372" type="line"/>
      <point x="253" y="381"/>
      <point x="239" y="386"/>
    </contour>
    <contour>
      <point x="293" y="305" type="curve"/>
      <point x="179" y="94" type="line"/>
      <point x="190" y="84"/>
      <point x="204" y="79"/>
      <point x="222" y="79" type="curve" smooth="yes"/>
      <point x="277" y="79"/>
      <point x="297" y="126"/>
      <point x="297" y="216" type="curve" smooth="yes"/>
      <point x="297" y="249" type="line" smooth="yes"/>
      <point x="297" y="270"/>
      <point x="295" y="288"/>
    </contour>
  </outline>
</glyph>
<glyph name="circumflex" format="1">
  <advance width="241"/>
  <unicode hex="02C6"/>
  <outline>
    <contour>
      <point x="119" y="581" type="line"/>
      <point x="80" y="520" type="line"/>
      <point x="0" y="520" type="line"/>
      <point x="76" y="639" type="line"/>
      <point x="163" y="639" type="line"/>
      <point x="238" y="520" type="line"/>
      <point x="158" y="520" type="line"/>
    </contour>
  </outline>
</glyph>
<glyph name="firsttonechinese" format="1">
  <advance width="442"/>
  <unicode hex="02C9"/>
  <outline>
    <contour>
      <point x="0" y="760" type="line"/>
      <point x="442" y="760" type="line"/>
      <point x="442" y="699" type="line"/>
      <point x="0" y="699" type="line"/>
    </contour>
  </outline>
</glyph>
<glyph name="ring" format="1">
  <advance width="241"/>
  <unicode hex="02DA"/>
  <outline>
    <contour>
      <point x="123" y="666" type="curve" smooth="yes"/>
      <point x="171" y="666"/>
      <point x="208" y="627"/>
      <point x="208" y="581" type="curve" smooth="yes"/>
      <point x="208" y="534"/>
      <point x="170" y="496"/>
      <point x="123" y="496" type="curve" smooth="yes"/>
      <point x="77" y="496"/>
      <point x="38" y="533"/>
      <point x="38" y="581" type="curve" smooth="yes"/>
      <point x="38" y="628"/>
      <point x="76" y="666"/>
    </contour>
    <contour>
      <point x="123" y="621" type="curve" smooth="yes"/>
      <point x="100" y="621"/>
      <point x="82" y="604"/>
      <point x="82" y="581" type="curve" smooth="yes"/>
      <point x="82" y="558"/>
      <point x="100" y="540"/>
      <point x="123" y="540" type="curve" smooth="yes"/>
      <point x="145" y="540"/>
      <point x="164" y="558"/>
      <point x="164" y="581" type="curve" smooth="yes"/>
      <point x="164" y="604"/>
      <point x="145" y="621"/>
    </contour>
  </outline>
</glyph>
<glyph name="ogonek" format="1">
  <advance width="241"/>
  <unicode hex="02DB"/>
  <outline>
    <contour>
      <point x="166" y="11" type="line"/>
      <point x="168" y="7" type="line"/>
      <point x="157" y="-5"/>
      <point x="141" y="-30"/>
      <point x="141" y="-55" type="curve" smooth="yes"/>
      <point x="141" y="-78"/>
      <point x="152" y="-100"/>
      <point x="181" y="-100" type="curve" smooth="yes"/>
      <point x="201" y="-100" type="line"/>
      <point x="201" y="-149" type="line"/>
      <point x="180" y="-156"/>
      <point x="162" y="-161"/>
      <point x="142" y="-161" type="curve" smooth="yes"/>
      <point x="102" y="-161"/>
      <point x="55" y="-142"/>
      <point x="55" y="-81" type="curve" smooth="yes"/>
      <point x="55" y="-38"/>
      <point x="75" y="-12"/>
      <point x="97" y="11" type="curve"/>
    </contour>
  </outline>
</glyph>
<glyph name="tilde" format="1">
  <advance width="241"/>
  <unicode hex="02DC"/>
  <outline>
    <contour>
      <point x="210" y="639" type="curve"/>
      <point x="269" y="639" type="line"/>
      <point x="269" y="591"/>
      <point x="244" y="531"/>
      <point x="181" y="531" type="curve" smooth="yes"/>
      <point x="139" y="531"/>
      <point x="104" y="564"/>
      <point x="65" y="564" type="curve" smooth="yes"/>
      <point x="46" y="564"/>
      <point x="34" y="555"/>
      <point x="30" y="531" type="curve"/>
      <point x="-28" y="531" type="line"/>
      <point x="-28" y="580"/>
      <point x="-4" y="639"/>
      <point x="58" y="639" type="curve" smooth="yes"/>
      <point x="102" y="639"/>
      <point x="136" y="606"/>
      <point x="176" y="606" type="curve" smooth="yes"/>
      <point x="194" y="606"/>
      <point x="207" y="614"/>
    </contour>
  </outline>
</glyph>
<glyph name="invertedCandraBindudeva" format="1">
  <advance width="0"/>
  <unicode hex="0900"/>
  <outline>
    <contour>
      <point x="49" y="668" type="curve"/>
      <point x="-31" y="668" type="line"/>
      <point x="-31" y="735"/>
      <point x="-58" y="763"/>
      <point x="-122" y="763" type="curve" smooth="yes"/>
      <point x="-185" y="763"/>
      <point x="-212" y="735"/>
      <point x="-212" y="668" type="curve"/>
      <point x="-291" y="668" type="line"/>
      <point x="-291" y="762"/>
      <point x="-230" y="827"/>
      <point x="-122" y="827" type="curve" smooth="yes"/>
      <point x="-12" y="827"/>
      <point x="49" y="762"/>
    </contour>
    <contour>
      <point x="-82" y="717" type="line"/>
      <point x="-82" y="634" type="line"/>
      <point x="-165" y="634" type="line"/>
      <point x="-165" y="717" type="line"/>
    </contour>
  </outline>
</glyph>
<glyph name="candraBindudeva" format="1">
  <advance width="0"/>
  <unicode hex="0901"/>
  <outline>
    <contour>
      <point x="-121" y="606" type="move" name="_Anchor-5"/>
    </contour>
    <contour>
      <point x="-121" y="606" type="move" name="_Anchor-2"/>
    </contour>
    <contour>
      <point x="-121" y="606" type="move" name="_Anchor-0"/>
    </contour>
    <contour>
      <point x="-82" y="827" type="line"/>
      <point x="-82" y="744" type="line"/>
      <point x="-165" y="744" type="line"/>
      <point x="-165" y="827" type="line"/>
    </contour>
    <contour>
      <point x="-31" y="793" type="curve"/>
      <point x="49" y="793" type="line"/>
      <point x="49" y="699"/>
      <point x="-12" y="634"/>
      <point x="-122" y="634" type="curve" smooth="yes"/>
      <point x="-230" y="634"/>
      <point x="-291" y="699"/>
      <point x="-291" y="793" type="curve"/>
      <point x="-212" y="793" type="line"/>
      <point x="-212" y="726"/>
      <point x="-185" y="698"/>
      <point x="-122" y="698" type="curve" smooth="yes"/>
      <point x="-58" y="698"/>
      <point x="-31" y="726"/>
    </contour>
  </outline>
</glyph>
<glyph name="anusvaradeva" format="1">
  <advance width="0"/>
  <unicode hex="0902"/>
  <outline>
    <contour>
      <point x="-123" y="606" type="move" name="_Anchor-5"/>
    </contour>
    <contour>
      <point x="-123" y="606" type="move" name="_Anchor-2"/>
    </contour>
    <contour>
      <point x="-123" y="606" type="move" name="_Anchor-0"/>
    </contour>
    <contour>
      <point x="-81" y="742" type="line"/>
      <point x="-81" y="659" type="line"/>
      <point x="-164" y="659" type="line"/>
      <point x="-164" y="742" type="line"/>
    </contour>
  </outline>
</glyph>
<glyph name="aShortdeva" format="1">
  <advance width="623"/>
  <unicode hex="0904"/>
  <outline>
    <contour>
      <point x="503" y="0" type="move" name="Anchor-3"/>
    </contour>
    <contour>
      <point x="556" y="513" type="line"/>
      <point x="556" y="0" type="line"/>
      <point x="450" y="0" type="line"/>
      <point x="450" y="218" type="line"/>
      <point x="335" y="218" type="line"/>
      <point x="336" y="213"/>
      <point x="336" y="207"/>
      <point x="336" y="202" type="curve" smooth="yes"/>
      <point x="336" y="103"/>
      <point x="275" y="42"/>
      <point x="179" y="42" type="curve" smooth="yes"/>
      <point x="84" y="42"/>
      <point x="26" y="100"/>
      <point x="26" y="189" type="curve" smooth="yes"/>
      <point x="26" y="210" type="line"/>
      <point x="137" y="210" type="line"/>
      <point x="137" y="186" type="line" smooth="yes"/>
      <point x="137" y="150"/>
      <point x="154" y="131"/>
      <point x="181" y="131" type="curve" smooth="yes"/>
      <point x="208" y="131"/>
      <point x="225" y="153"/>
      <point x="225" y="207" type="curve" smooth="yes"/>
      <point x="225" y="273"/>
      <point x="199" y="290"/>
      <point x="169" y="290" type="curve" smooth="yes"/>
      <point x="141" y="290" type="line"/>
      <point x="141" y="378" type="line"/>
      <point x="171" y="378" type="line" smooth="yes"/>
      <point x="200" y="378"/>
      <point x="218" y="405"/>
      <point x="218" y="464" type="curve" smooth="yes"/>
      <point x="218" y="507"/>
      <point x="208" y="529"/>
      <point x="181" y="529" type="curve" smooth="yes"/>
      <point x="156" y="529"/>
      <point x="146" y="508"/>
      <point x="146" y="471" type="curve" smooth="yes"/>
      <point x="146" y="453" type="line"/>
      <point x="36" y="453" type="line"/>
      <point x="36" y="479" type="line" smooth="yes"/>
      <point x="36" y="563"/>
      <point x="95" y="617"/>
      <point x="181" y="617" type="curve" smooth="yes"/>
      <point x="270" y="617"/>
      <point x="328" y="563"/>
      <point x="328" y="466" type="curve" smooth="yes"/>
      <point x="328" y="402"/>
      <point x="302" y="365"/>
      <point x="260" y="340" type="curve"/>
      <point x="260" y="337" type="line"/>
      <point x="274" y="331"/>
      <point x="287" y="323"/>
      <point x="298" y="311" type="curve"/>
      <point x="450" y="311" type="line"/>
      <point x="450" y="513" type="line"/>
      <point x="379" y="513" type="line"/>
      <point x="379" y="606" type="line"/>
      <point x="449" y="606" type="line"/>
      <point x="449" y="662" type="line" smooth="yes"/>
      <point x="449" y="680"/>
      <point x="440" y="687"/>
      <point x="420" y="687" type="curve" smooth="yes"/>
      <point x="191" y="687" type="line" smooth="yes"/>
      <point x="97" y="687"/>
      <point x="57" y="722"/>
      <point x="57" y="805" type="curve" smooth="yes"/>
      <point x="57" y="827" type="line"/>
      <point x="163" y="827" type="line"/>
      <point x="163" y="805" type="line" smooth="yes"/>
      <point x="163" y="787"/>
      <point x="171" y="779"/>
      <point x="191" y="779" type="curve" smooth="yes"/>
      <point x="420" y="779" type="line" smooth="yes"/>
      <point x="515" y="779"/>
      <point x="555" y="744"/>
      <point x="555" y="662" type="curve" smooth="yes"/>
      <point x="555" y="606" type="line"/>
      <point x="632" y="606" type="line"/>
      <point x="632" y="513" type="line"/>
    </contour>
  </outline>
</glyph>
<glyph name="ideva" format="1">
  <advance width="432"/>
  <unicode hex="0907"/>
  <outline>
    <contour>
      <point x="231" y="0" type="move" name="Anchor-3"/>
    </contour>
    <contour>
      <point x="308" y="606" type="move" name="Anchor-2"/>
    </contour>
    <contour>
      <point x="361" y="354" type="line"/>
      <point x="224" y="354" type="line" smooth="yes"/>
      <point x="192" y="354"/>
      <point x="173" y="342"/>
      <point x="173" y="316" type="curve" smooth="yes"/>
      <point x="173" y="286"/>
      <point x="198" y="281"/>
      <point x="240" y="279" type="curve" smooth="yes"/>
      <point x="314" y="277"/>
      <point x="390" y="250"/>
      <point x="390" y="140" type="curve" smooth="yes"/>
      <point x="390" y="29"/>
      <point x="308" y="-11"/>
      <point x="226" y="-11" type="curve" smooth="yes"/>
      <point x="186" y="-11"/>
      <point x="154" y="-4"/>
      <point x="130" y="10" type="curve"/>
      <point x="130" y="-80" type="line"/>
      <point x="33" y="-80" type="line"/>
      <point x="33" y="148" type="line"/>
      <point x="139" y="148" type="line"/>
      <point x="139" y="141" type="line" smooth="yes"/>
      <point x="139" y="93"/>
      <point x="180" y="76"/>
      <point x="212" y="76" type="curve" smooth="yes"/>
      <point x="248" y="76"/>
      <point x="282" y="94"/>
      <point x="282" y="135" type="curve" smooth="yes"/>
      <point x="282" y="183"/>
      <point x="246" y="186"/>
      <point x="215" y="188" type="curve" smooth="yes"/>
      <point x="152" y="191"/>
      <point x="65" y="212"/>
      <point x="65" y="315" type="curve" smooth="yes"/>
      <point x="65" y="411"/>
      <point x="135" y="447"/>
      <point x="228" y="447" type="curve" smooth="yes"/>
      <point x="255" y="447" type="line"/>
      <point x="255" y="513" type="line"/>
      <point x="-10" y="513" type="line"/>
      <point x="-10" y="606" type="line"/>
      <point x="442" y="606" type="line"/>
      <point x="442" y="513" type="line"/>
      <point x="361" y="513" type="line"/>
    </contour>
  </outline>
</glyph>
<glyph name="uudeva" format="1">
  <advance width="598"/>
  <unicode hex="090A"/>
  <outline>
    <contour>
      <point x="608" y="513" type="line"/>
      <point x="323" y="513" type="line"/>
      <point x="333" y="495"/>
      <point x="339" y="473"/>
      <point x="339" y="448" type="curve" smooth="yes"/>
      <point x="339" y="395"/>
      <point x="310" y="356"/>
      <point x="263" y="331" type="curve"/>
      <point x="263" y="328" type="line"/>
      <point x="278" y="322"/>
      <point x="291" y="312"/>
      <point x="302" y="299" type="curve"/>
      <point x="321" y="343"/>
      <point x="361" y="374"/>
      <point x="422" y="374" type="curve" smooth="yes"/>
      <point x="513" y="374"/>
      <point x="578" y="317"/>
      <point x="578" y="207" type="curve" smooth="yes"/>
      <point x="578" y="92"/>
      <point x="511" y="42"/>
      <point x="417" y="42" type="curve" smooth="yes"/>
      <point x="412" y="42"/>
      <point x="407" y="43"/>
      <point x="400" y="44" type="curve"/>
      <point x="400" y="139" type="line"/>
      <point x="408" y="139" type="line" smooth="yes"/>
      <point x="447" y="139"/>
      <point x="470" y="163"/>
      <point x="470" y="203" type="curve" smooth="yes"/>
      <point x="470" y="214" type="line" smooth="yes"/>
      <point x="470" y="253"/>
      <point x="449" y="277"/>
      <point x="413" y="277" type="curve" smooth="yes"/>
      <point x="361" y="277"/>
      <point x="355" y="232"/>
      <point x="345" y="181" type="curve" smooth="yes"/>
      <point x="332" y="116"/>
      <point x="310" y="43"/>
      <point x="185" y="42" type="curve" smooth="yes"/>
      <point x="87" y="42"/>
      <point x="23" y="104"/>
      <point x="23" y="186" type="curve" smooth="yes"/>
      <point x="23" y="197"/>
      <point x="24" y="206"/>
      <point x="26" y="215" type="curve"/>
      <point x="132" y="215" type="line"/>
      <point x="132" y="193" type="line" smooth="yes"/>
      <point x="132" y="151"/>
      <point x="151" y="131"/>
      <point x="191" y="131" type="curve" smooth="yes"/>
      <point x="225" y="131"/>
      <point x="247" y="153"/>
      <point x="247" y="204" type="curve" smooth="yes"/>
      <point x="247" y="268"/>
      <point x="213" y="284"/>
      <point x="176" y="284" type="curve" smooth="yes"/>
      <point x="147" y="284" type="line"/>
      <point x="147" y="368" type="line"/>
      <point x="177" y="368" type="line" smooth="yes"/>
      <point x="210" y="368"/>
      <point x="231" y="394"/>
      <point x="231" y="449" type="curve" smooth="yes"/>
      <point x="231" y="492"/>
      <point x="217" y="513"/>
      <point x="185" y="513" type="curve" smooth="yes"/>
      <point x="-10" y="513" type="line"/>
      <point x="-10" y="606" type="line"/>
      <point x="608" y="606" type="line"/>
    </contour>
  </outline>
</glyph>
<glyph name="eCandradeva" format="1">
  <advance width="491"/>
  <unicode hex="090D"/>
  <outline>
    <contour>
      <point x="246" y="0" type="move" name="Anchor-3"/>
    </contour>
    <contour>
      <point x="368" y="634" type="curve" smooth="yes"/>
      <point x="270" y="634"/>
      <point x="209" y="699"/>
      <point x="209" y="793" type="curve"/>
      <point x="301" y="793" type="line"/>
      <point x="301" y="735"/>
      <point x="329" y="710"/>
      <point x="368" y="710" type="curve" smooth="yes"/>
      <point x="410" y="710"/>
      <point x="436" y="735"/>
      <point x="436" y="793" type="curve"/>
      <point x="529" y="793" type="line"/>
      <point x="529" y="699"/>
      <point x="468" y="634"/>
    </contour>
    <contour>
      <point x="501" y="513" type="line"/>
      <point x="421" y="513" type="line"/>
      <point x="421" y="377" type="line" smooth="yes"/>
      <point x="421" y="315"/>
      <point x="399" y="252"/>
      <point x="316" y="252" type="curve" smooth="yes"/>
      <point x="295" y="252"/>
      <point x="275" y="257"/>
      <point x="260" y="263" type="curve"/>
      <point x="260" y="341" type="line"/>
      <point x="279" y="341" type="line" smooth="yes"/>
      <point x="303" y="341"/>
      <point x="315" y="356"/>
      <point x="315" y="384" type="curve" smooth="yes"/>
      <point x="315" y="513" type="line"/>
      <point x="176" y="513" type="line"/>
      <point x="176" y="294" type="line" smooth="yes"/>
      <point x="176" y="273"/>
      <point x="180" y="259"/>
      <point x="190" y="250" type="curve" smooth="yes"/>
      <point x="342" y="108" type="line" smooth="yes"/>
      <point x="386" y="71"/>
      <point x="403" y="40"/>
      <point x="403" y="14" type="curve" smooth="yes"/>
      <point x="403" y="-6"/>
      <point x="397" y="-24"/>
      <point x="387" y="-47" type="curve"/>
      <point x="298" y="-47" type="line"/>
      <point x="300" y="-35"/>
      <point x="300" y="-26"/>
      <point x="300" y="-17" type="curve" smooth="yes"/>
      <point x="300" y="7"/>
      <point x="294" y="23"/>
      <point x="275" y="42" type="curve" smooth="yes"/>
      <point x="105" y="201" type="line" smooth="yes"/>
      <point x="81" y="224"/>
      <point x="70" y="248"/>
      <point x="70" y="287" type="curve" smooth="yes"/>
      <point x="70" y="513" type="line"/>
      <point x="-10" y="513" type="line"/>
      <point x="-10" y="606" type="line"/>
      <point x="501" y="606" type="line"/>
    </contour>
  </outline>
</glyph>
<glyph name="eShortdeva" format="1">
  <advance width="491"/>
  <unicode hex="090E"/>
  <outline>
    <contour>
      <point x="246" y="0" type="move" name="Anchor-3"/>
    </contour>
    <contour>
      <point x="246" y="465" type="move" name="Anchor-2"/>
    </contour>
    <contour>
      <point x="29" y="827" type="line"/>
      <point x="29" y="805" type="line" smooth="yes"/>
      <point x="29" y="787"/>
      <point x="37" y="779"/>
      <point x="57" y="779" type="curve" smooth="yes"/>
      <point x="286" y="779" type="line" smooth="yes"/>
      <point x="381" y="779"/>
      <point x="421" y="744"/>
      <point x="421" y="662" type="curve" smooth="yes"/>
      <point x="421" y="606" type="line"/>
      <point x="501" y="606" type="line"/>
      <point x="501" y="513" type="line"/>
      <point x="421" y="513" type="line"/>
      <point x="421" y="377" type="line" smooth="yes"/>
      <point x="421" y="315"/>
      <point x="399" y="252"/>
      <point x="316" y="252" type="curve" smooth="yes"/>
      <point x="295" y="252"/>
      <point x="275" y="257"/>
      <point x="260" y="263" type="curve"/>
      <point x="260" y="341" type="line"/>
      <point x="279" y="341" type="line" smooth="yes"/>
      <point x="303" y="341"/>
      <point x="315" y="356"/>
      <point x="315" y="384" type="curve" smooth="yes"/>
      <point x="315" y="513" type="line"/>
      <point x="176" y="513" type="line"/>
      <point x="176" y="294" type="line" smooth="yes"/>
      <point x="176" y="273"/>
      <point x="180" y="259"/>
      <point x="190" y="250" type="curve" smooth="yes"/>
      <point x="342" y="108" type="line" smooth="yes"/>
      <point x="386" y="71"/>
      <point x="403" y="40"/>
      <point x="403" y="14" type="curve" smooth="yes"/>
      <point x="403" y="-6"/>
      <point x="397" y="-24"/>
      <point x="387" y="-47" type="curve"/>
      <point x="298" y="-47" type="line"/>
      <point x="300" y="-35"/>
      <point x="300" y="-26"/>
      <point x="300" y="-17" type="curve" smooth="yes"/>
      <point x="300" y="7"/>
      <point x="294" y="23"/>
      <point x="275" y="42" type="curve" smooth="yes"/>
      <point x="105" y="201" type="line" smooth="yes"/>
      <point x="81" y="224"/>
      <point x="70" y="248"/>
      <point x="70" y="287" type="curve" smooth="yes"/>
      <point x="70" y="513" type="line"/>
      <point x="-10" y="513" type="line"/>
      <point x="-10" y="606" type="line"/>
      <point x="315" y="606" type="line"/>
      <point x="315" y="662" type="line" smooth="yes"/>
      <point x="315" y="680"/>
      <point x="306" y="687"/>
      <point x="286" y="687" type="curve" smooth="yes"/>
      <point x="57" y="687" type="line" smooth="yes"/>
      <point x="-37" y="687"/>
      <point x="-77" y="722"/>
      <point x="-77" y="805" type="curve" smooth="yes"/>
      <point x="-77" y="827" type="line"/>
    </contour>
  </outline>
</glyph>
<glyph name="khadeva" format="1">
  <advance width="690"/>
  <unicode hex="0916"/>
  <outline>
    <contour>
      <point x="567" y="0" type="move" name="Anchor-3"/>
    </contour>
    <contour>
      <point x="567" y="606" type="move" name="Anchor-2"/>
    </contour>
    <contour>
      <point x="700" y="513" type="line"/>
      <point x="620" y="513" type="line"/>
      <point x="620" y="0" type="line"/>
      <point x="514" y="0" type="line"/>
      <point x="514" y="71" type="line"/>
      <point x="475" y="41"/>
      <point x="412" y="26"/>
      <point x="342" y="26" type="curve" smooth="yes"/>
      <point x="160" y="26"/>
      <point x="26" y="137"/>
      <point x="26" y="344" type="curve"/>
      <point x="87" y="344" type="line" smooth="yes"/>
      <point x="130" y="344"/>
      <point x="153" y="373"/>
      <point x="153" y="429" type="curve" smooth="yes"/>
      <point x="153" y="513" type="line"/>
      <point x="-10" y="513" type="line"/>
      <point x="-10" y="606" type="line"/>
      <point x="700" y="606" type="line"/>
    </contour>
    <contour>
      <point x="259" y="513" type="line"/>
      <point x="259" y="439" type="line" smooth="yes"/>
      <point x="259" y="335"/>
      <point x="219" y="275"/>
      <point x="145" y="262" type="curve"/>
      <point x="171" y="177"/>
      <point x="232" y="114"/>
      <point x="347" y="114" type="curve" smooth="yes"/>
      <point x="449" y="114"/>
      <point x="499" y="145"/>
      <point x="513" y="194" type="curve"/>
      <point x="509" y="194" type="line"/>
      <point x="492" y="180"/>
      <point x="464" y="169"/>
      <point x="430" y="169" type="curve" smooth="yes"/>
      <point x="349" y="169"/>
      <point x="298" y="214"/>
      <point x="298" y="316" type="curve" smooth="yes"/>
      <point x="298" y="417"/>
      <point x="348" y="461"/>
      <point x="430" y="461" type="curve" smooth="yes"/>
      <point x="464" y="461"/>
      <point x="492" y="450"/>
      <point x="509" y="436" type="curve"/>
      <point x="514" y="436" type="line"/>
      <point x="514" y="513" type="line"/>
    </contour>
    <contour>
      <point x="461" y="364" type="curve" smooth="yes"/>
      <point x="421" y="364"/>
      <point x="408" y="349"/>
      <point x="408" y="321" type="curve" smooth="yes"/>
      <point x="408" y="309" type="line" smooth="yes"/>
      <point x="408" y="281"/>
      <point x="421" y="266"/>
      <point x="461" y="266" type="curve" smooth="yes"/>
      <point x="499" y="266"/>
      <point x="513" y="281"/>
      <point x="513" y="309" type="curve" smooth="yes"/>
      <point x="513" y="320" type="line" smooth="yes"/>
      <point x="513" y="348"/>
      <point x="499" y="364"/>
    </contour>
  </outline>
</glyph>
<glyph name="gadeva" format="1">
  <advance width="560"/>
  <unicode hex="0917"/>
  <outline>
    <contour>
      <point x="437" y="0" type="move" name="Anchor-3"/>
    </contour>
    <contour>
      <point x="437" y="606" type="move" name="Anchor-2"/>
    </contour>
    <contour>
      <point x="490" y="513" type="line"/>
      <point x="490" y="0" type="line"/>
      <point x="384" y="0" type="line"/>
      <point x="384" y="513" type="line"/>
      <point x="278" y="513" type="line"/>
      <point x="278" y="218" type="line" smooth="yes"/>
      <point x="278" y="134"/>
      <point x="223" y="75"/>
      <point x="137" y="75" type="curve" smooth="yes"/>
      <point x="51" y="75"/>
      <point x="0" y="129"/>
      <point x="0" y="218" type="curve" smooth="yes"/>
      <point x="0" y="302"/>
      <point x="55" y="359"/>
      <point x="138" y="359" type="curve" smooth="yes"/>
      <point x="172" y="359" type="line"/>
      <point x="172" y="513" type="line"/>
      <point x="-10" y="513" type="line"/>
      <point x="-10" y="606" type="line"/>
      <point x="570" y="606" type="line"/>
      <point x="570" y="513" type="line"/>
    </contour>
    <contour>
      <point x="137" y="169" type="curve" smooth="yes"/>
      <point x="160" y="169"/>
      <point x="172" y="188"/>
      <point x="172" y="218" type="curve" smooth="yes"/>
      <point x="172" y="265" type="line"/>
      <point x="138" y="265" type="line" smooth="yes"/>
      <point x="116" y="265"/>
      <point x="102" y="245"/>
      <point x="102" y="218" type="curve" smooth="yes"/>
      <point x="102" y="186"/>
      <point x="114" y="169"/>
    </contour>
  </outline>
</glyph>
<glyph name="ghadeva" format="1">
  <advance width="511"/>
  <unicode hex="0918"/>
  <outline>
    <contour>
      <point x="389" y="0" type="move" name="Anchor-3"/>
    </contour>
    <contour>
      <point x="389" y="606" type="move" name="Anchor-2"/>
    </contour>
    <contour>
      <point x="522" y="513" type="line"/>
      <point x="442" y="513" type="line"/>
      <point x="442" y="0" type="line"/>
      <point x="336" y="0" type="line"/>
      <point x="336" y="135" type="line"/>
      <point x="311" y="114"/>
      <point x="277" y="103"/>
      <point x="232" y="103" type="curve" smooth="yes"/>
      <point x="124" y="103"/>
      <point x="49" y="167"/>
      <point x="49" y="257" type="curve" smooth="yes"/>
      <point x="49" y="317"/>
      <point x="83" y="358"/>
      <point x="126" y="374" type="curve"/>
      <point x="86" y="387"/>
      <point x="49" y="415"/>
      <point x="49" y="466" type="curve" smooth="yes"/>
      <point x="49" y="484"/>
      <point x="53" y="499"/>
      <point x="61" y="513" type="curve"/>
      <point x="-10" y="513" type="line"/>
      <point x="-10" y="606" type="line"/>
      <point x="522" y="606" type="line"/>
    </contour>
    <contour>
      <point x="336" y="320" type="line"/>
      <point x="336" y="513" type="line"/>
      <point x="193" y="513" type="line" smooth="yes"/>
      <point x="166" y="513"/>
      <point x="160" y="489"/>
      <point x="160" y="469" type="curve" smooth="yes"/>
      <point x="160" y="432"/>
      <point x="184" y="413"/>
      <point x="217" y="413" type="curve" smooth="yes"/>
      <point x="261" y="413" type="line"/>
      <point x="261" y="326" type="line"/>
      <point x="218" y="326" type="line" smooth="yes"/>
      <point x="186" y="326"/>
      <point x="160" y="309"/>
      <point x="160" y="270" type="curve" smooth="yes"/>
      <point x="160" y="218"/>
      <point x="200" y="190"/>
      <point x="253" y="190" type="curve" smooth="yes"/>
      <point x="310" y="190"/>
      <point x="335" y="230"/>
      <point x="335" y="300" type="curve" smooth="yes"/>
      <point x="335" y="320" type="line"/>
    </contour>
  </outline>
</glyph>
<glyph name="ngadeva" format="1">
  <advance width="504"/>
  <unicode hex="0919"/>
  <outline>
    <contour>
      <point x="231" y="0" type="move" name="Anchor-3"/>
    </contour>
    <contour>
      <point x="308" y="606" type="move" name="Anchor-2"/>
    </contour>
    <contour>
      <point x="514" y="513" type="line"/>
      <point x="361" y="513" type="line"/>
      <point x="361" y="354" type="line"/>
      <point x="225" y="354" type="line" smooth="yes"/>
      <point x="193" y="354"/>
      <point x="174" y="342"/>
      <point x="174" y="316" type="curve" smooth="yes"/>
      <point x="174" y="286"/>
      <point x="197" y="281"/>
      <point x="240" y="279" type="curve" smooth="yes"/>
      <point x="314" y="276"/>
      <point x="390" y="251"/>
      <point x="390" y="142" type="curve" smooth="yes"/>
      <point x="390" y="29"/>
      <point x="310" y="-11"/>
      <point x="211" y="-11" type="curve" smooth="yes"/>
      <point x="92" y="-11"/>
      <point x="31" y="49"/>
      <point x="31" y="133" type="curve" smooth="yes"/>
      <point x="31" y="144"/>
      <point x="32" y="148"/>
      <point x="32" y="148" type="curve"/>
      <point x="140" y="148" type="line"/>
      <point x="140" y="141" type="line" smooth="yes"/>
      <point x="140" y="96"/>
      <point x="175" y="76"/>
      <point x="216" y="76" type="curve" smooth="yes"/>
      <point x="260" y="76"/>
      <point x="282" y="96"/>
      <point x="282" y="134" type="curve" smooth="yes"/>
      <point x="282" y="183"/>
      <point x="247" y="186"/>
      <point x="216" y="188" type="curve" smooth="yes"/>
      <point x="151" y="192"/>
      <point x="66" y="212"/>
      <point x="66" y="314" type="curve" smooth="yes"/>
      <point x="66" y="412"/>
      <point x="135" y="447"/>
      <point x="228" y="447" type="curve" smooth="yes"/>
      <point x="255" y="447" type="line"/>
      <point x="255" y="513" type="line"/>
      <point x="-10" y="513" type="line"/>
      <point x="-10" y="606" type="line"/>
      <point x="514" y="606" type="line"/>
    </contour>
    <contour>
      <point x="486" y="357" type="line"/>
      <point x="486" y="274" type="line"/>
      <point x="403" y="274" type="line"/>
      <point x="403" y="357" type="line"/>
    </contour>
  </outline>
</glyph>
<glyph name="cadeva" format="1">
  <advance width="483"/>
  <unicode hex="091A"/>
  <outline>
    <contour>
      <point x="360" y="0" type="move" name="Anchor-3"/>
    </contour>
    <contour>
      <point x="360" y="606" type="move" name="Anchor-2"/>
    </contour>
    <contour>
      <point x="413" y="513" type="line"/>
      <point x="413" y="0" type="line"/>
      <point x="307" y="0" type="line"/>
      <point x="307" y="97" type="line"/>
      <point x="303" y="97" type="line"/>
      <point x="285" y="83"/>
      <point x="255" y="72"/>
      <point x="218" y="72" type="curve" smooth="yes"/>
      <point x="132" y="72"/>
      <point x="77" y="126"/>
      <point x="77" y="245" type="curve" smooth="yes"/>
      <point x="77" y="282"/>
      <point x="84" y="311"/>
      <point x="97" y="334" type="curve"/>
      <point x="4" y="334" type="line"/>
      <point x="4" y="428" type="line"/>
      <point x="257" y="428" type="line"/>
      <point x="257" y="334" type="line"/>
      <point x="247" y="334" type="line" smooth="yes"/>
      <point x="202" y="334"/>
      <point x="188" y="310"/>
      <point x="188" y="266" type="curve" smooth="yes"/>
      <point x="188" y="247" type="line" smooth="yes"/>
      <point x="188" y="197"/>
      <point x="202" y="169"/>
      <point x="247" y="169" type="curve" smooth="yes"/>
      <point x="292" y="169"/>
      <point x="307" y="197"/>
      <point x="307" y="247" type="curve" smooth="yes"/>
      <point x="307" y="513" type="line"/>
      <point x="-10" y="513" type="line"/>
      <point x="-10" y="606" type="line"/>
      <point x="493" y="606" type="line"/>
      <point x="493" y="513" type="line"/>
    </contour>
  </outline>
</glyph>
<glyph name="chadeva" format="1">
  <advance width="585"/>
  <unicode hex="091B"/>
  <outline>
    <contour>
      <point x="308" y="0" type="move" name="Anchor-3"/>
    </contour>
    <contour>
      <point x="421" y="606" type="move" name="Anchor-2"/>
    </contour>
    <contour>
      <point x="595" y="513" type="line"/>
      <point x="474" y="513" type="line"/>
      <point x="474" y="443" type="line"/>
      <point x="524" y="425"/>
      <point x="554" y="381"/>
      <point x="554" y="302" type="curve" smooth="yes"/>
      <point x="554" y="155"/>
      <point x="448" y="42"/>
      <point x="276" y="42" type="curve" smooth="yes"/>
      <point x="136" y="42"/>
      <point x="39" y="112"/>
      <point x="39" y="209" type="curve" smooth="yes"/>
      <point x="39" y="267"/>
      <point x="75" y="312"/>
      <point x="116" y="328" type="curve"/>
      <point x="76" y="343"/>
      <point x="39" y="385"/>
      <point x="39" y="446" type="curve" smooth="yes"/>
      <point x="39" y="472"/>
      <point x="45" y="494"/>
      <point x="58" y="513" type="curve"/>
      <point x="-20" y="513" type="line"/>
      <point x="-20" y="606" type="line"/>
      <point x="595" y="606" type="line"/>
    </contour>
    <contour>
      <point x="368" y="513" type="line"/>
      <point x="188" y="513" type="line" smooth="yes"/>
      <point x="157" y="513"/>
      <point x="150" y="478"/>
      <point x="150" y="445" type="curve" smooth="yes"/>
      <point x="150" y="393"/>
      <point x="167" y="367"/>
      <point x="194" y="367" type="curve" smooth="yes"/>
      <point x="225" y="367" type="line"/>
      <point x="225" y="280" type="line"/>
      <point x="195" y="280" type="line" smooth="yes"/>
      <point x="168" y="280"/>
      <point x="150" y="260"/>
      <point x="150" y="223" type="curve" smooth="yes"/>
      <point x="150" y="164"/>
      <point x="196" y="129"/>
      <point x="277" y="129" type="curve" smooth="yes"/>
      <point x="403" y="129"/>
      <point x="453" y="217"/>
      <point x="453" y="292" type="curve" smooth="yes"/>
      <point x="453" y="316" type="line" smooth="yes"/>
      <point x="453" y="355"/>
      <point x="445" y="375"/>
      <point x="414" y="375" type="curve" smooth="yes"/>
      <point x="392" y="375"/>
      <point x="380" y="364"/>
      <point x="380" y="342" type="curve" smooth="yes"/>
      <point x="380" y="320" type="line"/>
      <point x="290" y="320" type="line"/>
      <point x="289" y="325"/>
      <point x="286" y="337"/>
      <point x="286" y="352" type="curve" smooth="yes"/>
      <point x="286" y="397"/>
      <point x="314" y="434"/>
      <point x="368" y="447" type="curve"/>
    </contour>
  </outline>
</glyph>
<glyph name="jadeva" format="1">
  <advance width="572"/>
  <unicode hex="091C"/>
  <outline>
    <contour>
      <point x="449" y="0" type="move" name="Anchor-3"/>
    </contour>
    <contour>
      <point x="449" y="606" type="move" name="Anchor-2"/>
    </contour>
    <contour>
      <point x="582" y="513" type="line"/>
      <point x="502" y="513" type="line"/>
      <point x="502" y="0" type="line"/>
      <point x="396" y="0" type="line"/>
      <point x="396" y="312" type="line"/>
      <point x="330" y="312" type="line"/>
      <point x="330" y="208" type="line" smooth="yes"/>
      <point x="330" y="120"/>
      <point x="268" y="73"/>
      <point x="180" y="73" type="curve" smooth="yes"/>
      <point x="91" y="73"/>
      <point x="30" y="120"/>
      <point x="30" y="208" type="curve" smooth="yes"/>
      <point x="30" y="406" type="line"/>
      <point x="136" y="406" type="line"/>
      <point x="136" y="211" type="line" smooth="yes"/>
      <point x="136" y="181"/>
      <point x="154" y="163"/>
      <point x="180" y="163" type="curve" smooth="yes"/>
      <point x="206" y="163"/>
      <point x="224" y="181"/>
      <point x="224" y="211" type="curve" smooth="yes"/>
      <point x="224" y="406" type="line"/>
      <point x="396" y="406" type="line"/>
      <point x="396" y="513" type="line"/>
      <point x="-10" y="513" type="line"/>
      <point x="-10" y="606" type="line"/>
      <point x="582" y="606" type="line"/>
    </contour>
  </outline>
</glyph>
<glyph name="jhadeva" format="1">
  <advance width="651"/>
  <unicode hex="091D"/>
  <outline>
    <contour>
      <point x="528" y="0" type="move" name="Anchor-3"/>
    </contour>
    <contour>
      <point x="528" y="606" type="move" name="Anchor-2"/>
    </contour>
    <contour>
      <point x="661" y="513" type="line"/>
      <point x="581" y="513" type="line"/>
      <point x="581" y="0" type="line"/>
      <point x="475" y="0" type="line"/>
      <point x="475" y="196" type="line"/>
      <point x="372" y="196" type="line"/>
      <point x="383" y="180"/>
      <point x="390" y="158"/>
      <point x="390" y="128" type="curve" smooth="yes"/>
      <point x="390" y="25"/>
      <point x="311" y="-11"/>
      <point x="236" y="-11" type="curve" smooth="yes"/>
      <point x="194" y="-11"/>
      <point x="157" y="-1"/>
      <point x="130" y="15" type="curve"/>
      <point x="130" y="-80" type="line"/>
      <point x="33" y="-80" type="line"/>
      <point x="33" y="148" type="line"/>
      <point x="139" y="148" type="line"/>
      <point x="139" y="141" type="line" smooth="yes"/>
      <point x="139" y="93"/>
      <point x="180" y="76"/>
      <point x="212" y="76" type="curve" smooth="yes"/>
      <point x="248" y="76"/>
      <point x="282" y="94"/>
      <point x="282" y="134" type="curve" smooth="yes"/>
      <point x="282" y="180"/>
      <point x="246" y="183"/>
      <point x="215" y="185" type="curve" smooth="yes"/>
      <point x="152" y="188"/>
      <point x="65" y="201"/>
      <point x="65" y="314" type="curve" smooth="yes"/>
      <point x="65" y="411"/>
      <point x="135" y="447"/>
      <point x="228" y="447" type="curve" smooth="yes"/>
      <point x="255" y="447" type="line"/>
      <point x="255" y="513" type="line"/>
      <point x="-10" y="513" type="line"/>
      <point x="-10" y="606" type="line"/>
      <point x="661" y="606" type="line"/>
    </contour>
    <contour>
      <point x="475" y="513" type="line"/>
      <point x="361" y="513" type="line"/>
      <point x="361" y="354" type="line"/>
      <point x="224" y="354" type="line" smooth="yes"/>
      <point x="200" y="354"/>
      <point x="173" y="342"/>
      <point x="173" y="315" type="curve" smooth="yes"/>
      <point x="173" y="285"/>
      <point x="203" y="277"/>
      <point x="240" y="277" type="curve" smooth="yes"/>
      <point x="475" y="277" type="line"/>
    </contour>
  </outline>
</glyph>
<glyph name="ttadeva" format="1">
  <advance width="382"/>
  <unicode hex="091F"/>
  <outline>
    <contour>
      <point x="198" y="0" type="move" name="Anchor-3"/>
    </contour>
    <contour>
      <point x="266" y="606" type="move" name="Anchor-2"/>
    </contour>
    <contour>
      <point x="318" y="340" type="line"/>
      <point x="205" y="340" type="line" smooth="yes"/>
      <point x="165" y="340"/>
      <point x="140" y="310"/>
      <point x="140" y="237" type="curve" smooth="yes"/>
      <point x="140" y="172"/>
      <point x="158" y="132"/>
      <point x="198" y="132" type="curve" smooth="yes"/>
      <point x="233" y="132"/>
      <point x="248" y="157"/>
      <point x="248" y="208" type="curve" smooth="yes"/>
      <point x="248" y="215" type="line"/>
      <point x="349" y="215" type="line"/>
      <point x="350" y="207"/>
      <point x="350" y="199"/>
      <point x="350" y="194" type="curve" smooth="yes"/>
      <point x="349" y="97"/>
      <point x="292" y="42"/>
      <point x="196" y="42" type="curve" smooth="yes"/>
      <point x="83" y="42"/>
      <point x="30" y="116"/>
      <point x="30" y="239" type="curve" smooth="yes"/>
      <point x="30" y="372"/>
      <point x="97" y="434"/>
      <point x="201" y="434" type="curve" smooth="yes"/>
      <point x="212" y="434" type="line"/>
      <point x="212" y="513" type="line"/>
      <point x="-10" y="513" type="line"/>
      <point x="-10" y="606" type="line"/>
      <point x="392" y="606" type="line"/>
      <point x="392" y="513" type="line"/>
      <point x="318" y="513" type="line"/>
    </contour>
  </outline>
</glyph>
<glyph name="nnadeva" format="1">
  <advance width="643"/>
  <unicode hex="0923"/>
  <outline>
    <contour>
      <point x="521" y="0" type="move" name="Anchor-3"/>
    </contour>
    <contour>
      <point x="521" y="606" type="move" name="Anchor-2"/>
    </contour>
    <contour>
      <point x="573" y="513" type="line"/>
      <point x="573" y="0" type="line"/>
      <point x="467" y="0" type="line"/>
      <point x="467" y="513" type="line"/>
      <point x="361" y="513" type="line"/>
      <point x="361" y="266" type="line" smooth="yes"/>
      <point x="361" y="171"/>
      <point x="294" y="117"/>
      <point x="197" y="117" type="curve" smooth="yes"/>
      <point x="100" y="117"/>
      <point x="34" y="171"/>
      <point x="34" y="266" type="curve" smooth="yes"/>
      <point x="34" y="513" type="line"/>
      <point x="-10" y="513" type="line"/>
      <point x="-10" y="606" type="line"/>
      <point x="653" y="606" type="line"/>
      <point x="653" y="513" type="line"/>
    </contour>
    <contour>
      <point x="140" y="513" type="line"/>
      <point x="140" y="266" type="line" smooth="yes"/>
      <point x="140" y="232"/>
      <point x="164" y="207"/>
      <point x="197" y="207" type="curve" smooth="yes"/>
      <point x="231" y="207"/>
      <point x="255" y="232"/>
      <point x="255" y="266" type="curve" smooth="yes"/>
      <point x="255" y="513" type="line"/>
    </contour>
  </outline>
</glyph>
<glyph name="tadeva" format="1">
  <advance width="448"/>
  <unicode hex="0924"/>
  <outline>
    <contour>
      <point x="335" y="0" type="move" name="Anchor-3"/>
    </contour>
    <contour>
      <point x="335" y="606" type="move" name="Anchor-2"/>
    </contour>
    <contour>
      <point x="468" y="513" type="line"/>
      <point x="388" y="513" type="line"/>
      <point x="388" y="0" type="line"/>
      <point x="282" y="0" type="line"/>
      <point x="282" y="308" type="line"/>
      <point x="195" y="308" type="line" smooth="yes"/>
      <point x="150" y="308"/>
      <point x="135" y="280"/>
      <point x="135" y="235" type="curve" smooth="yes"/>
      <point x="135" y="205"/>
      <point x="138" y="138"/>
      <point x="203" y="0" type="curve"/>
      <point x="91" y="0" type="line"/>
      <point x="29" y="141"/>
      <point x="26" y="206"/>
      <point x="26" y="242" type="curve" smooth="yes"/>
      <point x="26" y="325"/>
      <point x="72" y="401"/>
      <point x="189" y="401" type="curve" smooth="yes"/>
      <point x="282" y="401" type="line"/>
      <point x="282" y="513" type="line"/>
      <point x="-10" y="513" type="line"/>
      <point x="-10" y="606" type="line"/>
      <point x="468" y="606" type="line"/>
    </contour>
  </outline>
</glyph>
<glyph name="thadeva" format="1">
  <advance width="584"/>
  <unicode hex="0925"/>
  <outline>
    <contour>
      <point x="462" y="0" type="move" name="Anchor-3"/>
    </contour>
    <contour>
      <point x="462" y="606" type="move" name="Anchor-2"/>
    </contour>
    <contour>
      <point x="514" y="513" type="line"/>
      <point x="514" y="0" type="line"/>
      <point x="408" y="0" type="line"/>
      <point x="408" y="140" type="line"/>
      <point x="379" y="115"/>
      <point x="335" y="103"/>
      <point x="287" y="103" type="curve" smooth="yes"/>
      <point x="166" y="103"/>
      <point x="83" y="182"/>
      <point x="83" y="331" type="curve"/>
      <point x="179" y="382"/>
      <point x="214" y="409"/>
      <point x="214" y="478" type="curve" smooth="yes"/>
      <point x="214" y="504"/>
      <point x="209" y="530"/>
      <point x="181" y="530" type="curve" smooth="yes"/>
      <point x="160" y="530"/>
      <point x="153" y="515"/>
      <point x="153" y="499" type="curve" smooth="yes"/>
      <point x="153" y="473" type="line"/>
      <point x="53" y="473" type="line"/>
      <point x="52" y="478"/>
      <point x="49" y="489"/>
      <point x="49" y="505" type="curve" smooth="yes"/>
      <point x="49" y="570"/>
      <point x="96" y="617"/>
      <point x="182" y="617" type="curve" smooth="yes"/>
      <point x="272" y="617"/>
      <point x="325" y="566"/>
      <point x="325" y="478" type="curve" smooth="yes"/>
      <point x="325" y="400"/>
      <point x="284" y="341"/>
      <point x="196" y="290" type="curve"/>
      <point x="205" y="234"/>
      <point x="236" y="191"/>
      <point x="303" y="191" type="curve" smooth="yes"/>
      <point x="380" y="191"/>
      <point x="408" y="236"/>
      <point x="408" y="303" type="curve" smooth="yes"/>
      <point x="408" y="513" type="line"/>
      <point x="370" y="513" type="line"/>
      <point x="370" y="606" type="line"/>
      <point x="594" y="606" type="line"/>
      <point x="594" y="513" type="line"/>
    </contour>
  </outline>
</glyph>
<glyph name="dhadeva" format="1">
  <advance width="571"/>
  <unicode hex="0927"/>
  <outline>
    <contour>
      <point x="450" y="0" type="move" name="Anchor-3"/>
    </contour>
    <contour>
      <point x="450" y="606" type="move" name="Anchor-2"/>
    </contour>
    <contour>
      <point x="501" y="513" type="line"/>
      <point x="501" y="0" type="line"/>
      <point x="395" y="0" type="line"/>
      <point x="395" y="142" type="line"/>
      <point x="364" y="117"/>
      <point x="319" y="103"/>
      <point x="259" y="103" type="curve" smooth="yes"/>
      <point x="128" y="103"/>
      <point x="49" y="169"/>
      <point x="49" y="262" type="curve" smooth="yes"/>
      <point x="49" y="324"/>
      <point x="83" y="366"/>
      <point x="126" y="383" type="curve"/>
      <point x="86" y="398"/>
      <point x="49" y="432"/>
      <point x="49" y="493" type="curve" smooth="yes"/>
      <point x="49" y="567"/>
      <point x="102" y="617"/>
      <point x="191" y="617" type="curve" smooth="yes"/>
      <point x="278" y="617"/>
      <point x="325" y="570"/>
      <point x="325" y="505" type="curve" smooth="yes"/>
      <point x="325" y="489"/>
      <point x="322" y="478"/>
      <point x="321" y="473" type="curve"/>
      <point x="221" y="473" type="line"/>
      <point x="221" y="499" type="line" smooth="yes"/>
      <point x="221" y="515"/>
      <point x="214" y="530"/>
      <point x="193" y="530" type="curve" smooth="yes"/>
      <point x="166" y="530"/>
      <point x="160" y="503"/>
      <point x="160" y="482" type="curve" smooth="yes"/>
      <point x="160" y="442"/>
      <point x="184" y="422"/>
      <point x="217" y="422" type="curve" smooth="yes"/>
      <point x="261" y="422" type="line"/>
      <point x="261" y="335" type="line"/>
      <point x="218" y="335" type="line" smooth="yes"/>
      <point x="186" y="335"/>
      <point x="160" y="317"/>
      <point x="160" y="275" type="curve" smooth="yes"/>
      <point x="160" y="220"/>
      <point x="205" y="190"/>
      <point x="276" y="190" type="curve" smooth="yes"/>
      <point x="359" y="190"/>
      <point x="395" y="230"/>
      <point x="395" y="300" type="curve" smooth="yes"/>
      <point x="395" y="513" type="line"/>
      <point x="358" y="513" type="line"/>
      <point x="358" y="606" type="line"/>
      <point x="581" y="606" type="line"/>
      <point x="581" y="513" type="line"/>
    </contour>
  </outline>
</glyph>
<glyph name="nadeva" format="1">
  <advance width="535"/>
  <unicode hex="0928"/>
  <outline>
    <contour>
      <point x="412" y="0" type="move" name="Anchor-3"/>
    </contour>
    <contour>
      <point x="412" y="606" type="move" name="Anchor-2"/>
    </contour>
    <contour>
      <point x="465" y="513" type="line"/>
      <point x="465" y="0" type="line"/>
      <point x="359" y="0" type="line"/>
      <point x="359" y="300" type="line"/>
      <point x="282" y="300" type="line"/>
      <point x="282" y="256" type="line" smooth="yes"/>
      <point x="282" y="175"/>
      <point x="228" y="118"/>
      <point x="141" y="118" type="curve" smooth="yes"/>
      <point x="55" y="118"/>
      <point x="4" y="170"/>
      <point x="4" y="256" type="curve" smooth="yes"/>
      <point x="4" y="338"/>
      <point x="59" y="393"/>
      <point x="142" y="393" type="curve" smooth="yes"/>
      <point x="359" y="393" type="line"/>
      <point x="359" y="513" type="line"/>
      <point x="-10" y="513" type="line"/>
      <point x="-10" y="606" type="line"/>
      <point x="545" y="606" type="line"/>
      <point x="545" y="513" type="line"/>
    </contour>
    <contour>
      <point x="176" y="300" type="line"/>
      <point x="142" y="300" type="line" smooth="yes"/>
      <point x="120" y="300"/>
      <point x="106" y="281"/>
      <point x="106" y="256" type="curve" smooth="yes"/>
      <point x="106" y="230"/>
      <point x="120" y="212"/>
      <point x="141" y="212" type="curve" smooth="yes"/>
      <point x="163" y="212"/>
      <point x="176" y="232"/>
      <point x="176" y="256" type="curve" smooth="yes"/>
    </contour>
  </outline>
</glyph>
<glyph name="padeva" format="1">
  <advance width="444"/>
  <unicode hex="092A"/>
  <outline>
    <contour>
      <point x="321" y="0" type="move" name="Anchor-3"/>
    </contour>
    <contour>
      <point x="321" y="606" type="move" name="Anchor-2"/>
    </contour>
    <contour>
      <point x="454" y="513" type="line"/>
      <point x="374" y="513" type="line"/>
      <point x="374" y="0" type="line"/>
      <point x="268" y="0" type="line"/>
      <point x="268" y="140" type="line"/>
      <point x="245" y="125"/>
      <point x="217" y="117"/>
      <point x="185" y="117" type="curve" smooth="yes"/>
      <point x="101" y="117"/>
      <point x="46" y="171"/>
      <point x="46" y="267" type="curve" smooth="yes"/>
      <point x="46" y="513" type="line"/>
      <point x="-10" y="513" type="line"/>
      <point x="-10" y="606" type="line"/>
      <point x="454" y="606" type="line"/>
    </contour>
    <contour>
      <point x="268" y="301" type="line"/>
      <point x="268" y="513" type="line"/>
      <point x="152" y="513" type="line"/>
      <point x="152" y="280" type="line" smooth="yes"/>
      <point x="152" y="235"/>
      <point x="176" y="207"/>
      <point x="210" y="207" type="curve" smooth="yes"/>
      <point x="243" y="207"/>
      <point x="267" y="233"/>
      <point x="267" y="272" type="curve" smooth="yes"/>
      <point x="267" y="301" type="line"/>
    </contour>
  </outline>
</glyph>
<glyph name="phadeva" format="1">
  <advance width="616"/>
  <unicode hex="092B"/>
  <outline>
    <contour>
      <point x="321" y="0" type="move" name="Anchor-3"/>
    </contour>
    <contour>
      <point x="321" y="606" type="move" name="Anchor-2"/>
    </contour>
    <contour>
      <point x="374" y="513" type="line"/>
      <point x="374" y="436" type="line"/>
      <point x="377" y="436" type="line"/>
      <point x="396" y="450"/>
      <point x="426" y="461"/>
      <point x="462" y="461" type="curve" smooth="yes"/>
      <point x="546" y="461"/>
      <point x="603" y="403"/>
      <point x="603" y="274" type="curve" smooth="yes"/>
      <point x="603" y="145"/>
      <point x="536" y="89"/>
      <point x="443" y="89" type="curve" smooth="yes"/>
      <point x="438" y="89"/>
      <point x="432" y="90"/>
      <point x="426" y="91" type="curve"/>
      <point x="426" y="186" type="line"/>
      <point x="433" y="186" type="line" smooth="yes"/>
      <point x="478" y="186"/>
      <point x="493" y="214"/>
      <point x="493" y="264" type="curve" smooth="yes"/>
      <point x="493" y="286" type="line" smooth="yes"/>
      <point x="493" y="336"/>
      <point x="478" y="364"/>
      <point x="433" y="364" type="curve" smooth="yes"/>
      <point x="395" y="364"/>
      <point x="378" y="344"/>
      <point x="374" y="306" type="curve"/>
      <point x="374" y="0" type="line"/>
      <point x="268" y="0" type="line"/>
      <point x="268" y="140" type="line"/>
      <point x="245" y="125"/>
      <point x="217" y="117"/>
      <point x="185" y="117" type="curve" smooth="yes"/>
      <point x="101" y="117"/>
      <point x="46" y="171"/>
      <point x="46" y="267" type="curve" smooth="yes"/>
      <point x="46" y="513" type="line"/>
      <point x="-10" y="513" type="line"/>
      <point x="-10" y="606" type="line"/>
      <point x="626" y="606" type="line"/>
      <point x="626" y="513" type="line"/>
    </contour>
    <contour>
      <point x="267" y="450" type="line"/>
      <point x="268" y="450" type="line"/>
      <point x="268" y="513" type="line"/>
      <point x="152" y="513" type="line"/>
      <point x="152" y="280" type="line" smooth="yes"/>
      <point x="152" y="235"/>
      <point x="176" y="207"/>
      <point x="210" y="207" type="curve" smooth="yes"/>
      <point x="243" y="207"/>
      <point x="267" y="233"/>
      <point x="267" y="272" type="curve" smooth="yes"/>
    </contour>
  </outline>
</glyph>
<glyph name="bhadeva" format="1">
  <advance width="613"/>
  <unicode hex="092D"/>
  <outline>
    <contour>
      <point x="491" y="0" type="move" name="Anchor-3"/>
    </contour>
    <contour>
      <point x="491" y="606" type="move" name="Anchor-2"/>
    </contour>
    <contour>
      <point x="543" y="513" type="line"/>
      <point x="543" y="0" type="line"/>
      <point x="437" y="0" type="line"/>
      <point x="437" y="226" type="line"/>
      <point x="330" y="226" type="line"/>
      <point x="330" y="183" type="line" smooth="yes"/>
      <point x="330" y="102"/>
      <point x="275" y="45"/>
      <point x="189" y="45" type="curve" smooth="yes"/>
      <point x="103" y="45"/>
      <point x="51" y="98"/>
      <point x="51" y="183" type="curve" smooth="yes"/>
      <point x="51" y="265"/>
      <point x="107" y="320"/>
      <point x="189" y="320" type="curve" smooth="yes"/>
      <point x="224" y="320" type="line"/>
      <point x="224" y="470" type="line" smooth="yes"/>
      <point x="224" y="504"/>
      <point x="216" y="530"/>
      <point x="185" y="530" type="curve" smooth="yes"/>
      <point x="153" y="530"/>
      <point x="143" y="502"/>
      <point x="143" y="475" type="curve" smooth="yes"/>
      <point x="143" y="437" type="line"/>
      <point x="45" y="437" type="line"/>
      <point x="41" y="445"/>
      <point x="39" y="464"/>
      <point x="39" y="482" type="curve" smooth="yes"/>
      <point x="39" y="562"/>
      <point x="96" y="617"/>
      <point x="183" y="617" type="curve" smooth="yes"/>
      <point x="280" y="617"/>
      <point x="330" y="565"/>
      <point x="330" y="477" type="curve" smooth="yes"/>
      <point x="330" y="320" type="line"/>
      <point x="437" y="320" type="line"/>
      <point x="437" y="513" type="line"/>
      <point x="392" y="513" type="line"/>
      <point x="392" y="606" type="line"/>
      <point x="623" y="606" type="line"/>
      <point x="623" y="513" type="line"/>
    </contour>
    <contour>
      <point x="224" y="226" type="line"/>
      <point x="189" y="226" type="line" smooth="yes"/>
      <point x="167" y="226"/>
      <point x="153" y="208"/>
      <point x="153" y="183" type="curve" smooth="yes"/>
      <point x="153" y="157"/>
      <point x="168" y="139"/>
      <point x="189" y="139" type="curve" smooth="yes"/>
      <point x="211" y="139"/>
      <point x="224" y="158"/>
      <point x="224" y="183" type="curve" smooth="yes"/>
    </contour>
  </outline>
</glyph>
<glyph name="madeva" format="1">
  <advance width="570"/>
  <unicode hex="092E"/>
  <outline>
    <contour>
      <point x="448" y="0" type="move" name="Anchor-3"/>
    </contour>
    <contour>
      <point x="448" y="606" type="move" name="Anchor-2"/>
    </contour>
    <contour>
      <point x="501" y="513" type="line"/>
      <point x="501" y="0" type="line"/>
      <point x="395" y="0" type="line"/>
      <point x="395" y="227" type="line"/>
      <point x="279" y="227" type="line"/>
      <point x="279" y="183" type="line" smooth="yes"/>
      <point x="279" y="102"/>
      <point x="224" y="46"/>
      <point x="137" y="46" type="curve" smooth="yes"/>
      <point x="51" y="46"/>
      <point x="0" y="97"/>
      <point x="0" y="183" type="curve" smooth="yes"/>
      <point x="0" y="265"/>
      <point x="55" y="320"/>
      <point x="138" y="320" type="curve" smooth="yes"/>
      <point x="173" y="320" type="line"/>
      <point x="173" y="513" type="line"/>
      <point x="-10" y="513" type="line"/>
      <point x="-10" y="606" type="line"/>
      <point x="581" y="606" type="line"/>
      <point x="581" y="513" type="line"/>
    </contour>
    <contour>
      <point x="395" y="513" type="line"/>
      <point x="279" y="513" type="line"/>
      <point x="279" y="320" type="line"/>
      <point x="395" y="320" type="line"/>
    </contour>
    <contour>
      <point x="173" y="227" type="line"/>
      <point x="138" y="227" type="line" smooth="yes"/>
      <point x="116" y="227"/>
      <point x="102" y="208"/>
      <point x="102" y="183" type="curve" smooth="yes"/>
      <point x="102" y="157"/>
      <point x="117" y="139"/>
      <point x="137" y="139" type="curve" smooth="yes"/>
      <point x="160" y="139"/>
      <point x="173" y="159"/>
      <point x="173" y="183" type="curve" smooth="yes"/>
    </contour>
  </outline>
</glyph>
<glyph name="yadeva" format="1">
  <advance width="489"/>
  <unicode hex="092F"/>
  <outline>
    <contour>
      <point x="366" y="0" type="move" name="Anchor-3"/>
    </contour>
    <contour>
      <point x="366" y="606" type="move" name="Anchor-2"/>
    </contour>
    <contour>
      <point x="419" y="513" type="line"/>
      <point x="419" y="0" type="line"/>
      <point x="313" y="0" type="line"/>
      <point x="313" y="137" type="line"/>
      <point x="288" y="114"/>
      <point x="250" y="103"/>
      <point x="209" y="103" type="curve" smooth="yes"/>
      <point x="94" y="103"/>
      <point x="22" y="182"/>
      <point x="22" y="330" type="curve"/>
      <point x="66" y="330"/>
      <point x="125" y="351"/>
      <point x="125" y="424" type="curve" smooth="yes"/>
      <point x="125" y="474"/>
      <point x="94" y="513"/>
      <point x="56" y="513" type="curve" smooth="yes"/>
      <point x="-10" y="513" type="line"/>
      <point x="-10" y="606" type="line"/>
      <point x="499" y="606" type="line"/>
      <point x="499" y="513" type="line"/>
    </contour>
    <contour>
      <point x="228" y="191" type="curve" smooth="yes"/>
      <point x="290" y="191"/>
      <point x="313" y="236"/>
      <point x="313" y="303" type="curve" smooth="yes"/>
      <point x="313" y="513" type="line"/>
      <point x="192" y="513" type="line"/>
      <point x="216" y="488"/>
      <point x="230" y="450"/>
      <point x="230" y="408" type="curve" smooth="yes"/>
      <point x="230" y="346"/>
      <point x="195" y="298"/>
      <point x="138" y="272" type="curve"/>
      <point x="148" y="225"/>
      <point x="171" y="191"/>
    </contour>
  </outline>
</glyph>
<glyph name="radeva" format="1">
  <advance width="337"/>
  <unicode hex="0930"/>
  <outline>
    <contour>
      <point x="146" y="0" type="move" name="Anchor-3"/>
    </contour>
    <contour>
      <point x="220" y="606" type="move" name="Anchor-2"/>
    </contour>
    <contour>
      <point x="272" y="513" type="line"/>
      <point x="272" y="409" type="line" smooth="yes"/>
      <point x="272" y="306"/>
      <point x="234" y="249"/>
      <point x="163" y="240" type="curve"/>
      <point x="284" y="0" type="line"/>
      <point x="173" y="0" type="line"/>
      <point x="59" y="254" type="line"/>
      <point x="59" y="324" type="line"/>
      <point x="120" y="324" type="line" smooth="yes"/>
      <point x="150" y="324"/>
      <point x="166" y="350"/>
      <point x="166" y="399" type="curve" smooth="yes"/>
      <point x="166" y="513" type="line"/>
      <point x="-10" y="513" type="line"/>
      <point x="-10" y="606" type="line"/>
      <point x="347" y="606" type="line"/>
      <point x="347" y="513" type="line"/>
    </contour>
  </outline>
</glyph>
<glyph name="rradeva" format="1">
  <advance width="337"/>
  <unicode hex="0931"/>
  <outline>
    <contour>
      <point x="220" y="0" type="move" name="Anchor-3"/>
    </contour>
    <contour>
      <point x="220" y="606" type="move" name="Anchor-2"/>
    </contour>
    <contour>
      <point x="272" y="513" type="line"/>
      <point x="272" y="439" type="line" smooth="yes"/>
      <point x="272" y="331"/>
      <point x="229" y="271"/>
      <point x="149" y="261" type="curve"/>
      <point x="304" y="0" type="line"/>
      <point x="193" y="0" type="line"/>
      <point x="39" y="274" type="line"/>
      <point x="39" y="344" type="line"/>
      <point x="100" y="344" type="line" smooth="yes"/>
      <point x="143" y="344"/>
      <point x="166" y="373"/>
      <point x="166" y="429" type="curve" smooth="yes"/>
      <point x="166" y="513" type="line"/>
      <point x="-10" y="513" type="line"/>
      <point x="-10" y="606" type="line"/>
      <point x="347" y="606" type="line"/>
      <point x="347" y="513" type="line"/>
    </contour>
    <contour>
      <point x="94" y="107" type="line"/>
      <point x="94" y="24" type="line"/>
      <point x="11" y="24" type="line"/>
      <point x="11" y="107" type="line"/>
    </contour>
  </outline>
</glyph>
<glyph name="ladeva" format="1">
  <advance width="605"/>
  <unicode hex="0932"/>
  <outline>
    <contour>
      <point x="482" y="0" type="move" name="Anchor-3"/>
    </contour>
    <contour>
      <point x="482" y="606" type="move" name="Anchor-2"/>
    </contour>
    <contour>
      <point x="615" y="513" type="line"/>
      <point x="535" y="513" type="line"/>
      <point x="535" y="0" type="line"/>
      <point x="429" y="0" type="line"/>
      <point x="429" y="277" type="line" smooth="yes"/>
      <point x="429" y="327"/>
      <point x="415" y="356"/>
      <point x="385" y="356" type="curve" smooth="yes"/>
      <point x="348" y="356"/>
      <point x="339" y="314"/>
      <point x="339" y="267" type="curve" smooth="yes"/>
      <point x="339" y="192" type="line"/>
      <point x="229" y="192" type="line"/>
      <point x="229" y="267" type="line" smooth="yes"/>
      <point x="229" y="314"/>
      <point x="220" y="356"/>
      <point x="184" y="356" type="curve" smooth="yes"/>
      <point x="153" y="356"/>
      <point x="139" y="311"/>
      <point x="139" y="232" type="curve" smooth="yes"/>
      <point x="139" y="135"/>
      <point x="176" y="89"/>
      <point x="252" y="89" type="curve" smooth="yes"/>
      <point x="285" y="89" type="line"/>
      <point x="285" y="4" type="line"/>
      <point x="273" y="1"/>
      <point x="258" y="0"/>
      <point x="245" y="0" type="curve" smooth="yes"/>
      <point x="104" y="0"/>
      <point x="29" y="81"/>
      <point x="29" y="250" type="curve" smooth="yes"/>
      <point x="29" y="368"/>
      <point x="85" y="445"/>
      <point x="171" y="445" type="curve" smooth="yes"/>
      <point x="232" y="445"/>
      <point x="269" y="409"/>
      <point x="283" y="361" type="curve"/>
      <point x="286" y="361" type="line"/>
      <point x="299" y="409"/>
      <point x="332" y="445"/>
      <point x="389" y="445" type="curve" smooth="yes"/>
      <point x="403" y="445"/>
      <point x="417" y="442"/>
      <point x="429" y="437" type="curve"/>
      <point x="429" y="513" type="line"/>
      <point x="-10" y="513" type="line"/>
      <point x="-10" y="606" type="line"/>
      <point x="615" y="606" type="line"/>
    </contour>
  </outline>
</glyph>
<glyph name="vadeva" format="1">
  <advance width="436"/>
  <unicode hex="0935"/>
  <outline>
    <contour>
      <point x="313" y="0" type="move" name="Anchor-3"/>
    </contour>
    <contour>
      <point x="313" y="606" type="move" name="Anchor-2"/>
    </contour>
    <contour>
      <point x="366" y="513" type="line"/>
      <point x="366" y="0" type="line"/>
      <point x="260" y="0" type="line"/>
      <point x="260" y="114" type="line"/>
      <point x="256" y="114" type="line"/>
      <point x="238" y="100"/>
      <point x="208" y="89"/>
      <point x="171" y="89" type="curve" smooth="yes"/>
      <point x="85" y="89"/>
      <point x="30" y="147"/>
      <point x="30" y="276" type="curve" smooth="yes"/>
      <point x="30" y="405"/>
      <point x="84" y="461"/>
      <point x="171" y="461" type="curve" smooth="yes"/>
      <point x="208" y="461"/>
      <point x="238" y="450"/>
      <point x="256" y="436" type="curve"/>
      <point x="260" y="436" type="line"/>
      <point x="260" y="513" type="line"/>
      <point x="-10" y="513" type="line"/>
      <point x="-10" y="606" type="line"/>
      <point x="446" y="606" type="line"/>
      <point x="446" y="513" type="line"/>
    </contour>
    <contour>
      <point x="200" y="186" type="curve" smooth="yes"/>
      <point x="245" y="186"/>
      <point x="260" y="214"/>
      <point x="260" y="264" type="curve" smooth="yes"/>
      <point x="260" y="284" type="line" smooth="yes"/>
      <point x="260" y="335"/>
      <point x="245" y="364"/>
      <point x="200" y="364" type="curve" smooth="yes"/>
      <point x="156" y="364"/>
      <point x="140" y="336"/>
      <point x="140" y="286" type="curve" smooth="yes"/>
      <point x="140" y="264" type="line" smooth="yes"/>
      <point x="140" y="214"/>
      <point x="156" y="186"/>
    </contour>
  </outline>
</glyph>
